SplineFontDB: 3.0
FontName: Monacal-Bold
FullName: Monacal Bold
FamilyName: Monacal
Weight: Bold
Copyright: Copyright (c) 2012 Fontstage (info@fontstage.com), with Reserved Font Names, 'Monacal'
Version: 1.001
ItalicAngle: 0
UnderlinePosition: -195
UnderlineWidth: 102
Ascent: 1638
Descent: 410
sfntRevision: 0x00010042
LayerCount: 2
Layer: 0 1 "Back"  1
Layer: 1 1 "Fore"  0
XUID: [1021 299 1561023988 5053376]
FSType: 0
OS2Version: 3
OS2_WeightWidthSlopeOnly: 0
OS2_UseTypoMetrics: 1
CreationTime: 1337869620
ModificationTime: 1354984376
PfmFamily: 17
TTFWeight: 700
TTFWidth: 5
LineGap: 0
VLineGap: 0
Panose: 2 0 5 3 0 0 0 2 0 3
OS2TypoAscent: 1411
OS2TypoAOffset: 0
OS2TypoDescent: -530
OS2TypoDOffset: 0
OS2TypoLinegap: 250
OS2WinAscent: 1618
OS2WinAOffset: 0
OS2WinDescent: 621
OS2WinDOffset: 0
HheadAscent: 1618
HheadAOffset: 0
HheadDescent: -621
HheadDOffset: 0
OS2SubXSize: 1331
OS2SubYSize: 1228
OS2SubXOff: 0
OS2SubYOff: 153
OS2SupXSize: 1331
OS2SupYSize: 1228
OS2SupXOff: 0
OS2SupYOff: 716
OS2StrikeYSize: 102
OS2StrikeYPos: 532
OS2CodePages: 20000093.00000000
OS2UnicodeRanges: a00000af.500020fb.00000000.00000000
DEI: 91125
TtTable: prep
PUSHW_1
 511
SCANCTRL
PUSHB_1
 4
SCANTYPE
EndTTInstrs
ShortTable: maxp 16
  1
  0
  416
  120
  6
  0
  0
  2
  0
  1
  1
  0
  64
  0
  0
  0
EndShort
LangName: 1033 "" "" "" "Fontstage: Monacal Bold: 2012" "" "Version 1.001" "" "Monacal is a trademark of Fontstage." "Fontstage" "Fontstage" "" "http://www.fontstage.com" "http://www.fontstage.com" "This Font Software is licensed under the SIL Open Font License, Version 1.1. This license is available with a FAQ at: http://scripts.sil.org/OFL" "http://scripts.sil.org/OFL" 
GaspTable: 1 65535 15 1
Encoding: UnicodeBmp
UnicodeInterp: none
NameList: AGL For New Fonts
DisplaySize: -24
AntiAlias: 1
FitToEm: 1
BeginChars: 65543 416

StartChar: .notdef
Encoding: 65536 -1 0
Width: 1536
Flags: W
LayerCount: 2
Fore
SplineSet
256 0 m 1,0,-1
 256 1203 l 1,1,-1
 1218 1203 l 1,2,-1
 1218 0 l 1,3,-1
 256 0 l 1,0,-1
286 30 m 1,4,-1
 1188 30 l 1,5,-1
 1188 1173 l 1,6,-1
 286 1173 l 1,7,-1
 286 30 l 1,4,-1
EndSplineSet
EndChar

StartChar: exclam
Encoding: 33 33 5
Width: 621
GlyphClass: 2
Flags: W
LayerCount: 2
Fore
SplineSet
442 347 m 1,0,-1
 357 347 l 1,1,2
 436 880 436 880 498 1421 c 1,3,-1
 712 1464 l 1,4,-1
 442 347 l 1,0,-1
442 24.5 m 128,-1,6
 404 -20 404 -20 356 -20 c 128,-1,7
 308 -20 308 -20 276 18 c 128,-1,8
 244 56 244 56 244 108.5 c 128,-1,9
 244 161 244 161 285 203.5 c 128,-1,10
 326 246 326 246 370 246 c 128,-1,11
 414 246 414 246 447 207 c 128,-1,12
 480 168 480 168 480 118.5 c 128,-1,5
 480 69 480 69 442 24.5 c 128,-1,6
EndSplineSet
EndChar

StartChar: quotedbl
Encoding: 34 34 6
Width: 465
GlyphClass: 2
Flags: W
LayerCount: 2
Fore
SplineSet
359 1454 m 1,0,-1
 490 1427 l 1,1,2
 462 1311 462 1311 420.5 1198 c 128,-1,3
 379 1085 379 1085 340 1009 c 1,4,-1
 303 1009 l 1,5,6
 318 1304 318 1304 359 1454 c 1,0,-1
649 1454 m 1,7,-1
 780 1427 l 1,8,9
 752 1311 752 1311 710.5 1198 c 128,-1,10
 669 1085 669 1085 630 1009 c 1,11,-1
 593 1009 l 1,12,13
 608 1304 608 1304 649 1454 c 1,7,-1
EndSplineSet
EndChar

StartChar: numbersign
Encoding: 35 35 7
Width: 1393
GlyphClass: 2
Flags: W
LayerCount: 2
Fore
SplineSet
1049 1244 m 1,0,-1
 988 867 l 1,1,-1
 1290 867 l 1,2,-1
 1153 729 l 1,3,-1
 970 729 l 1,4,-1
 922 425 l 1,5,-1
 1255 425 l 1,6,-1
 1112 287 l 1,7,-1
 899 287 l 1,8,9
 860 31 860 31 853 -31 c 1,10,-1
 696 -171 l 1,11,-1
 767 287 l 1,12,-1
 587 287 l 1,13,14
 548 31 548 31 541 -31 c 1,15,-1
 381 -169 l 1,16,-1
 453 287 l 1,17,-1
 168 287 l 1,18,-1
 310 425 l 1,19,-1
 478 425 l 1,20,-1
 522 729 l 1,21,-1
 177 729 l 1,22,-1
 314 867 l 1,23,-1
 541 867 l 1,24,25
 557 947 557 947 577 1102 c 1,26,-1
 736 1242 l 1,27,-1
 675 867 l 1,28,-1
 856 867 l 1,29,30
 871 945 871 945 892 1103 c 1,31,-1
 1049 1244 l 1,0,-1
657 729 m 1,32,-1
 610 425 l 1,33,-1
 792 425 l 1,34,-1
 836 729 l 1,35,-1
 657 729 l 1,32,-1
EndSplineSet
EndChar

StartChar: dollar
Encoding: 36 36 8
Width: 954
GlyphClass: 2
Flags: W
LayerCount: 2
Fore
SplineSet
441 -19 m 1,0,-1
 404 -20 l 1,1,2
 238 -20 238 -20 138.5 62.5 c 128,-1,3
 39 145 39 145 39 284 c 0,4,5
 39 362 39 362 80 419.5 c 128,-1,6
 121 477 121 477 184 477 c 128,-1,7
 247 477 247 477 282 416 c 1,8,9
 217 380 217 380 217 278.5 c 128,-1,10
 217 177 217 177 278 112 c 128,-1,11
 339 47 339 47 437 47 c 2,12,-1
 448 47 l 1,13,-1
 505 570 l 1,14,15
 361 695 361 695 324 748 c 0,16,17
 304 776 304 776 281 814 c 0,18,19
 239 883 239 883 239 974 c 0,20,21
 239 1115 239 1115 335 1209 c 128,-1,22
 431 1303 431 1303 588 1325 c 1,23,-1
 602 1455 l 1,24,-1
 679 1455 l 1,25,-1
 665 1331 l 1,26,-1
 679 1332 l 1,27,28
 794 1332 794 1332 867 1294 c 128,-1,29
 940 1256 940 1256 940 1190 c 0,30,31
 940 1098 940 1098 839 1033 c 1,32,33
 805 1129 805 1129 762.5 1187.5 c 128,-1,34
 720 1246 720 1246 657 1258 c 1,35,-1
 607 801 l 1,36,37
 645 774 645 774 653.5 768 c 128,-1,38
 662 762 662 762 697 735 c 128,-1,39
 732 708 732 708 742.5 697.5 c 128,-1,40
 753 687 753 687 781.5 660.5 c 128,-1,41
 810 634 810 634 820.5 617.5 c 128,-1,42
 831 601 831 601 849.5 573 c 128,-1,43
 868 545 868 545 875 521 c 0,44,45
 895 452 895 452 895 403 c 0,46,47
 895 242 895 242 790 131.5 c 128,-1,48
 685 21 685 21 519 -9 c 1,49,-1
 503 -158 l 1,50,-1
 426 -158 l 1,51,-1
 441 -19 l 1,0,-1
696 302 m 0,52,53
 696 393 696 393 575 507 c 1,54,-1
 526 57 l 1,55,56
 696 99 696 99 696 302 c 0,52,53
419 1075 m 0,57,58
 419 1012 419 1012 449.5 960.5 c 128,-1,59
 480 909 480 909 536 859 c 1,60,-1
 580 1258 l 1,61,62
 419 1237 419 1237 419 1075 c 0,57,58
EndSplineSet
EndChar

StartChar: percent
Encoding: 37 37 9
Width: 1516
GlyphClass: 2
Flags: W
LayerCount: 2
Fore
SplineSet
509 789 m 0,0,1
 380 789 380 789 329 855 c 128,-1,2
 278 921 278 921 278 1034.5 c 128,-1,3
 278 1148 278 1148 324.5 1248.5 c 128,-1,4
 371 1349 371 1349 450 1410.5 c 128,-1,5
 529 1472 529 1472 619 1472 c 0,6,7
 748 1472 748 1472 799 1406 c 128,-1,8
 850 1340 850 1340 850 1226.5 c 128,-1,9
 850 1113 850 1113 803.5 1012.5 c 128,-1,10
 757 912 757 912 678 850.5 c 128,-1,11
 599 789 599 789 509 789 c 0,0,1
1140 -19 m 0,12,13
 1011 -19 1011 -19 960 47 c 128,-1,14
 909 113 909 113 909 226.5 c 128,-1,15
 909 340 909 340 955.5 440.5 c 128,-1,16
 1002 541 1002 541 1081 602.5 c 128,-1,17
 1160 664 1160 664 1250 664 c 0,18,19
 1379 664 1379 664 1430 598 c 128,-1,20
 1481 532 1481 532 1481 418.5 c 128,-1,21
 1481 305 1481 305 1434.5 204.5 c 128,-1,22
 1388 104 1388 104 1309 42.5 c 128,-1,23
 1230 -19 1230 -19 1140 -19 c 0,12,13
1567 1474 m 1,24,-1
 353 0 l 1,25,-1
 214 0 l 1,26,-1
 1427 1474 l 1,27,-1
 1567 1474 l 1,24,-1
1175 43 m 0,28,29
 1212 43 1212 43 1240 74 c 128,-1,30
 1268 105 1268 105 1282 156 c 0,31,32
 1310 253 1310 253 1310 373 c 0,33,34
 1310 611 1310 611 1220 611 c 0,35,36
 1182 611 1182 611 1154 580 c 128,-1,37
 1126 549 1126 549 1112 498 c 0,38,39
 1084 400 1084 400 1084 279 c 0,40,41
 1084 43 1084 43 1175 43 c 0,28,29
544 851 m 0,42,43
 581 851 581 851 609 882 c 128,-1,44
 637 913 637 913 652 964 c 0,45,46
 679 1061 679 1061 679 1181 c 0,47,48
 679 1419 679 1419 589 1419 c 0,49,50
 551 1419 551 1419 523 1388 c 128,-1,51
 495 1357 495 1357 480 1306 c 0,52,53
 453 1208 453 1208 453 1087 c 0,54,55
 453 851 453 851 544 851 c 0,42,43
EndSplineSet
EndChar

StartChar: ampersand
Encoding: 38 38 10
Width: 1673
GlyphClass: 2
Flags: W
LayerCount: 2
Fore
SplineSet
949 859 m 1,0,1
 1113 873 1113 873 1396.5 873 c 128,-1,2
 1680 873 1680 873 1755 872 c 1,3,4
 1753 818 1753 818 1729 781 c 1,5,-1
 1390 781 l 1,6,7
 1323 526 1323 526 1323 341 c 0,8,9
 1323 239 1323 239 1350.5 174.5 c 128,-1,10
 1378 110 1378 110 1415 110 c 0,11,12
 1463 110 1463 110 1534 165 c 128,-1,13
 1605 220 1605 220 1676 300 c 1,14,-1
 1697 285 l 1,15,16
 1652 218 1652 218 1610.5 169 c 128,-1,17
 1569 120 1569 120 1516 75 c 0,18,19
 1406 -17 1406 -17 1265 -17 c 0,20,21
 1222 -17 1222 -17 1170.5 34.5 c 128,-1,22
 1119 86 1119 86 1101 193 c 1,23,24
 1028 101 1028 101 929 42 c 128,-1,25
 830 -17 830 -17 734 -17 c 0,26,27
 543 -17 543 -17 443 92 c 128,-1,28
 343 201 343 201 343 411 c 0,29,30
 343 628 343 628 442 841 c 0,31,32
 489 942 489 942 556.5 1031.5 c 128,-1,33
 624 1121 624 1121 703 1187 c 128,-1,34
 782 1253 782 1253 878 1291 c 128,-1,35
 974 1329 974 1329 1066.5 1329 c 128,-1,36
 1159 1329 1159 1329 1208 1288.5 c 128,-1,37
 1257 1248 1257 1248 1257 1175 c 0,38,39
 1257 1072 1257 1072 1167 994 c 0,40,41
 1089 926 1089 926 950 863 c 1,42,-1
 949 859 l 1,0,1
804 90 m 0,43,44
 865 90 865 90 952 136 c 128,-1,45
 1039 182 1039 182 1096 246 c 1,46,47
 1094 300 1094 300 1094 316 c 0,48,49
 1094 543 1094 543 1179 779 c 1,50,51
 850 779 850 779 628 749 c 1,52,53
 601 653 601 653 601 470 c 128,-1,54
 601 287 601 287 653.5 188.5 c 128,-1,55
 706 90 706 90 804 90 c 0,43,44
991 1224 m 0,56,57
 881 1224 881 1224 782 1099.5 c 128,-1,58
 683 975 683 975 641 801 c 1,59,60
 814 831 814 831 946 924 c 128,-1,61
 1078 1017 1078 1017 1078 1123 c 0,62,63
 1078 1169 1078 1169 1055.5 1196.5 c 128,-1,64
 1033 1224 1033 1224 991 1224 c 0,56,57
EndSplineSet
EndChar

StartChar: quotesingle
Encoding: 39 39 11
Width: 342
GlyphClass: 2
Flags: W
LayerCount: 2
Fore
SplineSet
429 1465 m 1,0,-1
 560 1438 l 1,1,2
 532 1322 532 1322 490.5 1209 c 128,-1,3
 449 1096 449 1096 410 1020 c 1,4,-1
 373 1020 l 1,5,6
 388 1315 388 1315 429 1465 c 1,0,-1
EndSplineSet
EndChar

StartChar: parenleft
Encoding: 40 40 12
Width: 563
GlyphClass: 2
Flags: W
LayerCount: 2
Fore
SplineSet
216 534 m 0,0,1
 216 726 216 726 286.5 928 c 128,-1,2
 357 1130 357 1130 485 1301 c 128,-1,3
 613 1472 613 1472 773 1568 c 1,4,-1
 804 1518 l 1,5,6
 635 1371 635 1371 530 1091 c 128,-1,7
 425 811 425 811 425 504 c 0,8,9
 425 288 425 288 484.5 103 c 128,-1,10
 544 -82 544 -82 663 -186 c 1,11,-1
 631 -237 l 1,12,13
 216 13 216 13 216 534 c 0,0,1
EndSplineSet
EndChar

StartChar: parenright
Encoding: 41 41 13
Width: 481
GlyphClass: 2
Flags: W
LayerCount: 2
Fore
SplineSet
543 797 m 0,0,1
 543 605 543 605 472.5 403 c 128,-1,2
 402 201 402 201 274 30 c 128,-1,3
 146 -141 146 -141 -14 -237 c 1,4,-1
 -45 -187 l 1,5,6
 124 -40 124 -40 229 240 c 128,-1,7
 334 520 334 520 334 827 c 0,8,9
 334 1043 334 1043 274.5 1228 c 128,-1,10
 215 1413 215 1413 96 1517 c 1,11,-1
 128 1568 l 1,12,13
 543 1318 543 1318 543 797 c 0,0,1
EndSplineSet
EndChar

StartChar: asterisk
Encoding: 42 42 14
Width: 895
GlyphClass: 2
Flags: W
LayerCount: 2
Fore
SplineSet
571 1254 m 1,0,1
 707 1359 707 1359 781 1408 c 1,2,3
 814 1361 814 1361 814 1259 c 0,4,5
 814 1240 814 1240 813 1231 c 1,6,-1
 606 1156 l 1,7,8
 605 1152 605 1152 605 1151 c 0,9,10
 693 1094 693 1094 800 1023 c 1,11,12
 774 973 774 973 684 935 c 1,13,-1
 552 1061 l 1,14,-1
 538 877 l 1,15,16
 515 858 515 858 474.5 845.5 c 128,-1,17
 434 833 434 833 394 833 c 1,18,-1
 445 1069 l 1,19,-1
 246 971 l 1,20,-1
 197 1034 l 1,21,-1
 412 1157 l 1,22,-1
 416 1169 l 1,23,-1
 184 1333 l 1,24,25
 202 1360 202 1360 247 1384 c 128,-1,26
 292 1408 292 1408 326 1408 c 1,27,-1
 469 1257 l 1,28,-1
 469 1438 l 1,29,30
 496 1469 496 1469 541 1487 c 128,-1,31
 586 1505 586 1505 620 1505 c 1,32,-1
 571 1254 l 1,0,1
EndSplineSet
EndChar

StartChar: plus
Encoding: 43 43 15
Width: 1065
GlyphClass: 2
Flags: W
LayerCount: 2
Fore
SplineSet
805 673 m 1,0,-1
 1243 673 l 1,1,-1
 1201 549 l 1,2,-1
 813 549 l 1,3,-1
 813 153 l 1,4,-1
 684 109 l 1,5,-1
 684 549 l 1,6,-1
 255 549 l 1,7,-1
 297 673 l 1,8,-1
 676 673 l 1,9,-1
 676 1055 l 1,10,-1
 805 1099 l 1,11,-1
 805 673 l 1,0,-1
EndSplineSet
EndChar

StartChar: comma
Encoding: 44 44 16
Width: 481
GlyphClass: 2
Flags: W
LayerCount: 2
Fore
SplineSet
204.5 173 m 128,-1,1
 240 211 240 211 283 211 c 128,-1,2
 326 211 326 211 363 166.5 c 128,-1,3
 400 122 400 122 400 71 c 0,4,5
 400 -24 400 -24 327.5 -124.5 c 128,-1,6
 255 -225 255 -225 152 -298 c 1,7,-1
 133 -263 l 1,8,9
 265 -150 265 -150 265 -66 c 0,10,11
 265 -45 265 -45 241 -20 c 128,-1,12
 217 5 217 5 193 33.5 c 128,-1,13
 169 62 169 62 169 98.5 c 128,-1,0
 169 135 169 135 204.5 173 c 128,-1,1
EndSplineSet
EndChar

StartChar: hyphen
Encoding: 45 45 17
Width: 635
GlyphClass: 2
Flags: W
LayerCount: 2
Fore
SplineSet
223 533 m 1,0,1
 516 533 516 533 722 560 c 1,2,-1
 662 456 l 1,3,4
 457 431 457 431 168 431 c 1,5,-1
 223 533 l 1,0,1
EndSplineSet
EndChar

StartChar: period
Encoding: 46 46 18
Width: 483
GlyphClass: 2
Flags: W
LayerCount: 2
Fore
SplineSet
188 194.5 m 128,-1,1
 226 239 226 239 274 239 c 128,-1,2
 322 239 322 239 354 201 c 128,-1,3
 386 163 386 163 386 110.5 c 128,-1,4
 386 58 386 58 345 15.5 c 128,-1,5
 304 -27 304 -27 260 -27 c 128,-1,6
 216 -27 216 -27 183 12 c 128,-1,7
 150 51 150 51 150 100.5 c 128,-1,0
 150 150 150 150 188 194.5 c 128,-1,1
EndSplineSet
EndChar

StartChar: slash
Encoding: 47 47 19
Width: 696
GlyphClass: 2
Flags: W
LayerCount: 2
Fore
SplineSet
836 1474 m 1,0,-1
 299 -340 l 1,1,-1
 173 -340 l 1,2,-1
 709 1474 l 1,3,-1
 836 1474 l 1,0,-1
EndSplineSet
EndChar

StartChar: zero
Encoding: 48 48 20
Width: 963
GlyphClass: 2
Flags: W
LayerCount: 2
Fore
SplineSet
826 1079.5 m 128,-1,1
 792 1185 792 1185 710.5 1185 c 128,-1,2
 629 1185 629 1185 570.5 1096 c 128,-1,3
 512 1007 512 1007 483 860.5 c 128,-1,4
 454 714 454 714 454 531 c 0,5,6
 454 332 454 332 490 208 c 0,7,8
 509 145 509 145 541 110.5 c 128,-1,9
 573 76 573 76 616 76 c 0,10,11
 860 76 860 76 860 775 c 0,12,0
 860 974 860 974 826 1079.5 c 128,-1,1
758 1264 m 0,13,14
 847 1264 847 1264 914.5 1229.5 c 128,-1,15
 982 1195 982 1195 1022 1134 c 1,16,17
 1100 1011 1100 1011 1100 822 c 0,18,19
 1100 597 1100 597 1025 403.5 c 128,-1,20
 950 210 950 210 821 95.5 c 128,-1,21
 692 -19 692 -19 541 -19 c 0,22,23
 354 -19 354 -19 276 170 c 0,24,25
 231 279 231 279 231 434 c 0,26,27
 231 657 231 657 301 848 c 128,-1,28
 371 1039 371 1039 492.5 1151.5 c 128,-1,29
 614 1264 614 1264 758 1264 c 0,13,14
EndSplineSet
EndChar

StartChar: one
Encoding: 49 49 21
Width: 963
GlyphClass: 2
Flags: W
LayerCount: 2
Fore
SplineSet
700 109 m 0,0,1
 700 67 700 67 733 61 c 0,2,3
 742 59 742 59 835 47 c 128,-1,4
 928 35 928 35 966 29 c 1,5,-1
 956 -10 l 1,6,7
 829 0 829 0 581.5 0 c 128,-1,8
 334 0 334 0 175 -15 c 1,9,-1
 178 17 l 1,10,11
 291 37 291 37 340 55 c 128,-1,12
 389 73 389 73 410 92 c 0,13,14
 459 135 459 135 472 209 c 0,15,16
 505 390 505 390 549 679 c 128,-1,17
 593 968 593 968 600 1043 c 1,18,-1
 333 964 l 1,19,-1
 320 994 l 1,20,21
 580 1125 580 1125 790 1280 c 1,22,-1
 867 1266 l 1,23,24
 838 1170 838 1170 813 995 c 0,25,26
 700 197 700 197 700 109 c 0,0,1
EndSplineSet
EndChar

StartChar: two
Encoding: 50 50 22
Width: 963
GlyphClass: 2
Flags: W
LayerCount: 2
Fore
SplineSet
927.5 1184 m 128,-1,1
 1009 1104 1009 1104 1009 972 c 0,2,3
 1009 895 1009 895 977.5 814 c 128,-1,4
 946 733 946 733 902 668.5 c 128,-1,5
 858 604 858 604 787 528.5 c 128,-1,6
 716 453 716 453 660.5 403.5 c 128,-1,7
 605 354 605 354 526 285 c 128,-1,8
 447 216 447 216 410 181 c 1,9,-1
 413 169 l 1,10,-1
 799 169 l 2,11,12
 878 169 878 169 918 189 c 128,-1,13
 958 209 958 209 1008 280 c 1,14,-1
 1031 273 l 1,15,16
 959 78 959 78 928 -18 c 1,17,18
 820 0 820 0 708 0 c 2,19,-1
 158 0 l 1,20,-1
 150 39 l 1,21,22
 389 249 389 249 508 384 c 0,23,24
 639 534 639 534 696 643 c 0,25,26
 770 787 770 787 770 911 c 0,27,28
 770 1009 770 1009 719.5 1061.5 c 128,-1,29
 669 1114 669 1114 585 1114 c 128,-1,30
 501 1114 501 1114 444.5 1085.5 c 128,-1,31
 388 1057 388 1057 307 983 c 1,32,-1
 279 1010 l 1,33,34
 327 1072 327 1072 366.5 1113 c 128,-1,35
 406 1154 406 1154 458 1191 c 0,36,37
 559 1264 559 1264 702.5 1264 c 128,-1,0
 846 1264 846 1264 927.5 1184 c 128,-1,1
EndSplineSet
EndChar

StartChar: three
Encoding: 51 51 23
Width: 963
GlyphClass: 2
Flags: W
LayerCount: 2
Fore
SplineSet
448 1209 m 128,-1,1
 539 1263 539 1263 677.5 1263 c 128,-1,2
 816 1263 816 1263 904 1199 c 128,-1,3
 992 1135 992 1135 992 1011 c 0,4,5
 992 894 992 894 896 814 c 0,6,7
 814 745 814 745 692 696 c 1,8,-1
 693 690 l 1,9,10
 833 680 833 680 910.5 607.5 c 128,-1,11
 988 535 988 535 988 419 c 0,12,13
 988 278 988 278 911.5 177 c 128,-1,14
 835 76 835 76 714.5 28.5 c 128,-1,15
 594 -19 594 -19 438.5 -19 c 128,-1,16
 283 -19 283 -19 147 49 c 1,17,18
 152 144 152 144 225 216 c 1,19,20
 272 184 272 184 328 154.5 c 128,-1,21
 384 125 384 125 403 117.5 c 128,-1,22
 422 110 422 110 449 100 c 0,23,24
 499 83 499 83 549 83 c 0,25,26
 661 83 661 83 711.5 152 c 128,-1,27
 762 221 762 221 762 355.5 c 128,-1,28
 762 490 762 490 683 555.5 c 128,-1,29
 604 621 604 621 431 621 c 1,30,-1
 431 645 l 1,31,32
 589 691 589 691 670 763.5 c 128,-1,33
 751 836 751 836 751 953 c 0,34,35
 751 1044 751 1044 695.5 1096 c 128,-1,36
 640 1148 640 1148 562.5 1148 c 128,-1,37
 485 1148 485 1148 432 1123 c 128,-1,38
 379 1098 379 1098 302 1036 c 1,39,-1
 280 1054 l 1,40,0
 357 1155 357 1155 448 1209 c 128,-1,1
EndSplineSet
EndChar

StartChar: four
Encoding: 52 52 24
Width: 963
GlyphClass: 2
Flags: W
LayerCount: 2
Fore
SplineSet
679 299 m 1,0,1
 619 302 619 302 481.5 302 c 128,-1,2
 344 302 344 302 163 291 c 1,3,-1
 154 316 l 1,4,5
 703 961 703 961 788 1170 c 1,6,7
 887 1245 887 1245 1006 1278 c 1,8,-1
 1045 1259 l 1,9,10
 1009 1075 1009 1075 974 812.5 c 128,-1,11
 939 550 939 550 938 539 c 2,12,-1
 919 393 l 1,13,14
 1031 393 1031 393 1138 428 c 1,15,-1
 1148 412 l 1,16,17
 1106 350 1106 350 1051.5 324 c 128,-1,18
 997 298 997 298 905 298 c 1,19,-1
 867 -22 l 1,20,-1
 634 -53 l 1,21,-1
 679 299 l 1,0,1
331 393 m 1,22,-1
 690 393 l 1,23,-1
 798 1000 l 1,24,-1
 790 1001 l 1,25,26
 670 827 670 827 488 597 c 2,27,-1
 402 489 l 2,28,29
 336 405 336 405 330 397 c 1,30,-1
 331 393 l 1,22,-1
EndSplineSet
EndChar

StartChar: five
Encoding: 53 53 25
Width: 963
GlyphClass: 2
Flags: W
LayerCount: 2
Fore
SplineSet
574 1245 m 2,0,-1
 891 1245 l 2,1,2
 929 1245 929 1245 950 1259 c 128,-1,3
 971 1273 971 1273 983 1305 c 1,4,-1
 1010 1304 l 1,5,6
 997 1141 997 1141 925 1057 c 1,7,8
 709 1057 709 1057 485 1079 c 1,9,-1
 480 1075 l 1,10,-1
 433 683 l 1,11,12
 534 729 534 729 644 729 c 0,13,14
 796 729 796 729 883.5 645 c 128,-1,15
 971 561 971 561 971 424 c 0,16,17
 971 216 971 216 832.5 98.5 c 128,-1,18
 694 -19 694 -19 457 -19 c 0,19,20
 258 -19 258 -19 133 44 c 1,21,22
 135 154 135 154 211 216 c 1,23,24
 282 171 282 171 324.5 147 c 128,-1,25
 367 123 367 123 425.5 100 c 128,-1,26
 484 77 484 77 527 77 c 0,27,28
 742 77 742 77 742 372 c 0,29,30
 742 488 742 488 679 557 c 128,-1,31
 616 626 616 626 504 626 c 0,32,33
 431 626 431 626 328 590 c 1,34,-1
 301 612 l 1,35,36
 337 917 337 917 404 1170 c 1,37,38
 467 1245 467 1245 574 1245 c 2,0,-1
EndSplineSet
EndChar

StartChar: six
Encoding: 54 54 26
Width: 963
GlyphClass: 2
Flags: W
LayerCount: 2
Fore
SplineSet
971 1264 m 0,0,1
 1043 1264 1043 1264 1106 1242 c 1,2,3
 1100 1204 1100 1204 1085 1184 c 1,4,5
 1029 1192 1029 1192 985 1192 c 0,6,7
 836 1192 836 1192 719 1098.5 c 128,-1,8
 602 1005 602 1005 539 842.5 c 128,-1,9
 476 680 476 680 476 488 c 128,-1,10
 476 296 476 296 532.5 190 c 128,-1,11
 589 84 589 84 691 84 c 0,12,13
 776 84 776 84 823.5 162.5 c 128,-1,14
 871 241 871 241 871 361.5 c 128,-1,15
 871 482 871 482 817 553 c 128,-1,16
 763 624 763 624 671 624 c 0,17,18
 599 624 599 624 528 598 c 1,19,-1
 516 626 l 1,20,21
 633 740 633 740 775 740 c 128,-1,22
 917 740 917 740 994 656 c 128,-1,23
 1071 572 1071 572 1071 439 c 128,-1,24
 1071 306 1071 306 1016 204.5 c 128,-1,25
 961 103 961 103 858 42 c 128,-1,26
 755 -19 755 -19 624 -19 c 0,27,28
 451 -19 451 -19 349.5 97.5 c 128,-1,29
 248 214 248 214 248 398 c 128,-1,30
 248 582 248 582 305.5 744.5 c 128,-1,31
 363 907 363 907 460.5 1020 c 128,-1,32
 558 1133 558 1133 691 1198.5 c 128,-1,33
 824 1264 824 1264 971 1264 c 0,0,1
EndSplineSet
EndChar

StartChar: seven
Encoding: 55 55 27
Width: 963
GlyphClass: 2
Flags: W
LayerCount: 2
Fore
SplineSet
395 1263 m 1,0,1
 587 1245 587 1245 817.5 1245 c 128,-1,2
 1048 1245 1048 1245 1175 1254 c 1,3,-1
 1190 1230 l 1,4,5
 951 912 951 912 823 621 c 128,-1,6
 695 330 695 330 627 14 c 1,7,8
 479 -7 479 -7 392 -59 c 1,9,-1
 369 -37 l 1,10,11
 539 491 539 491 992 1065 c 1,12,-1
 989 1070 l 1,13,14
 814 1064 814 1064 472 1064 c 0,15,16
 434 1064 434 1064 406 1041.5 c 128,-1,17
 378 1019 378 1019 347 969 c 1,18,-1
 317 975 l 1,19,-1
 395 1263 l 1,0,1
EndSplineSet
EndChar

StartChar: eight
Encoding: 56 56 28
Width: 963
GlyphClass: 2
Flags: W
LayerCount: 2
Fore
SplineSet
320 951 m 0,0,1
 320 1098 320 1098 439.5 1193 c 128,-1,2
 559 1288 559 1288 732 1288 c 0,3,4
 863 1288 863 1288 940.5 1232 c 128,-1,5
 1018 1176 1018 1176 1018 1064.5 c 128,-1,6
 1018 953 1018 953 953 877 c 128,-1,7
 888 801 888 801 761 739 c 1,8,9
 890 674 890 674 955.5 592.5 c 128,-1,10
 1021 511 1021 511 1021 389 c 128,-1,11
 1021 267 1021 267 954.5 172.5 c 128,-1,12
 888 78 888 78 782 29 c 128,-1,13
 676 -20 676 -20 555 -20 c 0,14,15
 396 -20 396 -20 291 58 c 128,-1,16
 186 136 186 136 186 270 c 0,17,18
 186 545 186 545 519 654 c 1,19,20
 456 692 456 692 415.5 729 c 128,-1,21
 375 766 375 766 347.5 823 c 128,-1,22
 320 880 320 880 320 951 c 0,0,1
622 63 m 0,23,24
 825 63 825 63 825 309 c 0,25,26
 825 403 825 403 768 469.5 c 128,-1,27
 711 536 711 536 583 609 c 1,28,29
 404 539 404 539 404 325 c 0,30,31
 404 208 404 208 463 135.5 c 128,-1,32
 522 63 522 63 622 63 c 0,23,24
783 887.5 m 128,-1,34
 808 943 808 943 808 1029 c 128,-1,35
 808 1115 808 1115 767 1162.5 c 128,-1,36
 726 1210 726 1210 654 1210 c 128,-1,37
 582 1210 582 1210 541.5 1160.5 c 128,-1,38
 501 1111 501 1111 501 1030 c 128,-1,39
 501 949 501 949 552.5 893.5 c 128,-1,40
 604 838 604 838 705 780 c 1,41,33
 758 832 758 832 783 887.5 c 128,-1,34
EndSplineSet
EndChar

StartChar: nine
Encoding: 57 57 29
Width: 963
GlyphClass: 2
Flags: W
LayerCount: 2
Fore
SplineSet
629 1264 m 0,0,1
 804 1264 804 1264 904.5 1151.5 c 128,-1,2
 1005 1039 1005 1039 1005 854 c 128,-1,3
 1005 669 1005 669 950 509 c 128,-1,4
 895 349 895 349 800 233 c 128,-1,5
 705 117 705 117 570 49 c 128,-1,6
 435 -19 435 -19 282 -19 c 0,7,8
 210 -19 210 -19 147 3 c 1,9,10
 153 41 153 41 168 61 c 1,11,12
 224 53 224 53 268 53 c 0,13,14
 417 53 417 53 534 146.5 c 128,-1,15
 651 240 651 240 714 402.5 c 128,-1,16
 777 565 777 565 777 757 c 128,-1,17
 777 949 777 949 720.5 1055 c 128,-1,18
 664 1161 664 1161 562 1161 c 0,19,20
 477 1161 477 1161 429.5 1082.5 c 128,-1,21
 382 1004 382 1004 382 883.5 c 128,-1,22
 382 763 382 763 436 692 c 128,-1,23
 490 621 490 621 582 621 c 0,24,25
 654 621 654 621 725 647 c 1,26,-1
 737 619 l 1,27,28
 620 505 620 505 480.5 505 c 128,-1,29
 341 505 341 505 261.5 589.5 c 128,-1,30
 182 674 182 674 182 806.5 c 128,-1,31
 182 939 182 939 237 1040.5 c 128,-1,32
 292 1142 292 1142 395 1203 c 128,-1,33
 498 1264 498 1264 629 1264 c 0,0,1
EndSplineSet
EndChar

StartChar: colon
Encoding: 58 58 30
Width: 565
GlyphClass: 2
Flags: W
LayerCount: 2
Fore
SplineSet
236 194.5 m 128,-1,1
 274 239 274 239 322 239 c 128,-1,2
 370 239 370 239 402 201 c 128,-1,3
 434 163 434 163 434 110.5 c 128,-1,4
 434 58 434 58 393 15.5 c 128,-1,5
 352 -27 352 -27 308 -27 c 128,-1,6
 264 -27 264 -27 231 12 c 128,-1,7
 198 51 198 51 198 100.5 c 128,-1,0
 198 150 198 150 236 194.5 c 128,-1,1
316 824.5 m 128,-1,9
 354 869 354 869 402 869 c 128,-1,10
 450 869 450 869 482 831 c 128,-1,11
 514 793 514 793 514 740.5 c 128,-1,12
 514 688 514 688 473 645.5 c 128,-1,13
 432 603 432 603 388 603 c 128,-1,14
 344 603 344 603 311 642 c 128,-1,15
 278 681 278 681 278 730.5 c 128,-1,8
 278 780 278 780 316 824.5 c 128,-1,9
EndSplineSet
EndChar

StartChar: semicolon
Encoding: 59 59 31
Width: 522
GlyphClass: 2
Flags: W
LayerCount: 2
Fore
SplineSet
128.5 173 m 128,-1,1
 164 211 164 211 207 211 c 128,-1,2
 250 211 250 211 287 166.5 c 128,-1,3
 324 122 324 122 324 71 c 0,4,5
 324 -24 324 -24 251.5 -124.5 c 128,-1,6
 179 -225 179 -225 76 -298 c 1,7,-1
 57 -263 l 1,8,9
 189 -150 189 -150 189 -66 c 0,10,11
 189 -45 189 -45 165 -20 c 128,-1,12
 141 5 141 5 117 33.5 c 128,-1,13
 93 62 93 62 93 98.5 c 128,-1,0
 93 135 93 135 128.5 173 c 128,-1,1
268 824.5 m 128,-1,15
 306 869 306 869 354 869 c 128,-1,16
 402 869 402 869 434 831 c 128,-1,17
 466 793 466 793 466 740.5 c 128,-1,18
 466 688 466 688 425 645.5 c 128,-1,19
 384 603 384 603 340 603 c 128,-1,20
 296 603 296 603 263 642 c 128,-1,21
 230 681 230 681 230 730.5 c 128,-1,14
 230 780 230 780 268 824.5 c 128,-1,15
EndSplineSet
EndChar

StartChar: less
Encoding: 60 60 32
Width: 1065
GlyphClass: 2
Flags: W
LayerCount: 2
Fore
SplineSet
365 580 m 1,0,-1
 1114 231 l 1,1,-1
 1114 123 l 1,2,-1
 221 532 l 1,3,-1
 221 629 l 1,4,-1
 1114 1036 l 1,5,-1
 1114 930 l 1,6,-1
 365 580 l 1,0,-1
EndSplineSet
EndChar

StartChar: equal
Encoding: 61 61 33
Width: 1065
GlyphClass: 2
Flags: W
LayerCount: 2
Fore
SplineSet
218 313 m 1,0,-1
 1164 313 l 1,1,-1
 1104 190 l 1,2,-1
 159 190 l 1,3,-1
 218 313 l 1,0,-1
248 673 m 1,4,-1
 1194 673 l 1,5,-1
 1134 550 l 1,6,-1
 189 550 l 1,7,-1
 248 673 l 1,4,-1
EndSplineSet
EndChar

StartChar: greater
Encoding: 62 62 34
Width: 1065
GlyphClass: 2
Flags: W
LayerCount: 2
Fore
SplineSet
260 123 m 1,0,-1
 260 231 l 1,1,-1
 1009 580 l 1,2,-1
 260 930 l 1,3,-1
 260 1036 l 1,4,-1
 1153 629 l 1,5,-1
 1153 532 l 1,6,-1
 260 123 l 1,0,-1
EndSplineSet
EndChar

StartChar: question
Encoding: 63 63 35
Width: 831
GlyphClass: 2
Flags: W
LayerCount: 2
Fore
SplineSet
413 478 m 0,0,1
 413 570 413 570 486 662 c 1,2,3
 518 704 518 704 557 746.5 c 128,-1,4
 596 789 596 789 635 834.5 c 128,-1,5
 674 880 674 880 706 928 c 1,6,7
 779 1033 779 1033 779 1158 c 0,8,9
 779 1255 779 1255 737.5 1312.5 c 128,-1,10
 696 1370 696 1370 616 1370 c 0,11,12
 526 1370 526 1370 449 1300 c 0,13,14
 414 1267 414 1267 369 1216 c 1,15,-1
 344 1231 l 1,16,17
 384 1306 384 1306 432.5 1363 c 128,-1,18
 481 1420 481 1420 555 1461.5 c 128,-1,19
 629 1503 629 1503 712 1503 c 0,20,21
 856 1503 856 1503 934 1424.5 c 128,-1,22
 1012 1346 1012 1346 1012 1208 c 0,23,24
 1012 1128 1012 1128 983 1056 c 128,-1,25
 954 984 954 984 907 930 c 128,-1,26
 860 876 860 876 804 827.5 c 128,-1,27
 748 779 748 779 691.5 736 c 128,-1,28
 635 693 635 693 588 652 c 0,29,30
 483 562 483 562 483 470 c 0,31,32
 483 424 483 424 519 378 c 1,33,-1
 469 359 l 1,34,35
 413 404 413 404 413 478 c 0,0,1
537 5.5 m 128,-1,37
 499 -39 499 -39 451 -39 c 128,-1,38
 403 -39 403 -39 371 -1 c 128,-1,39
 339 37 339 37 339 89.5 c 128,-1,40
 339 142 339 142 380 184.5 c 128,-1,41
 421 227 421 227 465 227 c 128,-1,42
 509 227 509 227 542 188 c 128,-1,43
 575 149 575 149 575 99.5 c 128,-1,36
 575 50 575 50 537 5.5 c 128,-1,37
EndSplineSet
EndChar

StartChar: at
Encoding: 64 64 36
Width: 1526
GlyphClass: 2
Flags: W
LayerCount: 2
Fore
SplineSet
979 1222 m 0,0,1
 1102 1222 1102 1222 1204.5 1179 c 128,-1,2
 1307 1136 1307 1136 1372 1066.5 c 128,-1,3
 1437 997 1437 997 1472.5 911.5 c 128,-1,4
 1508 826 1508 826 1508 726 c 128,-1,5
 1508 626 1508 626 1477.5 529.5 c 128,-1,6
 1447 433 1447 433 1388 358 c 128,-1,7
 1329 283 1329 283 1234 240 c 128,-1,8
 1139 197 1139 197 1020 197 c 0,9,10
 927 197 927 197 903 224 c 0,11,12
 892 237 892 237 892 254.5 c 128,-1,13
 892 272 892 272 907.5 333 c 128,-1,14
 923 394 923 394 924 409 c 1,15,-1
 920 410 l 1,16,17
 795 200 795 200 644 200 c 0,18,19
 582 200 582 200 547.5 264 c 128,-1,20
 513 328 513 328 513 431 c 0,21,22
 513 568 513 568 571 689.5 c 128,-1,23
 629 811 629 811 734.5 886.5 c 128,-1,24
 840 962 840 962 968 962 c 0,25,26
 1047 962 1047 962 1145 952 c 1,27,28
 1144 839 1144 839 1117 635 c 128,-1,29
 1090 431 1090 431 1055 253 c 1,30,31
 1061 245 1061 245 1071 245 c 0,32,33
 1218 245 1218 245 1312 371 c 128,-1,34
 1406 497 1406 497 1406 682 c 0,35,36
 1406 904 1406 904 1281 1033 c 128,-1,37
 1156 1162 1156 1162 916 1162 c 0,38,39
 774 1162 774 1162 661.5 1110.5 c 128,-1,40
 549 1059 549 1059 479 970 c 0,41,42
 336 787 336 787 336 514 c 0,43,44
 336 149 336 149 576 6 c 0,45,46
 699 -67 699 -67 880 -67 c 0,47,48
 1022 -67 1022 -67 1155 -16.5 c 128,-1,49
 1288 34 1288 34 1386 131 c 1,50,-1
 1401 111 l 1,51,52
 1189 -123 1189 -123 838 -123 c 0,53,54
 546 -123 546 -123 385 25.5 c 128,-1,55
 224 174 224 174 224 449 c 0,56,57
 224 607 224 607 274.5 746.5 c 128,-1,58
 325 886 325 886 418.5 992 c 128,-1,59
 512 1098 512 1098 657 1160 c 128,-1,60
 802 1222 802 1222 979 1222 c 0,0,1
880 869 m 0,61,62
 814 869 814 869 769 806 c 0,63,64
 688 691 688 691 688 445 c 0,65,66
 688 333 688 333 748 333 c 0,67,68
 819 333 819 333 877.5 409 c 128,-1,69
 936 485 936 485 944 579 c 2,70,-1
 967 854 l 1,71,72
 929 869 929 869 880 869 c 0,61,62
EndSplineSet
EndChar

StartChar: A
Encoding: 65 65 37
Width: 1331
GlyphClass: 2
Flags: W
LayerCount: 2
Fore
SplineSet
803 1327 m 1,0,1
 803 1327 803 1327 1077 1318 c 1,2,3
 1114 1318 1114 1318 1171 1321 c 1,4,-1
 1169 1289 l 1,5,6
 1105 1205 1105 1205 1105 932 c 0,7,8
 1105 596 1105 596 1131 359.5 c 128,-1,9
 1157 123 1157 123 1208 123 c 0,10,11
 1279 123 1279 123 1369 137 c 1,12,-1
 1383 103 l 1,13,14
 1332 62 1332 62 1263.5 27.5 c 128,-1,15
 1195 -7 1195 -7 1130 -20 c 1,16,17
 1033 -20 1033 -20 984 46 c 1,18,19
 933 112 933 112 913 214 c 0,20,21
 895 310 895 310 887 448 c 1,22,-1
 635 448 l 1,23,24
 487 144 487 144 409 34 c 0,25,26
 337 -66 337 -66 274 -104 c 0,27,28
 196 -151 196 -151 110 -162 c 0,29,30
 65 -167 65 -167 18.5 -167 c 128,-1,31
 -28 -167 -28 -167 -105 -157 c 1,32,33
 -105 -114 -105 -114 -85.5 -72 c 128,-1,34
 -66 -30 -66 -30 -34 -14 c 1,35,36
 84 -57 84 -57 124 -57 c 0,37,38
 255 -57 255 -57 360 151 c 0,39,40
 511 449 511 449 602.5 638.5 c 128,-1,41
 694 828 694 828 737 914.5 c 128,-1,42
 780 1001 780 1001 801 1041 c 128,-1,43
 822 1081 822 1081 845 1117.5 c 128,-1,44
 868 1154 868 1154 884 1170.5 c 128,-1,45
 900 1187 900 1187 922 1202 c 1,46,-1
 922 1206 l 1,47,48
 823 1210 823 1210 660 1210 c 0,49,50
 520 1210 520 1210 454.5 1121.5 c 128,-1,51
 389 1033 389 1033 389 824 c 2,52,-1
 389 794 l 1,53,54
 370 765 370 765 316 742 c 128,-1,55
 262 719 262 719 199 711 c 1,56,57
 197 735 197 735 197 762 c 0,58,59
 197 1015 197 1015 359 1171 c 128,-1,60
 521 1327 521 1327 803 1327 c 1,0,1
882 531 m 1,61,62
 878 614 878 614 878 742.5 c 128,-1,63
 878 871 878 871 896 1007 c 1,64,-1
 890 1007 l 1,65,66
 759 749 759 749 664 531 c 1,67,-1
 882 531 l 1,61,62
EndSplineSet
EndChar

StartChar: B
Encoding: 66 66 38
Width: 1290
GlyphClass: 2
Flags: W
LayerCount: 2
Fore
SplineSet
519 1252.5 m 128,-1,1
 677 1321 677 1321 873 1321 c 128,-1,2
 1069 1321 1069 1321 1184 1239.5 c 128,-1,3
 1299 1158 1299 1158 1299 1052 c 128,-1,4
 1299 946 1299 946 1248 878.5 c 128,-1,5
 1197 811 1197 811 1079 743 c 1,6,-1
 1078 740 l 1,7,8
 1353 708 1353 708 1353 494 c 0,9,10
 1353 379 1353 379 1301.5 284 c 128,-1,11
 1250 189 1250 189 1162.5 128 c 128,-1,12
 1075 67 1075 67 961.5 33.5 c 128,-1,13
 848 0 848 0 722 0 c 2,14,-1
 305 0 l 1,15,-1
 296 35 l 1,16,17
 393 56 393 56 427 102 c 128,-1,18
 461 148 461 148 471 232.5 c 128,-1,19
 481 317 481 317 539 940 c 0,20,21
 549 1050 549 1050 604.5 1094.5 c 128,-1,22
 660 1139 660 1139 783 1139 c 1,23,24
 744 715 744 715 688 273 c 0,25,26
 676 176 676 176 604 122 c 1,27,-1
 605 118 l 1,28,-1
 824 118 l 2,29,30
 982 118 982 118 1059.5 197 c 128,-1,31
 1137 276 1137 276 1137 419 c 0,32,33
 1137 536 1137 536 1068.5 607 c 128,-1,34
 1000 678 1000 678 865 678 c 2,35,-1
 830 678 l 1,36,37
 830 749 830 749 852 782 c 1,38,39
 924 771 924 771 954 771 c 0,40,41
 1017 771 1017 771 1054 834 c 128,-1,42
 1091 897 1091 897 1091 985 c 0,43,44
 1091 1096 1091 1096 1005 1162 c 128,-1,45
 919 1228 919 1228 775 1228 c 0,46,47
 570 1228 570 1228 459 1119.5 c 128,-1,48
 348 1011 348 1011 332 781 c 1,49,50
 271 710 271 710 137 710 c 1,51,52
 161 907 161 907 261 1045.5 c 128,-1,0
 361 1184 361 1184 519 1252.5 c 128,-1,1
EndSplineSet
EndChar

StartChar: C
Encoding: 67 67 39
Width: 1106
GlyphClass: 2
Flags: W
LayerCount: 2
Fore
SplineSet
870 1332 m 0,0,1
 1014 1332 1014 1332 1093 1259 c 128,-1,2
 1172 1186 1172 1186 1172 1063 c 0,3,4
 1172 910 1172 910 1079 811 c 128,-1,5
 986 712 986 712 852 712 c 0,6,7
 779 712 779 712 742.5 761 c 128,-1,8
 706 810 706 810 705 888 c 1,9,-1
 732 892 l 1,10,11
 742 836 742 836 767 808.5 c 128,-1,12
 792 781 792 781 843 781 c 0,13,14
 913 781 913 781 952.5 840.5 c 128,-1,15
 992 900 992 900 992 1000.5 c 128,-1,16
 992 1101 992 1101 943.5 1166.5 c 128,-1,17
 895 1232 895 1232 799.5 1232 c 128,-1,18
 704 1232 704 1232 623 1131 c 128,-1,19
 542 1030 542 1030 496 847.5 c 128,-1,20
 450 665 450 665 450 447.5 c 128,-1,21
 450 230 450 230 500.5 116.5 c 128,-1,22
 551 3 551 3 650 3 c 0,23,24
 766 3 766 3 850 75.5 c 128,-1,25
 934 148 934 148 997 284 c 1,26,-1
 1036 263 l 1,27,28
 872 -134 872 -134 574 -134 c 0,29,30
 448 -134 448 -134 361 -66 c 0,31,32
 197 61 197 61 197 352 c 0,33,34
 197 512 197 512 235.5 663.5 c 128,-1,35
 274 815 274 815 341 934 c 128,-1,36
 408 1053 408 1053 493 1144 c 128,-1,37
 578 1235 578 1235 676 1283.5 c 128,-1,38
 774 1332 774 1332 870 1332 c 0,0,1
EndSplineSet
EndChar

StartChar: D
Encoding: 68 68 40
Width: 1495
GlyphClass: 2
Flags: W
LayerCount: 2
Fore
SplineSet
946 1350 m 0,0,1
 1120 1350 1120 1350 1259.5 1284 c 128,-1,2
 1399 1218 1399 1218 1482 1091.5 c 128,-1,3
 1565 965 1565 965 1565 799 c 0,4,5
 1565 605 1565 605 1504.5 452.5 c 128,-1,6
 1444 300 1444 300 1334 202 c 0,7,8
 1107 0 1107 0 733 0 c 2,9,-1
 354 0 l 1,10,-1
 347 42 l 1,11,12
 437 58 437 58 468.5 97.5 c 128,-1,13
 500 137 500 137 515 254 c 128,-1,14
 530 371 530 371 579 927 c 0,15,16
 587 1021 587 1021 641 1072 c 128,-1,17
 695 1123 695 1123 819 1123 c 1,18,19
 791 783 791 783 769 587 c 2,20,-1
 745 375 l 2,21,22
 734 282 734 282 711.5 217 c 128,-1,23
 689 152 689 152 641 118 c 1,24,-1
 872 118 l 2,25,26
 1112 118 1112 118 1229.5 270 c 128,-1,27
 1347 422 1347 422 1347 689 c 128,-1,28
 1347 956 1347 956 1202.5 1106.5 c 128,-1,29
 1058 1257 1058 1257 819 1257 c 0,30,31
 610 1257 610 1257 474 1134 c 1,32,33
 405 1073 405 1073 366.5 969.5 c 128,-1,34
 328 866 328 866 328 730 c 1,35,36
 275 670 275 670 144 635 c 1,37,38
 141 674 141 674 141 690 c 0,39,40
 141 889 141 889 244 1039.5 c 128,-1,41
 347 1190 347 1190 529 1270 c 128,-1,42
 711 1350 711 1350 946 1350 c 0,0,1
EndSplineSet
EndChar

StartChar: E
Encoding: 69 69 41
Width: 1290
GlyphClass: 2
Flags: W
LayerCount: 2
Fore
SplineSet
1072 1316 m 1,0,-1
 1355 1322 l 2,1,2
 1388 1322 1388 1322 1399.5 1309.5 c 128,-1,3
 1411 1297 1411 1297 1411 1277.5 c 128,-1,4
 1411 1258 1411 1258 1339 1027 c 1,5,-1
 1293 1031 l 1,6,7
 1301 1151 1301 1151 1301 1158 c 0,8,9
 1301 1195 1301 1195 1255 1195 c 2,10,-1
 907 1195 l 1,11,12
 890 1165 890 1165 884 1105 c 1,13,-1
 842 763 l 1,14,15
 922 761 922 761 1071 761 c 0,16,17
 1163 761 1163 761 1249 791 c 1,18,-1
 1261 774 l 1,19,20
 1222 714 1222 714 1183 688 c 128,-1,21
 1144 662 1144 662 1076 662 c 2,22,-1
 830 662 l 1,23,-1
 782 305 l 2,24,25
 773 235 773 235 751 192.5 c 128,-1,26
 729 150 729 150 681 118 c 1,27,-1
 977 118 l 2,28,29
 1081 118 1081 118 1152.5 145.5 c 128,-1,30
 1224 173 1224 173 1338 247 c 1,31,-1
 1354 223 l 1,32,-1
 1248 98 l 1,33,34
 1204 43 1204 43 1189 30.5 c 128,-1,35
 1174 18 1174 18 1163.5 10.5 c 128,-1,36
 1153 3 1153 3 1144 0 c 0,37,38
 1124 -9 1124 -9 1109 -9 c 128,-1,39
 1094 -9 1094 -9 1022.5 -4.5 c 128,-1,40
 951 0 951 0 903 0 c 2,41,-1
 352 0 l 1,42,-1
 347 37 l 1,43,44
 450 63 450 63 492.5 127.5 c 128,-1,45
 535 192 535 192 551 315 c 2,46,-1
 634 953 l 2,47,48
 645 1039 645 1039 669.5 1095 c 128,-1,49
 694 1151 694 1151 743 1193 c 1,50,-1
 743 1197 l 1,51,-1
 636 1197 l 2,52,53
 482 1197 482 1197 400.5 1112.5 c 128,-1,54
 319 1028 319 1028 319 839 c 0,55,56
 319 805 319 805 320 788 c 1,57,58
 280 726 280 726 135 707 c 1,59,-1
 135 756 l 2,60,61
 135 866 135 866 180 967.5 c 128,-1,62
 225 1069 225 1069 304 1146 c 128,-1,63
 383 1223 383 1223 499.5 1269.5 c 128,-1,64
 616 1316 616 1316 751 1316 c 2,65,-1
 1072 1316 l 1,0,-1
EndSplineSet
EndChar

StartChar: F
Encoding: 70 70 42
Width: 1208
GlyphClass: 2
Flags: W
LayerCount: 2
Fore
SplineSet
1166 1316 m 1,0,-1
 1449 1322 l 2,1,2
 1482 1322 1482 1322 1493.5 1309.5 c 128,-1,3
 1505 1297 1505 1297 1505 1277.5 c 128,-1,4
 1505 1258 1505 1258 1433 1027 c 1,5,-1
 1387 1031 l 1,6,7
 1395 1151 1395 1151 1395 1158 c 0,8,9
 1395 1195 1395 1195 1349 1195 c 2,10,-1
 992 1195 l 1,11,12
 975 1165 975 1165 969 1105 c 2,13,-1
 934 752 l 1,14,15
 1014 750 1014 750 1114.5 750 c 128,-1,16
 1215 750 1215 750 1301 780 c 1,17,-1
 1313 763 l 1,18,19
 1274 703 1274 703 1235 677 c 128,-1,20
 1196 651 1196 651 1128 651 c 2,21,-1
 922 651 l 1,22,-1
 882 305 l 2,23,24
 872 214 872 214 853 167 c 128,-1,25
 834 120 834 120 782 86 c 1,26,-1
 782 82 l 1,27,-1
 866 82 l 2,28,29
 983 82 983 82 1041 150 c 1,30,-1
 1056 143 l 1,31,32
 1033 58 1033 58 989.5 29 c 128,-1,33
 946 0 946 0 851 0 c 2,34,-1
 446 0 l 1,35,-1
 441 37 l 1,36,37
 546 64 546 64 586.5 119 c 128,-1,38
 627 174 627 174 643 293 c 2,39,-1
 728 953 l 2,40,41
 739 1039 739 1039 763.5 1095 c 128,-1,42
 788 1151 788 1151 837 1193 c 1,43,-1
 837 1197 l 1,44,-1
 730 1197 l 2,45,46
 576 1197 576 1197 494.5 1112.5 c 128,-1,47
 413 1028 413 1028 413 839 c 0,48,49
 413 805 413 805 414 788 c 1,50,51
 374 726 374 726 229 707 c 1,52,-1
 229 756 l 2,53,54
 229 866 229 866 274 967.5 c 128,-1,55
 319 1069 319 1069 398 1146 c 128,-1,56
 477 1223 477 1223 593.5 1269.5 c 128,-1,57
 710 1316 710 1316 845 1316 c 2,58,-1
 1166 1316 l 1,0,-1
EndSplineSet
EndChar

StartChar: G
Encoding: 71 71 43
Width: 1331
GlyphClass: 2
Flags: W
LayerCount: 2
Fore
SplineSet
975 1331 m 0,0,1
 1144 1331 1144 1331 1313 1291 c 1,2,3
 1305 1141 1305 1141 1272 981 c 1,4,-1
 1228 981 l 1,5,6
 1217 1098 1217 1098 1146.5 1164.5 c 128,-1,7
 1076 1231 1076 1231 948 1231 c 0,8,9
 854 1231 854 1231 772 1168 c 128,-1,10
 690 1105 690 1105 634.5 1002 c 128,-1,11
 579 899 579 899 547 765 c 128,-1,12
 515 631 515 631 515 490 c 0,13,14
 515 302 515 302 579.5 195 c 128,-1,15
 644 88 644 88 759 88 c 128,-1,16
 874 88 874 88 954 163 c 128,-1,17
 1034 238 1034 238 1042 340 c 2,18,-1
 1059 544 l 1,19,20
 941 544 941 544 887 506 c 1,21,-1
 868 523 l 1,22,23
 897 596 897 596 941.5 627.5 c 128,-1,24
 986 659 986 659 1064 659 c 2,25,-1
 1380 659 l 1,26,-1
 1377 628 l 1,27,28
 1309 611 1309 611 1278 574 c 128,-1,29
 1247 537 1247 537 1241 473 c 2,30,-1
 1207 146 l 2,31,32
 1180 -110 1180 -110 1051.5 -250.5 c 128,-1,33
 923 -391 923 -391 726 -391 c 0,34,35
 683 -391 683 -391 612 -376 c 1,36,37
 626 -284 626 -284 679 -248 c 1,38,39
 793 -276 793 -276 839 -276 c 0,40,41
 919 -276 919 -276 957.5 -232.5 c 128,-1,42
 996 -189 996 -189 1004 -88 c 2,43,-1
 1022 131 l 1,44,45
 948 60 948 60 861 20 c 128,-1,46
 774 -20 774 -20 650 -20 c 0,47,48
 478 -20 478 -20 368 97.5 c 128,-1,49
 258 215 258 215 258 420 c 0,50,51
 258 587 258 587 318.5 753.5 c 128,-1,52
 379 920 379 920 477 1046.5 c 128,-1,53
 575 1173 575 1173 707 1252 c 128,-1,54
 839 1331 839 1331 975 1331 c 0,0,1
EndSplineSet
EndChar

StartChar: H
Encoding: 72 72 44
Width: 1454
GlyphClass: 2
Flags: W
LayerCount: 2
Fore
SplineSet
531 1314 m 2,0,-1
 864 1314 l 1,1,-1
 862 1285 l 1,2,3
 823 1253 823 1253 804.5 1196.5 c 128,-1,4
 786 1140 786 1140 776 1041 c 2,5,-1
 748 742 l 1,6,-1
 1197 742 l 1,7,-1
 1216 975 l 2,8,9
 1224 1072 1224 1072 1244.5 1126 c 128,-1,10
 1265 1180 1265 1180 1304 1209 c 1,11,-1
 1305 1216 l 1,12,-1
 1172 1216 l 2,13,14
 1088 1216 1088 1216 1042 1185 c 1,15,-1
 1024 1196 l 1,16,17
 1052 1259 1052 1259 1096 1286.5 c 128,-1,18
 1140 1314 1140 1314 1207 1314 c 2,19,-1
 1542 1314 l 1,20,-1
 1540 1287 l 1,21,22
 1503 1252 1503 1252 1484.5 1207 c 128,-1,23
 1466 1162 1466 1162 1457 1074 c 2,24,-1
 1377 277 l 2,25,26
 1369 200 1369 200 1349.5 155 c 128,-1,27
 1330 110 1330 110 1287 87 c 1,28,-1
 1287 82 l 1,29,-1
 1384 82 l 2,30,31
 1436 82 1436 82 1464 96 c 128,-1,32
 1492 110 1492 110 1532 153 c 1,33,-1
 1547 146 l 1,34,35
 1538 110 1538 110 1529 88.5 c 128,-1,36
 1520 67 1520 67 1501 44 c 0,37,38
 1465 0 1465 0 1367 0 c 2,39,-1
 967 0 l 1,40,-1
 970 33 l 1,41,42
 1075 53 1075 53 1115 114.5 c 128,-1,43
 1155 176 1155 176 1164 299 c 2,44,-1
 1191 660 l 1,45,-1
 741 660 l 1,46,-1
 714 384 l 2,47,48
 694 181 694 181 596 81 c 128,-1,49
 498 -19 498 -19 317 -19 c 2,50,-1
 126 -19 l 1,51,52
 126 23 126 23 137.5 69 c 128,-1,53
 149 115 149 115 172 140 c 1,54,55
 189 135 189 135 243 116 c 0,56,57
 355 75 355 75 398.5 75 c 128,-1,58
 442 75 442 75 458 107.5 c 128,-1,59
 474 140 474 140 481 217 c 2,60,-1
 535 810 l 2,61,62
 551 984 551 984 575 1067 c 128,-1,63
 599 1150 599 1150 658 1206 c 1,64,-1
 659 1216 l 1,65,-1
 434 1216 l 2,66,67
 296 1216 296 1216 247 1156 c 128,-1,68
 198 1096 198 1096 198 929 c 2,69,-1
 198 799 l 1,70,71
 176 775 176 775 128 759.5 c 128,-1,72
 80 744 80 744 27 744 c 1,73,74
 23 772 23 772 23 807 c 0,75,76
 23 953 23 953 93.5 1070.5 c 128,-1,77
 164 1188 164 1188 279.5 1251 c 128,-1,78
 395 1314 395 1314 531 1314 c 2,0,-1
EndSplineSet
EndChar

StartChar: I
Encoding: 73 73 45
Width: 840
GlyphClass: 2
Flags: W
LayerCount: 2
Fore
SplineSet
645 1314 m 2,0,-1
 978 1314 l 1,1,-1
 976 1285 l 1,2,3
 937 1253 937 1253 918.5 1196.5 c 128,-1,4
 900 1140 900 1140 890 1041 c 2,5,-1
 828 384 l 2,6,7
 809 181 809 181 710.5 81 c 128,-1,8
 612 -19 612 -19 431 -19 c 2,9,-1
 240 -19 l 1,10,11
 240 23 240 23 251.5 69 c 128,-1,12
 263 115 263 115 286 140 c 1,13,14
 303 135 303 135 357 116 c 0,15,16
 469 75 469 75 512.5 75 c 128,-1,17
 556 75 556 75 572 107.5 c 128,-1,18
 588 140 588 140 595 217 c 2,19,-1
 649 810 l 2,20,21
 665 984 665 984 689 1067 c 128,-1,22
 713 1150 713 1150 772 1206 c 1,23,-1
 773 1216 l 1,24,-1
 548 1216 l 2,25,26
 410 1216 410 1216 361 1156 c 128,-1,27
 312 1096 312 1096 312 929 c 2,28,-1
 312 799 l 1,29,30
 290 775 290 775 242 759.5 c 128,-1,31
 194 744 194 744 141 744 c 1,32,33
 137 772 137 772 137 807 c 0,34,35
 137 953 137 953 207.5 1070.5 c 128,-1,36
 278 1188 278 1188 393.5 1251 c 128,-1,37
 509 1314 509 1314 645 1314 c 2,0,-1
EndSplineSet
EndChar

StartChar: J
Encoding: 74 74 46
Width: 881
GlyphClass: 2
Flags: W
LayerCount: 2
Fore
SplineSet
508 1314 m 2,0,-1
 841 1314 l 1,1,-1
 839 1285 l 1,2,3
 800 1253 800 1253 781 1195.5 c 128,-1,4
 762 1138 762 1138 753 1041 c 2,5,-1
 666 87 l 2,6,7
 647 -116 647 -116 548.5 -216 c 128,-1,8
 450 -316 450 -316 269 -316 c 2,9,-1
 78 -316 l 1,10,11
 78 -274 78 -274 89.5 -228 c 128,-1,12
 101 -182 101 -182 124 -157 c 1,13,14
 141 -162 141 -162 195 -182 c 0,15,16
 307 -222 307 -222 350 -222 c 128,-1,17
 393 -222 393 -222 409.5 -187.5 c 128,-1,18
 426 -153 426 -153 433 -80 c 2,19,-1
 512 810 l 2,20,21
 527 983 527 983 551.5 1066 c 128,-1,22
 576 1149 576 1149 635 1206 c 1,23,-1
 636 1216 l 1,24,-1
 411 1216 l 2,25,26
 273 1216 273 1216 224 1156 c 128,-1,27
 175 1096 175 1096 175 929 c 2,28,-1
 175 799 l 1,29,30
 153 775 153 775 105 759.5 c 128,-1,31
 57 744 57 744 4 744 c 1,32,33
 0 772 0 772 0 807 c 0,34,35
 0 953 0 953 70.5 1070.5 c 128,-1,36
 141 1188 141 1188 256.5 1251 c 128,-1,37
 372 1314 372 1314 508 1314 c 2,0,-1
EndSplineSet
EndChar

StartChar: K
Encoding: 75 75 47
Width: 1413
GlyphClass: 2
Flags: W
LayerCount: 2
Fore
SplineSet
686 1314 m 2,0,-1
 1019 1314 l 1,1,-1
 1017 1285 l 1,2,3
 978 1253 978 1253 959.5 1196.5 c 128,-1,4
 941 1140 941 1140 931 1041 c 2,5,-1
 903 742 l 1,6,7
 1116 742 1116 742 1415 1209 c 1,8,-1
 1415 1215 l 1,9,-1
 1331 1215 l 2,10,11
 1263 1215 1263 1215 1190 1189 c 1,12,-1
 1180 1201 l 1,13,14
 1212 1262 1212 1262 1244 1288.5 c 128,-1,15
 1276 1315 1276 1315 1337 1315 c 2,16,-1
 1630 1315 l 1,17,-1
 1628 1278 l 1,18,19
 1596 1263 1596 1263 1573 1240 c 128,-1,20
 1550 1217 1550 1217 1531 1193 c 128,-1,21
 1512 1169 1512 1169 1504.5 1159.5 c 128,-1,22
 1497 1150 1497 1150 1476.5 1120.5 c 128,-1,23
 1456 1091 1456 1091 1453 1086 c 0,24,25
 1342 928 1342 928 1261.5 849.5 c 128,-1,26
 1181 771 1181 771 1071 742 c 1,27,-1
 1071 738 l 1,28,29
 1155 717 1155 717 1204 669 c 128,-1,30
 1253 621 1253 621 1284.5 541.5 c 128,-1,31
 1316 462 1316 462 1333.5 418 c 128,-1,32
 1351 374 1351 374 1374.5 319 c 128,-1,33
 1398 264 1398 264 1412 234 c 128,-1,34
 1426 204 1426 204 1444.5 168.5 c 128,-1,35
 1463 133 1463 133 1476.5 115.5 c 128,-1,36
 1490 98 1490 98 1506 82 c 0,37,38
 1534 53 1534 53 1569 53 c 2,39,-1
 1664 53 l 1,40,-1
 1666 38 l 1,41,42
 1583 -29 1583 -29 1428 -29 c 0,43,44
 1360 -29 1360 -29 1312.5 8.5 c 128,-1,45
 1265 46 1265 46 1214 147 c 128,-1,46
 1163 248 1163 248 1094 448 c 0,47,48
 1052 570 1052 570 1010.5 620 c 128,-1,49
 969 670 969 670 900 670 c 2,50,-1
 896 670 l 1,51,-1
 869 384 l 2,52,53
 850 181 850 181 751.5 81 c 128,-1,54
 653 -19 653 -19 472 -19 c 2,55,-1
 281 -19 l 1,56,57
 281 23 281 23 292.5 69 c 128,-1,58
 304 115 304 115 327 140 c 1,59,60
 344 135 344 135 398 116 c 0,61,62
 510 75 510 75 553.5 75 c 128,-1,63
 597 75 597 75 613 107.5 c 128,-1,64
 629 140 629 140 636 217 c 2,65,-1
 690 810 l 2,66,67
 706 984 706 984 730 1067 c 128,-1,68
 754 1150 754 1150 813 1206 c 1,69,-1
 814 1216 l 1,70,-1
 589 1216 l 2,71,72
 451 1216 451 1216 402 1156 c 128,-1,73
 353 1096 353 1096 353 929 c 2,74,-1
 353 799 l 1,75,76
 331 775 331 775 283 759.5 c 128,-1,77
 235 744 235 744 182 744 c 1,78,79
 178 772 178 772 178 807 c 0,80,81
 178 953 178 953 248.5 1070.5 c 128,-1,82
 319 1188 319 1188 434.5 1251 c 128,-1,83
 550 1314 550 1314 686 1314 c 2,0,-1
EndSplineSet
EndChar

StartChar: L
Encoding: 76 76 48
Width: 1249
GlyphClass: 2
Flags: W
LayerCount: 2
Fore
SplineSet
1029 205 m 0,0,1
 1090 205 1090 205 1117.5 171.5 c 128,-1,2
 1145 138 1145 138 1145 70 c 0,3,4
 1145 -41 1145 -41 1073.5 -107 c 128,-1,5
 1002 -173 1002 -173 873 -173 c 0,6,7
 799 -173 799 -173 714 -145 c 128,-1,8
 629 -117 629 -117 564.5 -83 c 128,-1,9
 500 -49 500 -49 421.5 -21 c 128,-1,10
 343 7 343 7 278 7 c 128,-1,11
 213 7 213 7 100 -5 c 1,12,-1
 98 29 l 1,13,14
 326 63 326 63 393 280 c 0,15,16
 425 385 425 385 435 517 c 0,17,18
 447 680 447 680 447 822 c 1,19,20
 451 988 451 988 520 1112 c 0,21,22
 558 1179 558 1179 612.5 1227.5 c 128,-1,23
 667 1276 667 1276 750.5 1305 c 128,-1,24
 834 1334 834 1334 916 1334 c 0,25,26
 1071 1334 1071 1334 1169 1270 c 1,27,28
 1164 1238 1164 1238 1144 1200 c 128,-1,29
 1124 1162 1124 1162 1091 1140 c 1,30,31
 1034 1173 1034 1173 1004 1188.5 c 128,-1,32
 974 1204 974 1204 926 1220.5 c 128,-1,33
 878 1237 878 1237 837 1237 c 128,-1,34
 796 1237 796 1237 764 1214 c 128,-1,35
 732 1191 732 1191 714 1147 c 0,36,37
 680 1067 680 1067 674.5 934.5 c 128,-1,38
 669 802 669 802 666 743 c 128,-1,39
 663 684 663 684 654.5 587 c 128,-1,40
 646 490 646 490 635 441 c 128,-1,41
 624 392 624 392 604 324 c 128,-1,42
 584 256 584 256 556 217 c 0,43,44
 485 119 485 119 395 76 c 1,45,-1
 396 73 l 1,46,47
 418 81 418 81 480.5 81 c 128,-1,48
 543 81 543 81 621 63 c 128,-1,49
 699 45 699 45 749 23 c 0,50,51
 881 -35 881 -35 940.5 -35 c 128,-1,52
 1000 -35 1000 -35 1033 -12 c 128,-1,53
 1066 11 1066 11 1066 50 c 0,54,55
 1066 126 1066 126 982 126 c 0,56,57
 950 126 950 126 926 120 c 1,58,59
 931 160 931 160 959 182.5 c 128,-1,60
 987 205 987 205 1029 205 c 0,0,1
EndSplineSet
EndChar

StartChar: M
Encoding: 77 77 49
Width: 1792
GlyphClass: 2
Flags: W
LayerCount: 2
Fore
SplineSet
1703 180 m 0,0,1
 1725 109 1725 109 1758 109 c 0,2,3
 1831 109 1831 109 1897 132 c 1,4,-1
 1910 108 l 1,5,6
 1849 56 1849 56 1777.5 18.5 c 128,-1,7
 1706 -19 1706 -19 1646 -19 c 128,-1,8
 1586 -19 1586 -19 1543.5 24.5 c 128,-1,9
 1501 68 1501 68 1478 146 c 0,10,11
 1434 295 1434 295 1434 517 c 0,12,13
 1434 623 1434 623 1463 945 c 1,14,-1
 1459 945 l 1,15,16
 1318 646 1318 646 1089 92 c 1,17,18
 1065 86 1065 86 1034.5 86 c 128,-1,19
 1004 86 1004 86 981 97 c 1,20,21
 962 546 962 546 926 966 c 1,22,-1
 922 966 l 1,23,24
 795 491 795 491 681 261 c 0,25,26
 637 172 637 172 583 115 c 128,-1,27
 529 58 529 58 439 23 c 128,-1,28
 349 -12 349 -12 227 -12 c 0,29,30
 190 -12 190 -12 129 -1 c 1,31,32
 129 38 129 38 148 78 c 128,-1,33
 167 118 167 118 197 138 c 1,34,35
 307 90 307 90 365 90 c 0,36,37
 482 90 482 90 583 287 c 0,38,39
 640 397 640 397 683.5 534 c 128,-1,40
 727 671 727 671 743 724.5 c 128,-1,41
 759 778 759 778 795.5 910 c 128,-1,42
 832 1042 832 1042 842 1076 c 0,43,44
 871 1177 871 1177 907 1216 c 1,45,-1
 623 1216 l 2,46,47
 492 1216 492 1216 432.5 1130 c 128,-1,48
 373 1044 373 1044 373 855 c 0,49,50
 373 842 373 842 374 820 c 1,51,-1
 374 799 l 1,52,53
 347 769 347 769 294.5 749.5 c 128,-1,54
 242 730 242 730 182 728 c 1,55,56
 180 754 180 754 180 776 c 0,57,58
 180 1018 180 1018 339 1168.5 c 128,-1,59
 498 1319 498 1319 771 1319 c 0,60,61
 816 1319 816 1319 882.5 1313.5 c 128,-1,62
 949 1308 949 1308 971.5 1308 c 128,-1,63
 994 1308 994 1308 1122 1319 c 1,64,65
 1117 1272 1117 1272 1117 1214.5 c 128,-1,66
 1117 1157 1117 1157 1124.5 1047 c 128,-1,67
 1132 937 1132 937 1145 775.5 c 128,-1,68
 1158 614 1158 614 1165 512 c 1,69,-1
 1169 512 l 1,70,71
 1303 829 1303 829 1333 892.5 c 128,-1,72
 1363 956 1363 956 1386 1008 c 128,-1,73
 1409 1060 1409 1060 1427 1099.5 c 128,-1,74
 1445 1139 1445 1139 1468 1184 c 0,75,76
 1515 1277 1515 1277 1543 1293 c 1,77,78
 1580 1312 1580 1312 1613.5 1319.5 c 128,-1,79
 1647 1327 1647 1327 1659.5 1330 c 128,-1,80
 1672 1333 1672 1333 1706 1339 c 128,-1,81
 1740 1345 1740 1345 1744 1346 c 1,82,-1
 1762 1318 l 1,83,84
 1724 1275 1724 1275 1708 1167 c 0,85,86
 1664 885 1664 885 1664 594.5 c 128,-1,87
 1664 304 1664 304 1703 180 c 0,0,1
EndSplineSet
EndChar

StartChar: N
Encoding: 78 78 50
Width: 1495
GlyphClass: 2
Flags: W
LayerCount: 2
Fore
SplineSet
616 1317 m 1,0,-1
 815 1311 l 2,1,2
 844 1311 844 1311 930 1319 c 1,3,4
 932 1268 932 1268 949 1203 c 128,-1,5
 966 1138 966 1138 979.5 1101 c 128,-1,6
 993 1064 993 1064 1030 972 c 0,7,8
 1175 618 1175 618 1216 468 c 1,9,10
 1245 626 1245 626 1319 1021 c 0,11,12
 1359 1230 1359 1230 1466 1317 c 0,13,14
 1506 1350 1506 1350 1567 1370.5 c 128,-1,15
 1628 1391 1628 1391 1694.5 1391 c 128,-1,16
 1761 1391 1761 1391 1805 1379 c 1,17,18
 1794 1272 1794 1272 1741 1240 c 1,19,20
 1735 1242 1735 1242 1718 1249.5 c 128,-1,21
 1701 1257 1701 1257 1696 1259 c 128,-1,22
 1691 1261 1691 1261 1677.5 1266.5 c 128,-1,23
 1664 1272 1664 1272 1658.5 1273.5 c 128,-1,24
 1653 1275 1653 1275 1642.5 1278.5 c 128,-1,25
 1632 1282 1632 1282 1626 1283 c 0,26,27
 1606 1286 1606 1286 1593 1286 c 0,28,29
 1528 1286 1528 1286 1488 1233 c 128,-1,30
 1448 1180 1448 1180 1423.5 1065.5 c 128,-1,31
 1399 951 1399 951 1328.5 552 c 128,-1,32
 1258 153 1258 153 1222 -6 c 1,33,34
 1196 -16 1196 -16 1165.5 -16 c 128,-1,35
 1135 -16 1135 -16 1114 -2 c 1,36,37
 1086 142 1086 142 1024.5 314.5 c 128,-1,38
 963 487 963 487 887 678.5 c 128,-1,39
 811 870 811 870 773 990 c 1,40,41
 766 950 766 950 747.5 839.5 c 128,-1,42
 729 729 729 729 718.5 667.5 c 128,-1,43
 708 606 708 606 691 514 c 0,44,45
 659 343 659 343 626 201 c 128,-1,46
 593 59 593 59 490 -28 c 128,-1,47
 387 -115 387 -115 219 -115 c 0,48,49
 186 -115 186 -115 111 -104 c 1,50,51
 109 -91 109 -91 109 -78 c 0,52,53
 109 -17 109 -17 173 34 c 1,54,55
 302 -11 302 -11 332 -11 c 0,56,57
 385 -11 385 -11 433.5 45 c 128,-1,58
 482 101 482 101 508 190 c 0,59,60
 588 469 588 469 692 1141 c 0,61,62
 699 1188 699 1188 727 1216 c 1,63,-1
 480 1216 l 2,64,65
 370 1216 370 1216 322 1144 c 128,-1,66
 274 1072 274 1072 274 924 c 0,67,68
 274 918 274 918 279 845 c 2,69,-1
 282 807 l 1,70,71
 256 776 256 776 207 753 c 128,-1,72
 158 730 158 730 100 726 c 1,73,74
 88 794 88 794 88 845 c 0,75,76
 88 1061 88 1061 225.5 1189 c 128,-1,77
 363 1317 363 1317 616 1317 c 1,0,-1
EndSplineSet
EndChar

StartChar: O
Encoding: 79 79 51
Width: 1311
GlyphClass: 2
Flags: W
LayerCount: 2
Fore
SplineSet
915 1331 m 0,0,1
 1010 1331 1010 1331 1083.5 1295.5 c 128,-1,2
 1157 1260 1157 1260 1200 1198 c 0,3,4
 1288 1072 1288 1072 1288 886 c 0,5,6
 1288 736 1288 736 1246 594.5 c 128,-1,7
 1204 453 1204 453 1131.5 344 c 128,-1,8
 1059 235 1059 235 965.5 152.5 c 128,-1,9
 872 70 872 70 764.5 26 c 128,-1,10
 657 -18 657 -18 551 -18 c 0,11,12
 403 -18 403 -18 306 102.5 c 128,-1,13
 209 223 209 223 209 404 c 128,-1,14
 209 585 209 585 267 752 c 128,-1,15
 325 919 325 919 420.5 1046 c 128,-1,16
 516 1173 516 1173 647 1252 c 128,-1,17
 778 1331 778 1331 915 1331 c 0,0,1
819 1228 m 0,18,19
 724 1228 724 1228 642.5 1125 c 128,-1,20
 561 1022 561 1022 515 859 c 128,-1,21
 469 696 469 696 469 518 c 0,22,23
 469 272 469 272 545 156 c 0,24,25
 587 91 587 91 652 91 c 128,-1,26
 717 91 717 91 787 144 c 128,-1,27
 857 197 857 197 912 285.5 c 128,-1,28
 967 374 967 374 1001.5 499 c 128,-1,29
 1036 624 1036 624 1036 758 c 0,30,31
 1036 976 1036 976 982.5 1102 c 128,-1,32
 929 1228 929 1228 819 1228 c 0,18,19
EndSplineSet
EndChar

StartChar: P
Encoding: 80 80 52
Width: 1165
GlyphClass: 2
Flags: W
LayerCount: 2
Fore
SplineSet
814 1234 m 0,0,1
 587 1234 587 1234 482.5 1123.5 c 128,-1,2
 378 1013 378 1013 357 781 c 1,3,4
 333 747 333 747 276 725 c 128,-1,5
 219 703 219 703 150 703 c 1,6,7
 191 966 191 966 380 1140 c 0,8,9
 472 1225 472 1225 605.5 1273.5 c 128,-1,10
 739 1322 739 1322 897 1322 c 0,11,12
 1090 1322 1090 1322 1212 1233.5 c 128,-1,13
 1334 1145 1334 1145 1334 998 c 0,14,15
 1334 800 1334 800 1194.5 694.5 c 128,-1,16
 1055 589 1055 589 804 589 c 1,17,18
 804 663 804 663 837 701 c 1,19,20
 939 677 939 677 958 677 c 0,21,22
 1035 677 1035 677 1078.5 751 c 128,-1,23
 1122 825 1122 825 1122 937 c 0,24,25
 1122 1078 1122 1078 1036.5 1156 c 128,-1,26
 951 1234 951 1234 814 1234 c 0,0,1
687 100 m 2,27,28
 783 100 783 100 854 146 c 1,29,-1
 865 135 l 1,30,31
 834 65 834 65 795.5 32.5 c 128,-1,32
 757 0 757 0 692 0 c 2,33,-1
 330 0 l 1,34,-1
 326 28 l 1,35,36
 424 50 424 50 464 136 c 1,37,38
 497 210 497 210 510 322 c 0,39,40
 564 765 564 765 583 962 c 1,41,42
 589 1060 589 1060 637 1102.5 c 128,-1,43
 685 1145 685 1145 811 1145 c 1,44,-1
 708 286 l 2,45,46
 699 209 699 209 676 170 c 128,-1,47
 653 131 653 131 602 105 c 1,48,-1
 603 100 l 1,49,-1
 687 100 l 2,27,28
EndSplineSet
EndChar

StartChar: Q
Encoding: 81 81 53
Width: 1305
GlyphClass: 2
Flags: W
LayerCount: 2
Fore
SplineSet
685 -12 m 1,0,-1
 595 -18 l 1,1,2
 458 -18 458 -18 358 90 c 0,3,4
 309 143 309 143 280 227.5 c 128,-1,5
 251 312 251 312 251 416 c 0,6,7
 251 584 251 584 309 751 c 128,-1,8
 367 918 367 918 462 1045.5 c 128,-1,9
 557 1173 557 1173 687.5 1252.5 c 128,-1,10
 818 1332 818 1332 953 1332 c 0,11,12
 1049 1332 1049 1332 1123 1297 c 128,-1,13
 1197 1262 1197 1262 1242 1200 c 0,14,15
 1331 1074 1331 1074 1331 879 c 0,16,17
 1331 589 1331 589 1186 361 c 128,-1,18
 1041 133 1041 133 799 25 c 1,19,-1
 799 21 l 1,20,21
 893 21 893 21 943 -29 c 0,22,23
 983 -68 983 -68 1033 -139 c 128,-1,24
 1083 -210 1083 -210 1117.5 -254.5 c 128,-1,25
 1152 -299 1152 -299 1175 -299 c 0,26,27
 1192 -299 1192 -299 1214 -270 c 1,28,29
 1236 -239 1236 -239 1250 -215.5 c 128,-1,30
 1264 -192 1264 -192 1269 -186 c 0,31,32
 1284 -166 1284 -166 1301 -166 c 0,33,34
 1331 -166 1331 -166 1367 -200.5 c 128,-1,35
 1403 -235 1403 -235 1403 -259 c 0,36,37
 1403 -302 1403 -302 1328 -331.5 c 128,-1,38
 1253 -361 1253 -361 1154 -361 c 128,-1,39
 1055 -361 1055 -361 984.5 -322 c 128,-1,40
 914 -283 914 -283 854 -197 c 0,41,42
 837 -173 837 -173 813 -137 c 128,-1,43
 789 -101 789 -101 777 -83.5 c 128,-1,44
 765 -66 765 -66 748 -46 c 0,45,46
 719 -12 719 -12 685 -12 c 1,0,-1
863 1228 m 0,47,48
 767 1228 767 1228 684.5 1125 c 128,-1,49
 602 1022 602 1022 556 859 c 128,-1,50
 510 696 510 696 510 518 c 0,51,52
 510 352 510 352 553 226 c 0,53,54
 574 165 574 165 609.5 128 c 128,-1,55
 645 91 645 91 690 91 c 0,56,57
 756 91 756 91 825.5 144 c 128,-1,58
 895 197 895 197 950.5 285 c 128,-1,59
 1006 373 1006 373 1042 499 c 128,-1,60
 1078 625 1078 625 1078 758 c 0,61,62
 1078 974 1078 974 1024 1101 c 128,-1,63
 970 1228 970 1228 863 1228 c 0,47,48
EndSplineSet
EndChar

StartChar: R
Encoding: 82 82 54
Width: 1268
GlyphClass: 2
Flags: W
LayerCount: 2
Fore
SplineSet
871 1234 m 0,0,1
 645 1234 645 1234 534.5 1131.5 c 128,-1,2
 424 1029 424 1029 402 782 c 1,3,4
 377 748 377 748 321 726.5 c 128,-1,5
 265 705 265 705 195 703 c 1,6,7
 236 971 236 971 426 1142 c 0,8,9
 520 1226 520 1226 657 1274 c 128,-1,10
 794 1322 794 1322 968.5 1322 c 128,-1,11
 1143 1322 1143 1322 1252.5 1234 c 128,-1,12
 1362 1146 1362 1146 1362 999.5 c 128,-1,13
 1362 853 1362 853 1284.5 772 c 128,-1,14
 1207 691 1207 691 1045 661 c 1,15,16
 1161 154 1161 154 1280 -2 c 0,17,18
 1319 -54 1319 -54 1355 -54 c 0,19,20
 1373 -54 1373 -54 1488 -42 c 1,21,22
 1502 -70 1502 -70 1502 -89 c 0,23,24
 1502 -136 1502 -136 1458 -192 c 1,25,26
 1366 -178 1366 -178 1282 -128.5 c 128,-1,27
 1198 -79 1198 -79 1135.5 -7 c 128,-1,28
 1073 65 1073 65 1021.5 149 c 128,-1,29
 970 233 970 233 936 322 c 0,30,31
 866 500 866 500 852 634 c 1,32,33
 862 676 862 676 898 700 c 1,34,-1
 932 700 l 2,35,36
 1038 700 1038 700 1096 769 c 128,-1,37
 1154 838 1154 838 1154 946 c 0,38,39
 1154 1075 1154 1075 1082 1154.5 c 128,-1,40
 1010 1234 1010 1234 871 1234 c 0,0,1
711 100 m 2,41,42
 815 100 815 100 878 141 c 1,43,-1
 889 130 l 1,44,45
 857 59 857 59 822 29.5 c 128,-1,46
 787 0 787 0 716 0 c 2,47,-1
 374 0 l 1,48,-1
 370 28 l 1,49,50
 468 50 468 50 508 136 c 1,51,52
 541 210 541 210 554 322 c 0,53,54
 608 765 608 765 627 962 c 1,55,56
 633 1060 633 1060 681 1102.5 c 128,-1,57
 729 1145 729 1145 855 1145 c 1,58,-1
 752 286 l 2,59,60
 743 207 743 207 719.5 166.5 c 128,-1,61
 696 126 696 126 646 105 c 1,62,-1
 647 100 l 1,63,-1
 711 100 l 2,41,42
EndSplineSet
EndChar

StartChar: S
Encoding: 83 83 55
Width: 1001
GlyphClass: 2
Flags: W
LayerCount: 2
Fore
SplineSet
679 1332 m 0,0,1
 794 1332 794 1332 867 1294 c 128,-1,2
 940 1256 940 1256 940 1190 c 0,3,4
 940 1098 940 1098 839 1033 c 1,5,6
 801 1140 801 1140 752.5 1200.5 c 128,-1,7
 704 1261 704 1261 629.5 1261 c 128,-1,8
 555 1261 555 1261 517 1215.5 c 128,-1,9
 479 1170 479 1170 479 1094 c 0,10,11
 479 1014 479 1014 531 952 c 0,12,13
 558 919 558 919 578.5 898.5 c 128,-1,14
 599 878 599 878 638.5 844.5 c 128,-1,15
 678 811 678 811 692 798 c 0,16,17
 789 710 789 710 842 618.5 c 128,-1,18
 895 527 895 527 895 402.5 c 128,-1,19
 895 278 895 278 829 180.5 c 128,-1,20
 763 83 763 83 651.5 31.5 c 128,-1,21
 540 -20 540 -20 404 -20 c 0,22,23
 238 -20 238 -20 138.5 62.5 c 128,-1,24
 39 145 39 145 39 284 c 0,25,26
 39 403 39 403 109 476 c 128,-1,27
 179 549 179 549 284 549 c 128,-1,28
 389 549 389 549 447.5 489.5 c 128,-1,29
 506 430 506 430 506 332 c 1,30,-1
 479 330 l 1,31,32
 471 388 471 388 437 423 c 128,-1,33
 403 458 403 458 344 458 c 128,-1,34
 285 458 285 458 247.5 410.5 c 128,-1,35
 210 363 210 363 210 289 c 0,36,37
 210 184 210 184 271 115.5 c 128,-1,38
 332 47 332 47 442.5 47 c 128,-1,39
 553 47 553 47 622.5 122.5 c 128,-1,40
 692 198 692 198 692 314 c 0,41,42
 692 412 692 412 633 490 c 0,43,44
 601 533 601 533 572 563.5 c 128,-1,45
 543 594 543 594 489 644 c 0,46,47
 390 735 390 735 339.5 813.5 c 128,-1,48
 289 892 289 892 289 993 c 0,49,50
 289 1144 289 1144 396 1238 c 128,-1,51
 503 1332 503 1332 679 1332 c 0,0,1
EndSplineSet
EndChar

StartChar: T
Encoding: 84 84 56
Width: 1085
GlyphClass: 2
Flags: W
LayerCount: 2
Fore
SplineSet
787 100 m 2,0,1
 854 100 854 100 919 130 c 1,2,-1
 926 119 l 1,3,4
 900 61 900 61 857.5 30.5 c 128,-1,5
 815 0 815 0 738 0 c 2,6,-1
 435 0 l 1,7,-1
 428 39 l 1,8,9
 499 52 499 52 538 92 c 1,10,11
 568 121 568 121 583 192 c 0,12,13
 612 330 612 330 658 802 c 0,14,15
 674 959 674 959 677 987 c 0,16,17
 692 1125 692 1125 776 1201 c 1,18,19
 652 1203 652 1203 544 1203 c 128,-1,20
 436 1203 436 1203 386.5 1136 c 128,-1,21
 337 1069 337 1069 337 936 c 0,22,23
 337 859 337 859 357 770 c 1,24,25
 342 740 342 740 291.5 718.5 c 128,-1,26
 241 697 241 697 177 697 c 1,27,28
 162 772 162 772 162 831 c 0,29,30
 162 976 162 976 230 1088.5 c 128,-1,31
 298 1201 298 1201 410 1260 c 128,-1,32
 522 1319 522 1319 658 1319 c 0,33,34
 1012 1319 1012 1319 1430 1308 c 1,35,36
 1426 1173 1426 1173 1290 1173 c 0,37,38
 1208 1173 1208 1173 1077 1183.5 c 128,-1,39
 946 1194 946 1194 918 1196 c 1,40,41
 912 1149 912 1149 874.5 785 c 128,-1,42
 837 421 837 421 820.5 319 c 128,-1,43
 804 217 804 217 776.5 171 c 128,-1,44
 749 125 749 125 699 105 c 1,45,-1
 700 100 l 1,46,-1
 787 100 l 2,0,1
EndSplineSet
EndChar

StartChar: U
Encoding: 85 85 57
Width: 1567
GlyphClass: 2
Flags: W
LayerCount: 2
Fore
SplineSet
99 732 m 1,0,-1
 98 771 l 1,1,2
 98 887 98 887 142.5 990 c 128,-1,3
 187 1093 187 1093 259 1163 c 128,-1,4
 331 1233 331 1233 422 1274 c 128,-1,5
 513 1315 513 1315 606 1315 c 2,6,-1
 952 1315 l 1,7,-1
 953 1299 l 1,8,9
 904 1245 904 1245 853.5 1075.5 c 128,-1,10
 803 906 803 906 772.5 708.5 c 128,-1,11
 742 511 742 511 742 369 c 0,12,13
 742 104 742 104 881 104 c 0,14,15
 951 104 951 104 1013.5 157.5 c 128,-1,16
 1076 211 1076 211 1114 291 c 128,-1,17
 1152 371 1152 371 1161 457 c 0,18,19
 1216 1007 1216 1007 1295 1283 c 1,20,21
 1330 1300 1330 1300 1405.5 1319 c 128,-1,22
 1481 1338 1481 1338 1538 1346 c 1,23,-1
 1543 1319 l 1,24,25
 1485 1269 1485 1269 1440 977 c 128,-1,26
 1395 685 1395 685 1395 404 c 128,-1,27
 1395 123 1395 123 1464 123 c 0,28,29
 1542 123 1542 123 1622 137 c 1,30,-1
 1635 103 l 1,31,32
 1575 57 1575 57 1495.5 19 c 128,-1,33
 1416 -19 1416 -19 1366 -19 c 0,34,35
 1189 -19 1189 -19 1176 271 c 1,36,-1
 1172 271 l 1,37,38
 1130 202 1130 202 1091.5 154.5 c 128,-1,39
 1053 107 1053 107 1001 65 c 0,40,41
 898 -18 898 -18 737 -18 c 0,42,43
 624 -18 624 -18 569.5 66.5 c 128,-1,44
 515 151 515 151 515 288 c 0,45,46
 515 529 515 529 588.5 793.5 c 128,-1,47
 662 1058 662 1058 744 1216 c 1,48,-1
 534 1216 l 2,49,50
 395 1216 395 1216 341 1129 c 128,-1,51
 287 1042 287 1042 287 821 c 1,52,-1
 288 806 l 1,53,54
 272 776 272 776 218 754 c 128,-1,55
 164 732 164 732 99 732 c 1,0,-1
EndSplineSet
EndChar

StartChar: V
Encoding: 86 86 58
Width: 1368
GlyphClass: 2
Flags: W
LayerCount: 2
Fore
SplineSet
404 915 m 1,0,-1
 406 799 l 1,1,2
 386 772 386 772 330 750 c 128,-1,3
 274 728 274 728 213 726 c 1,4,5
 211 752 211 752 211 776 c 0,6,7
 211 1019 211 1019 352.5 1169 c 128,-1,8
 494 1319 494 1319 745 1319 c 0,9,10
 965 1319 965 1319 1064 1158 c 0,11,12
 1128 1055 1128 1055 1152 894 c 0,13,14
 1175 744 1175 744 1175 570.5 c 128,-1,15
 1175 397 1175 397 1166 289 c 1,16,-1
 1170 289 l 1,17,18
 1464 790 1464 790 1464 1118 c 0,19,20
 1464 1203 1464 1203 1376 1213 c 0,21,22
 1362 1214 1362 1214 1358.5 1216 c 128,-1,23
 1355 1218 1355 1218 1355 1225.5 c 128,-1,24
 1355 1233 1355 1233 1374 1263 c 128,-1,25
 1393 1293 1393 1293 1407 1307 c 128,-1,26
 1421 1321 1421 1321 1450 1321 c 128,-1,27
 1479 1321 1479 1321 1524.5 1315.5 c 128,-1,28
 1570 1310 1570 1310 1615.5 1293 c 128,-1,29
 1661 1276 1661 1276 1661 1251 c 0,30,31
 1661 1160 1661 1160 1616 1036 c 128,-1,32
 1571 912 1571 912 1488 737 c 128,-1,33
 1405 562 1405 562 1350.5 458 c 128,-1,34
 1296 354 1296 354 1231 233 c 128,-1,35
 1166 112 1166 112 1154 92.5 c 128,-1,36
 1142 73 1142 73 1122 48 c 0,37,38
 1083 -1 1083 -1 1026 -1 c 0,39,40
 993 -1 993 -1 905 -15 c 1,41,-1
 894 24 l 1,42,43
 954 91 954 91 954 390 c 0,44,45
 954 828 954 828 893 998 c 0,46,47
 840 1146 840 1146 745 1190 c 0,48,49
 693 1215 693 1215 625 1215 c 0,50,51
 500 1215 500 1215 452 1150 c 128,-1,52
 404 1085 404 1085 404 915 c 1,0,-1
EndSplineSet
EndChar

StartChar: W
Encoding: 87 87 59
Width: 1827
GlyphClass: 2
Flags: W
LayerCount: 2
Fore
SplineSet
390 885 m 1,0,-1
 392 799 l 1,1,2
 373 771 373 771 315.5 749.5 c 128,-1,3
 258 728 258 728 200 726 c 1,4,5
 197 750 197 750 197 784 c 0,6,7
 197 1018 197 1018 332 1166 c 0,8,9
 399 1238 399 1238 504 1278.5 c 128,-1,10
 609 1319 609 1319 726 1319 c 128,-1,11
 843 1319 843 1319 917 1281.5 c 128,-1,12
 991 1244 991 1244 1037.5 1179 c 128,-1,13
 1084 1114 1084 1114 1112 1013 c 128,-1,14
 1140 912 1140 912 1150.5 800 c 128,-1,15
 1161 688 1161 688 1161 563 c 128,-1,16
 1161 438 1161 438 1152 289 c 1,17,-1
 1156 289 l 1,18,19
 1266 463 1266 463 1349 702 c 128,-1,20
 1432 941 1432 941 1432 1117 c 0,21,22
 1432 1163 1432 1163 1388 1209 c 0,23,24
 1364 1235 1364 1235 1364 1250 c 0,25,26
 1364 1287 1364 1287 1421 1304 c 128,-1,27
 1478 1321 1478 1321 1541 1321 c 0,28,29
 1586 1321 1586 1321 1624 1238.5 c 128,-1,30
 1662 1156 1662 1156 1684 1032 c 0,31,32
 1729 771 1729 771 1729 542 c 0,33,34
 1729 396 1729 396 1719 289 c 1,35,-1
 1723 289 l 1,36,37
 1920 745 1920 745 1964 939 c 0,38,39
 1986 1040 1986 1040 1986 1103 c 128,-1,40
 1986 1166 1986 1166 1972.5 1187.5 c 128,-1,41
 1959 1209 1959 1209 1920 1212 c 0,42,43
 1885 1215 1885 1215 1882.5 1219 c 128,-1,44
 1880 1223 1880 1223 1880 1231.5 c 128,-1,45
 1880 1240 1880 1240 1897.5 1265.5 c 128,-1,46
 1915 1291 1915 1291 1930.5 1306 c 128,-1,47
 1946 1321 1946 1321 2000.5 1321 c 128,-1,48
 2055 1321 2055 1321 2120.5 1302.5 c 128,-1,49
 2186 1284 2186 1284 2186 1248 c 0,50,51
 2186 1164 2186 1164 2146 1046 c 0,52,53
 2011 651 2011 651 1783 195 c 2,54,-1
 1761 151 l 2,55,56
 1704 35 1704 35 1654 10 c 0,57,58
 1630 -1 1630 -1 1592 -1 c 128,-1,59
 1554 -1 1554 -1 1466 -15 c 1,60,-1
 1454 24 l 1,61,62
 1517 91 1517 91 1517 420 c 0,63,64
 1517 632 1517 632 1494 851 c 1,65,66
 1459 745 1459 745 1403 618 c 128,-1,67
 1347 491 1347 491 1308 412.5 c 128,-1,68
 1269 334 1269 334 1197 195 c 1,69,70
 1188 181 1188 181 1165 138 c 128,-1,71
 1142 95 1142 95 1126 70 c 128,-1,72
 1110 45 1110 45 1079.5 22 c 128,-1,73
 1049 -1 1049 -1 1014 -1 c 128,-1,74
 979 -1 979 -1 891 -15 c 1,75,-1
 880 24 l 1,76,77
 939 90 939 90 939 350 c 0,78,79
 939 722 939 722 904 894 c 0,80,81
 872 1056 872 1056 812 1129 c 0,82,83
 740 1215 740 1215 627 1215 c 0,84,85
 551 1215 551 1215 505.5 1200 c 128,-1,86
 460 1185 460 1185 434 1144 c 128,-1,87
 408 1103 408 1103 399 1044 c 128,-1,88
 390 985 390 985 390 885 c 1,0,-1
EndSplineSet
EndChar

StartChar: X
Encoding: 88 88 60
Width: 1202
GlyphClass: 2
Flags: W
LayerCount: 2
Fore
SplineSet
353 953 m 1,0,-1
 356 866 l 1,1,2
 310 798 310 798 197 798 c 1,3,4
 203 973 203 973 270 1100 c 0,5,6
 307 1170 307 1170 360.5 1220.5 c 128,-1,7
 414 1271 414 1271 494.5 1301.5 c 128,-1,8
 575 1332 575 1332 675 1332 c 0,9,10
 735 1332 735 1332 786 1296 c 0,11,12
 818 1273 818 1273 853 1201 c 0,13,14
 875 1156 875 1156 889 1097 c 128,-1,15
 903 1038 903 1038 914 987 c 2,16,-1
 935 893 l 1,17,-1
 1021 1072 l 1,18,19
 1096 1225 1096 1225 1126 1260 c 1,20,21
 1171 1316 1171 1316 1208 1330 c 0,22,23
 1267 1353 1267 1353 1333 1353 c 128,-1,24
 1399 1353 1399 1353 1446 1328 c 1,25,26
 1446 1267 1446 1267 1406 1200 c 1,27,28
 1313 1243 1313 1243 1255.5 1243 c 128,-1,29
 1198 1243 1198 1243 1159 1159 c 2,30,-1
 970 747 l 1,31,32
 1108 112 1108 112 1194 112 c 0,33,34
 1257 112 1257 112 1358 128 c 1,35,-1
 1371 99 l 1,36,37
 1321 68 1321 68 1237 33 c 128,-1,38
 1153 -2 1153 -2 1086 -17 c 1,39,40
 1034 -17 1034 -17 993 28 c 0,41,42
 946 81 946 81 924.5 131 c 128,-1,43
 903 181 903 181 890.5 212 c 128,-1,44
 878 243 878 243 863.5 290 c 128,-1,45
 849 337 849 337 840.5 366 c 128,-1,46
 832 395 832 395 819 441.5 c 128,-1,47
 806 488 806 488 800 508 c 1,48,49
 685 267 685 267 623 168 c 0,50,51
 487 -48 487 -48 321 -119 c 0,52,53
 225 -161 225 -161 110 -161 c 0,54,55
 41 -161 41 -161 -16 -154 c 1,56,57
 -5 -58 -5 -58 53 -13 c 1,58,59
 138 -37 138 -37 201 -37 c 128,-1,60
 264 -37 264 -37 312 -17.5 c 128,-1,61
 360 2 360 2 403.5 42 c 128,-1,62
 447 82 447 82 484.5 127.5 c 128,-1,63
 522 173 522 173 562 240 c 1,64,65
 632 361 632 361 700 506 c 2,66,-1
 768 650 l 1,67,-1
 738 805 l 2,68,69
 693 1039 693 1039 665 1115 c 1,70,71
 615 1239 615 1239 541 1243 c 1,72,73
 353 1243 353 1243 353 953 c 1,0,-1
EndSplineSet
EndChar

StartChar: Y
Encoding: 89 89 61
Width: 1208
GlyphClass: 2
Flags: W
LayerCount: 2
Fore
SplineSet
1194 1118 m 0,0,1
 1194 1162 1194 1162 1172.5 1187.5 c 128,-1,2
 1151 1213 1151 1213 1109 1213 c 0,3,4
 1090 1213 1090 1213 1082 1215.5 c 128,-1,5
 1074 1218 1074 1218 1074 1229 c 128,-1,6
 1074 1240 1074 1240 1094.5 1264 c 128,-1,7
 1115 1288 1115 1288 1133.5 1304.5 c 128,-1,8
 1152 1321 1152 1321 1196.5 1321 c 128,-1,9
 1241 1321 1241 1321 1284 1314.5 c 128,-1,10
 1327 1308 1327 1308 1364.5 1289.5 c 128,-1,11
 1402 1271 1402 1271 1402 1246 c 0,12,13
 1402 1056 1402 1056 1282 813 c 128,-1,14
 1162 570 1162 570 968 359 c 0,15,16
 941 330 941 330 890 283 c 128,-1,17
 839 236 839 236 803 199.5 c 128,-1,18
 767 163 767 163 729 116 c 0,19,20
 651 18 651 18 651 -102 c 0,21,22
 651 -152 651 -152 681.5 -178 c 128,-1,23
 712 -204 712 -204 759 -204 c 128,-1,24
 806 -204 806 -204 865.5 -178 c 128,-1,25
 925 -152 925 -152 977.5 -126.5 c 128,-1,26
 1030 -101 1030 -101 1060 -101 c 0,27,28
 1094 -101 1094 -101 1109 -151 c 128,-1,29
 1124 -201 1124 -201 1124 -265 c 1,30,31
 942 -309 942 -309 764 -309 c 0,32,33
 661 -309 661 -309 605 -260 c 128,-1,34
 549 -211 549 -211 549 -106 c 128,-1,35
 549 -1 549 -1 603.5 94 c 128,-1,36
 658 189 658 189 762 298 c 1,37,-1
 762 465 l 2,38,39
 762 808 762 808 678.5 1013 c 128,-1,40
 595 1218 595 1218 445 1218 c 0,41,42
 334 1218 334 1218 294 1155.5 c 128,-1,43
 254 1093 254 1093 254 961 c 0,44,45
 254 926 254 926 260 860 c 1,46,47
 241 835 241 835 185.5 816.5 c 128,-1,48
 130 798 130 798 67 792 c 1,49,50
 65 818 65 818 65 842 c 0,51,52
 65 1070 65 1070 199 1194.5 c 128,-1,53
 333 1319 333 1319 562 1319 c 0,54,55
 645 1319 645 1319 711 1289 c 128,-1,56
 777 1259 777 1259 820.5 1204.5 c 128,-1,57
 864 1150 864 1150 894.5 1083.5 c 128,-1,58
 925 1017 925 1017 940 934 c 0,59,60
 969 780 969 780 969 643 c 128,-1,61
 969 506 969 506 965 461 c 1,62,-1
 968 460 l 1,63,64
 1194 769 1194 769 1194 1118 c 0,0,1
EndSplineSet
EndChar

StartChar: Z
Encoding: 90 90 62
Width: 1270
GlyphClass: 2
Flags: W
LayerCount: 2
Fore
SplineSet
378 142 m 1,0,1
 461 151 461 151 530.5 151 c 128,-1,2
 600 151 600 151 688.5 130.5 c 128,-1,3
 777 110 777 110 836 85 c 0,4,5
 990 19 990 19 1059 19 c 0,6,7
 1211 19 1211 19 1249 176 c 1,8,-1
 1290 161 l 1,9,10
 1269 10 1269 10 1183.5 -80 c 128,-1,11
 1098 -170 1098 -170 950 -170 c 0,12,13
 820 -170 820 -170 677 -102 c 0,14,15
 618 -74 618 -74 560 -46 c 0,16,17
 419 22 419 22 292 22 c 0,18,19
 210 22 210 22 146 -4 c 1,20,-1
 135 16 l 1,21,22
 329 274 329 274 598 557.5 c 128,-1,23
 867 841 867 841 1135 1083 c 1,24,-1
 1132 1087 l 1,25,26
 1108 1078 1108 1078 1062 1070 c 128,-1,27
 1016 1062 1016 1062 982 1062 c 0,28,29
 852 1062 852 1062 612 1140 c 0,30,31
 531 1167 531 1167 492 1167 c 0,32,33
 415 1167 415 1167 415 1041 c 0,34,35
 415 1016 415 1016 420.5 968 c 128,-1,36
 426 920 426 920 432 901 c 1,37,38
 411 866 411 866 361.5 840 c 128,-1,39
 312 814 312 814 252 804 c 1,40,41
 247 847 247 847 247 871 c 0,42,43
 247 1063 247 1063 334 1181 c 0,44,45
 379 1243 379 1243 460 1277 c 128,-1,46
 541 1311 541 1311 643 1311 c 128,-1,47
 745 1311 745 1311 846 1284 c 128,-1,48
 947 1257 947 1257 1029.5 1230 c 128,-1,49
 1112 1203 1112 1203 1162 1203 c 128,-1,50
 1212 1203 1212 1203 1246.5 1216.5 c 128,-1,51
 1281 1230 1281 1230 1315 1260 c 1,52,-1
 1347 1236 l 1,53,54
 1190 992 1190 992 912.5 681 c 128,-1,55
 635 370 635 370 377 145 c 1,56,-1
 378 142 l 1,0,1
EndSplineSet
EndChar

StartChar: bracketleft
Encoding: 91 91 63
Width: 553
GlyphClass: 2
Flags: W
LayerCount: 2
Fore
SplineSet
287 1423 m 1,0,-1
 708 1423 l 1,1,-1
 678 1373 l 1,2,-1
 469 1373 l 1,3,4
 362 457 362 457 317 -98 c 1,5,-1
 557 -98 l 1,6,-1
 526 -151 l 1,7,-1
 129 -151 l 1,8,9
 188 553 188 553 287 1423 c 1,0,-1
EndSplineSet
EndChar

StartChar: backslash
Encoding: 92 92 64
Width: 983
GlyphClass: 2
Flags: W
LayerCount: 2
Fore
SplineSet
574 1474 m 1,0,-1
 809 -340 l 1,1,-1
 683 -340 l 1,2,-1
 447 1474 l 1,3,-1
 574 1474 l 1,0,-1
EndSplineSet
EndChar

StartChar: bracketright
Encoding: 93 93 65
Width: 717
GlyphClass: 2
Flags: W
LayerCount: 2
Fore
SplineSet
487 -151 m 1,0,-1
 66 -151 l 1,1,-1
 96 -101 l 1,2,-1
 305 -101 l 1,3,4
 412 815 412 815 457 1370 c 1,5,-1
 217 1370 l 1,6,-1
 248 1423 l 1,7,-1
 645 1423 l 1,8,9
 586 719 586 719 487 -151 c 1,0,-1
EndSplineSet
EndChar

StartChar: asciicircum
Encoding: 94 94 66
Width: 1065
GlyphClass: 2
Flags: W
LayerCount: 2
Fore
SplineSet
552 1323 m 2,0,1
 563 1326 563 1326 596 1326 c 128,-1,2
 629 1326 629 1326 661 1310 c 1,3,4
 661 1251 661 1251 777.5 1055 c 128,-1,5
 894 859 894 859 950 810 c 1,6,-1
 919 775 l 1,7,8
 783 868 783 868 710 955 c 128,-1,9
 637 1042 637 1042 585 1175 c 1,10,11
 523 1059 523 1059 400 952 c 128,-1,12
 277 845 277 845 160 793 c 1,13,-1
 130 829 l 1,14,15
 201 867 201 867 355.5 1054 c 128,-1,16
 510 1241 510 1241 537 1318 c 1,17,-1
 552 1323 l 2,0,1
EndSplineSet
EndChar

StartChar: underscore
Encoding: 95 95 67
Width: 1024
GlyphClass: 2
Flags: W
LayerCount: 2
Fore
SplineSet
68 -151 m 1,0,-1
 1082 -151 l 1,1,-1
 1024 -256 l 1,2,-1
 5 -256 l 1,3,-1
 68 -151 l 1,0,-1
EndSplineSet
EndChar

StartChar: grave
Encoding: 96 96 68
Width: 481
GlyphClass: 2
Flags: W
LayerCount: 2
Fore
SplineSet
311 1271 m 1,0,-1
 452 1295 l 1,1,2
 478 1218 478 1218 535 1146.5 c 128,-1,3
 592 1075 592 1075 658 1038 c 1,4,-1
 625 1006 l 1,5,6
 518 1047 518 1047 430.5 1116.5 c 128,-1,7
 343 1186 343 1186 311 1271 c 1,0,-1
EndSplineSet
EndChar

StartChar: a
Encoding: 97 97 69
Width: 940
GlyphClass: 2
Flags: W
LayerCount: 2
Fore
SplineSet
679 869 m 0,0,1
 777 869 777 869 885 858 c 1,2,3
 881 612 881 612 783 115 c 1,4,-1
 790 111 l 1,5,6
 895 168 895 168 999 312 c 1,7,-1
 1019 299 l 1,8,9
 962 184 962 184 860 83.5 c 128,-1,10
 758 -17 758 -17 676 -17 c 0,11,12
 639 -17 639 -17 614.5 1 c 128,-1,13
 590 19 590 19 590 43 c 128,-1,14
 590 67 590 67 608 138.5 c 128,-1,15
 626 210 626 210 628 226 c 1,16,-1
 623 227 l 1,17,18
 476 -17 476 -17 302 -17 c 0,19,20
 230 -17 230 -17 190 57.5 c 128,-1,21
 150 132 150 132 150 252 c 0,22,23
 150 411 150 411 217 552 c 128,-1,24
 284 693 284 693 407 781 c 128,-1,25
 530 869 530 869 679 869 c 0,0,1
576 761 m 128,-1,27
 518 761 518 761 473.5 719 c 128,-1,28
 429 677 429 677 404 606 c 0,29,30
 353 465 353 465 353 268 c 0,31,32
 353 138 353 138 423 138 c 0,33,34
 506 138 506 138 574 226 c 128,-1,35
 642 314 642 314 651 424 c 2,36,-1
 678 743 l 1,37,26
 634 761 634 761 576 761 c 128,-1,27
EndSplineSet
EndChar

StartChar: b
Encoding: 98 98 70
Width: 958
GlyphClass: 2
Flags: W
LayerCount: 2
Fore
SplineSet
791 641 m 0,0,1
 791 755 791 755 747 755 c 0,2,3
 695 755 695 755 641 713 c 128,-1,4
 587 671 587 671 540.5 595 c 128,-1,5
 494 519 494 519 464 394 c 128,-1,6
 434 269 434 269 434 119 c 0,7,8
 434 97 434 97 449 85 c 128,-1,9
 464 73 464 73 485 73 c 0,10,11
 556 73 556 73 612 112.5 c 128,-1,12
 668 152 668 152 701 212 c 128,-1,13
 734 272 734 272 755 352 c 0,14,15
 791 488 791 488 791 641 c 0,0,1
930 1322 m 1,16,17
 792 1368 792 1368 715.5 1368 c 128,-1,18
 639 1368 639 1368 601 1270 c 128,-1,19
 563 1172 563 1172 538 957 c 2,20,-1
 502 638 l 1,21,-1
 509 636 l 1,22,23
 592 759 592 759 684 826.5 c 128,-1,24
 776 894 776 894 890 894 c 0,25,26
 949 894 949 894 979.5 854.5 c 128,-1,27
 1010 815 1010 815 1010 749 c 0,28,29
 1010 505 1010 505 908 317 c 0,30,31
 855 218 855 218 777 145 c 128,-1,32
 699 72 699 72 584 28.5 c 128,-1,33
 469 -15 469 -15 329 -15 c 0,34,35
 284 -15 284 -15 262 7.5 c 128,-1,36
 240 30 240 30 240 61 c 0,37,38
 240 244 240 244 310 750 c 0,39,40
 342 986 342 986 350.5 1055 c 128,-1,41
 359 1124 359 1124 400.5 1200 c 128,-1,42
 442 1276 442 1276 505.5 1338 c 128,-1,43
 569 1400 569 1400 659.5 1439 c 128,-1,44
 750 1478 750 1478 836 1478 c 128,-1,45
 922 1478 922 1478 980 1465 c 1,46,47
 980 1427 980 1427 967 1386.5 c 128,-1,48
 954 1346 954 1346 930 1322 c 1,16,17
EndSplineSet
EndChar

StartChar: c
Encoding: 99 99 71
Width: 758
GlyphClass: 2
Flags: W
LayerCount: 2
Fore
SplineSet
383 -18 m 0,0,1
 288 -18 288 -18 232 45 c 128,-1,2
 176 108 176 108 176 236 c 0,3,4
 176 400 176 400 252 554.5 c 128,-1,5
 328 709 328 709 444.5 801.5 c 128,-1,6
 561 894 561 894 678 894 c 0,7,8
 738 894 738 894 769.5 880.5 c 128,-1,9
 801 867 801 867 836 834 c 1,10,11
 836 810 836 810 807 771 c 128,-1,12
 778 732 778 732 734 710 c 1,13,14
 684 793 684 793 603 793 c 0,15,16
 508 793 508 793 450.5 648.5 c 128,-1,17
 393 504 393 504 393 282 c 0,18,19
 393 208 393 208 404.5 162 c 128,-1,20
 416 116 416 116 430.5 100.5 c 128,-1,21
 445 85 445 85 464 85 c 0,22,23
 545 85 545 85 645.5 148 c 128,-1,24
 746 211 746 211 814 312 c 1,25,-1
 834 293 l 1,26,27
 771 181 771 181 654 86 c 0,28,29
 597 39 597 39 526 10.5 c 128,-1,30
 455 -18 455 -18 383 -18 c 0,0,1
EndSplineSet
EndChar

StartChar: d
Encoding: 100 100 72
Width: 973
GlyphClass: 2
Flags: W
LayerCount: 2
Fore
SplineSet
687 869 m 2,0,-1
 699 869 l 1,1,2
 710 975 710 975 719.5 1050 c 128,-1,3
 729 1125 729 1125 771 1201 c 128,-1,4
 813 1277 813 1277 876.5 1339 c 128,-1,5
 940 1401 940 1401 1028.5 1439.5 c 128,-1,6
 1117 1478 1117 1478 1212 1478 c 0,7,8
 1270 1478 1270 1478 1317 1468 c 1,9,10
 1317 1432 1317 1432 1303 1391 c 128,-1,11
 1289 1350 1289 1350 1267 1325 c 1,12,13
 1140 1368 1140 1368 1073 1368 c 0,14,15
 1042 1368 1042 1368 1018.5 1356.5 c 128,-1,16
 995 1345 995 1345 977 1314.5 c 128,-1,17
 959 1284 959 1284 946.5 1247 c 128,-1,18
 934 1210 934 1210 923 1143 c 0,19,20
 906 1042 906 1042 886 824 c 128,-1,21
 866 606 866 606 797 115 c 1,22,-1
 804 111 l 1,23,24
 858 140 858 140 904 189.5 c 128,-1,25
 950 239 950 239 1003 312 c 1,26,-1
 1023 299 l 1,27,28
 987 225 987 225 933 155 c 128,-1,29
 879 85 879 85 812 34 c 128,-1,30
 745 -17 745 -17 690 -17 c 0,31,32
 653 -17 653 -17 628.5 1 c 128,-1,33
 604 19 604 19 604 43.5 c 128,-1,34
 604 68 604 68 617.5 140 c 128,-1,35
 631 212 631 212 632 226 c 1,36,-1
 627 227 l 1,37,38
 480 -17 480 -17 306 -17 c 0,39,40
 234 -17 234 -17 194 57.5 c 128,-1,41
 154 132 154 132 154 239.5 c 128,-1,42
 154 347 154 347 179.5 438.5 c 128,-1,43
 205 530 205 530 253.5 607 c 128,-1,44
 302 684 302 684 366.5 743 c 128,-1,45
 431 802 431 802 514 835.5 c 128,-1,46
 597 869 597 869 687 869 c 2,0,-1
689 743 m 1,47,48
 639 761 639 761 580.5 761 c 128,-1,49
 522 761 522 761 477.5 719 c 128,-1,50
 433 677 433 677 408 606 c 0,51,52
 357 465 357 465 357 268 c 0,53,54
 357 138 357 138 427 138 c 0,55,56
 509 138 509 138 576 226 c 128,-1,57
 643 314 643 314 655 424 c 2,58,-1
 689 743 l 1,47,48
EndSplineSet
EndChar

StartChar: e
Encoding: 101 101 73
Width: 776
GlyphClass: 2
Flags: W
LayerCount: 2
Fore
SplineSet
649 723 m 0,0,1
 649 791 649 791 584 791 c 0,2,3
 549 791 549 791 514 761 c 128,-1,4
 479 731 479 731 456 680 c 1,5,6
 409 581 409 581 395 444 c 1,7,8
 514 476 514 476 581.5 548.5 c 128,-1,9
 649 621 649 621 649 723 c 0,0,1
515.5 853.5 m 128,-1,11
 596 894 596 894 678.5 894 c 128,-1,12
 761 894 761 894 802.5 856 c 128,-1,13
 844 818 844 818 844 756 c 0,14,15
 844 618 844 618 722 530.5 c 128,-1,16
 600 443 600 443 390 405 c 1,17,18
 384 337 384 337 384 265 c 128,-1,19
 384 193 384 193 402 139 c 128,-1,20
 420 85 420 85 454 85 c 0,21,22
 533 85 533 85 630 143.5 c 128,-1,23
 727 202 727 202 805 312 c 1,24,-1
 825 293 l 1,25,26
 738 149 738 149 619.5 66 c 128,-1,27
 501 -17 501 -17 376 -17 c 0,28,29
 269 -17 269 -17 217.5 52.5 c 128,-1,30
 166 122 166 122 166 237 c 0,31,32
 166 322 166 322 191 414.5 c 128,-1,33
 216 507 216 507 263.5 592 c 128,-1,34
 311 677 311 677 373 745 c 128,-1,10
 435 813 435 813 515.5 853.5 c 128,-1,11
EndSplineSet
EndChar

StartChar: f
Encoding: 102 102 74
Width: 731
GlyphClass: 2
Flags: W
LayerCount: 2
Fore
SplineSet
991 1478 m 0,0,1
 1097 1478 1097 1478 1176 1446 c 1,2,3
 1176 1412 1176 1412 1155.5 1369 c 128,-1,4
 1135 1326 1135 1326 1106 1302 c 1,5,6
 946 1372 946 1372 876 1372 c 0,7,8
 782 1372 782 1372 738 1276 c 0,9,10
 715 1227 715 1227 700.5 1168 c 128,-1,11
 686 1109 686 1109 672 1020 c 2,12,-1
 649 866 l 1,13,-1
 940 879 l 1,14,15
 912 820 912 820 890 813 c 0,16,17
 859 804 859 804 637 787 c 1,18,-1
 537 131 l 2,19,20
 518 7 518 7 484.5 -81.5 c 128,-1,21
 451 -170 451 -170 393 -238 c 0,22,23
 278 -373 278 -373 27 -373 c 0,24,25
 -38 -373 -38 -373 -115 -357 c 1,26,27
 -113 -308 -113 -308 -95 -266.5 c 128,-1,28
 -77 -225 -77 -225 -45 -207 c 1,29,30
 2 -223 2 -223 71 -239 c 128,-1,31
 140 -255 140 -255 181 -255 c 0,32,33
 240 -255 240 -255 267 -209 c 128,-1,34
 294 -163 294 -163 315 -35 c 2,35,-1
 446 776 l 1,36,-1
 220 771 l 1,37,38
 236 831 236 831 277 855 c 1,39,40
 378 856 378 856 459 858 c 1,41,-1
 479 990 l 2,42,43
 513 1211 513 1211 654 1344.5 c 128,-1,44
 795 1478 795 1478 991 1478 c 0,0,1
EndSplineSet
EndChar

StartChar: g
Encoding: 103 103 75
Width: 901
GlyphClass: 2
Flags: W
LayerCount: 2
Fore
SplineSet
457 -353 m 128,-1,1
 375 -373 375 -373 256.5 -373 c 128,-1,2
 138 -373 138 -373 48 -342 c 1,3,4
 50 -287 50 -287 72 -239.5 c 128,-1,5
 94 -192 94 -192 130 -171 c 1,6,7
 200 -206 200 -206 291 -235 c 128,-1,8
 382 -264 382 -264 444.5 -264 c 128,-1,9
 507 -264 507 -264 541 -217 c 128,-1,10
 575 -170 575 -170 594 -51 c 2,11,-1
 640 226 l 1,12,-1
 635 227 l 1,13,14
 571 121 571 121 531 78 c 0,15,16
 484 28 484 28 440 8 c 0,17,18
 382 -18 382 -18 315 -18 c 0,19,20
 162 -18 162 -18 162 209 c 0,21,22
 162 392 162 392 237 544.5 c 128,-1,23
 312 697 312 697 439.5 783 c 128,-1,24
 567 869 567 869 718 869 c 0,25,26
 746 869 746 869 779.5 862.5 c 128,-1,27
 813 856 813 856 829 856 c 128,-1,28
 845 856 845 856 931 870 c 1,29,30
 874 724 874 724 854 534 c 0,31,32
 847 472 847 472 836.5 352.5 c 128,-1,33
 826 233 826 233 819 175 c 128,-1,34
 812 117 812 117 794.5 23 c 128,-1,35
 777 -71 777 -71 754.5 -116 c 128,-1,36
 732 -161 732 -161 691 -220.5 c 128,-1,37
 650 -280 650 -280 594.5 -306.5 c 128,-1,0
 539 -333 539 -333 457 -353 c 128,-1,1
609 761 m 0,38,39
 482 761 482 761 424.5 628.5 c 128,-1,40
 367 496 367 496 367 244 c 0,41,42
 367 182 367 182 383.5 145 c 128,-1,43
 400 108 400 108 429 108 c 0,44,45
 514 108 514 108 581.5 208.5 c 128,-1,46
 649 309 649 309 665 445 c 2,47,-1
 698 742 l 1,48,49
 651 761 651 761 609 761 c 0,38,39
EndSplineSet
EndChar

StartChar: h
Encoding: 104 104 76
Width: 981
GlyphClass: 2
Flags: W
LayerCount: 2
Fore
SplineSet
868 1322 m 1,0,1
 730 1368 730 1368 656 1368 c 0,2,3
 575 1368 575 1368 534 1260 c 0,4,5
 498 1164 498 1164 476 957 c 2,6,-1
 443 638 l 1,7,-1
 450 637 l 1,8,9
 531 747 531 747 621 820.5 c 128,-1,10
 711 894 711 894 793 894 c 0,11,12
 845 894 845 894 880 861.5 c 128,-1,13
 915 829 915 829 915 775 c 0,14,15
 915 686 915 686 860 403 c 0,16,17
 852 365 852 365 835.5 267 c 128,-1,18
 819 169 819 169 807 115 c 1,19,-1
 814 111 l 1,20,21
 919 168 919 168 1023 312 c 1,22,-1
 1043 299 l 1,23,24
 1014 233 1014 233 959 161 c 128,-1,25
 904 89 904 89 833.5 36 c 128,-1,26
 763 -17 763 -17 714 -17 c 128,-1,27
 665 -17 665 -17 638 7.5 c 128,-1,28
 611 32 611 32 611 65 c 0,29,30
 611 206 611 206 677 555 c 0,31,32
 684 592 684 592 688 610 c 0,33,34
 697 652 697 652 697 697 c 128,-1,35
 697 742 697 742 676 742 c 0,36,37
 614 742 614 742 545 665 c 0,38,39
 478 590 478 590 428 421 c 0,40,41
 378 249 378 249 378 -8 c 1,42,43
 356 -17 356 -17 301 -17 c 128,-1,44
 246 -17 246 -17 212 -0.5 c 128,-1,45
 178 16 178 16 178 61 c 0,46,47
 178 244 178 244 248 750 c 0,48,49
 280 986 280 986 288.5 1055 c 128,-1,50
 297 1124 297 1124 338.5 1200 c 128,-1,51
 380 1276 380 1276 443.5 1338 c 128,-1,52
 507 1400 507 1400 597.5 1439 c 128,-1,53
 688 1478 688 1478 774 1478 c 128,-1,54
 860 1478 860 1478 918 1465 c 1,55,56
 918 1427 918 1427 905 1386.5 c 128,-1,57
 892 1346 892 1346 868 1322 c 1,0,1
EndSplineSet
EndChar

StartChar: i
Encoding: 105 105 77
Width: 516
GlyphClass: 2
Flags: W
LayerCount: 2
Fore
SplineSet
383 1151 m 0,0,1
 383 1224 383 1224 423 1270.5 c 128,-1,2
 463 1317 463 1317 540 1317 c 1,3,4
 576 1274 576 1274 576 1211 c 128,-1,5
 576 1148 576 1148 528 1105 c 128,-1,6
 480 1062 480 1062 397 1062 c 1,7,8
 383 1104 383 1104 383 1151 c 0,0,1
327 -19 m 0,9,10
 280 -19 280 -19 251.5 0 c 128,-1,11
 223 19 223 19 223 56 c 0,12,13
 223 164 223 164 267 429.5 c 128,-1,14
 311 695 311 695 315 770 c 1,15,-1
 309 772 l 1,16,17
 264 753 264 753 219 710 c 0,18,19
 203 694 203 694 177 667 c 1,20,-1
 162 679 l 1,21,22
 293 894 293 894 427 894 c 0,23,24
 475 894 475 894 495.5 870 c 128,-1,25
 516 846 516 846 516 790.5 c 128,-1,26
 516 735 516 735 502 650 c 0,27,28
 429 209 429 209 414 103 c 1,29,-1
 418 100 l 1,30,31
 468 119 468 119 535 179 c 128,-1,32
 602 239 602 239 650 308 c 1,33,-1
 667 297 l 1,34,35
 608 191 608 191 501 86 c 128,-1,36
 394 -19 394 -19 327 -19 c 0,9,10
EndSplineSet
EndChar

StartChar: j
Encoding: 106 106 78
Width: 485
GlyphClass: 2
Flags: W
LayerCount: 2
Fore
SplineSet
397 1151 m 0,0,1
 397 1224 397 1224 437 1270.5 c 128,-1,2
 477 1317 477 1317 554 1317 c 1,3,4
 590 1274 590 1274 590 1211 c 128,-1,5
 590 1148 590 1148 542 1105 c 128,-1,6
 494 1062 494 1062 411 1062 c 1,7,8
 397 1104 397 1104 397 1151 c 0,0,1
441 894 m 0,9,10
 489 894 489 894 509.5 870 c 128,-1,11
 530 846 530 846 530 790.5 c 128,-1,12
 530 735 530 735 496 521 c 128,-1,13
 462 307 462 307 432 158.5 c 128,-1,14
 402 10 402 10 377 -60 c 128,-1,15
 352 -130 352 -130 312.5 -191.5 c 128,-1,16
 273 -253 273 -253 220 -292 c 1,17,18
 106 -373 106 -373 -85 -373 c 0,19,20
 -150 -373 -150 -373 -227 -357 c 1,21,22
 -225 -308 -225 -308 -207 -266.5 c 128,-1,23
 -189 -225 -189 -225 -157 -207 c 1,24,25
 -18 -255 -18 -255 69 -255 c 0,26,27
 127 -255 127 -255 158.5 -205.5 c 128,-1,28
 190 -156 190 -156 210 -40 c 0,29,30
 293 453 293 453 329 770 c 1,31,-1
 323 772 l 1,32,33
 278 753 278 753 233 710 c 0,34,35
 217 694 217 694 191 667 c 1,36,-1
 176 679 l 1,37,38
 307 894 307 894 441 894 c 0,9,10
EndSplineSet
EndChar

StartChar: k
Encoding: 107 107 79
Width: 961
GlyphClass: 2
Flags: W
LayerCount: 2
Fore
SplineSet
382 -10 m 0,0,1
 382 -18 382 -18 312 -18 c 0,2,3
 180 -18 180 -18 180 62 c 0,4,5
 180 158 180 158 213.5 458.5 c 128,-1,6
 247 759 247 759 290 1053 c 0,7,8
 301 1128 301 1128 345 1204 c 128,-1,9
 389 1280 389 1280 453.5 1341 c 128,-1,10
 518 1402 518 1402 605.5 1440 c 128,-1,11
 693 1478 693 1478 784 1478 c 0,12,13
 842 1478 842 1478 918 1465 c 1,14,15
 918 1432 918 1432 904.5 1386.5 c 128,-1,16
 891 1341 891 1341 868 1322 c 1,17,18
 866 1322 866 1322 836 1332 c 128,-1,19
 806 1342 806 1342 792.5 1345.5 c 128,-1,20
 779 1349 779 1349 752 1356 c 0,21,22
 702 1368 702 1368 661 1368 c 128,-1,23
 620 1368 620 1368 588.5 1343 c 128,-1,24
 557 1318 557 1318 537 1270 c 0,25,26
 501 1183 501 1183 482 1034 c 2,27,-1
 438 697 l 1,28,29
 569 894 569 894 770 894 c 0,30,31
 846 894 846 894 887 862 c 128,-1,32
 928 830 928 830 928 770 c 0,33,34
 928 576 928 576 631 497 c 1,35,36
 653 454 653 454 725 298 c 128,-1,37
 797 142 797 142 820 98 c 1,38,39
 948 175 948 175 1045 311 c 1,40,-1
 1066 299 l 1,41,42
 1009 179 1009 179 909.5 80.5 c 128,-1,43
 810 -18 810 -18 728 -18 c 0,44,45
 680 -18 680 -18 650.5 12 c 128,-1,46
 621 42 621 42 593 112 c 0,47,48
 500 343 500 343 436 454 c 1,49,-1
 441 468 l 1,50,51
 719 553 719 553 719 746 c 0,52,53
 719 807 719 807 673 807 c 0,54,55
 582 807 582 807 506 713 c 128,-1,56
 430 619 430 619 415 477 c 0,57,58
 382 166 382 166 382 -10 c 0,0,1
EndSplineSet
EndChar

StartChar: l
Encoding: 108 108 80
Width: 573
GlyphClass: 2
Flags: W
LayerCount: 2
Fore
SplineSet
612.5 1439 m 128,-1,1
 703 1478 703 1478 787.5 1478 c 128,-1,2
 872 1478 872 1478 931 1465 c 1,3,4
 931 1427 931 1427 918 1386.5 c 128,-1,5
 905 1346 905 1346 881 1322 c 1,6,7
 874 1324 874 1324 842 1334 c 128,-1,8
 810 1344 810 1344 797 1347.5 c 128,-1,9
 784 1351 784 1351 758 1357 c 0,10,11
 712 1368 712 1368 678 1368 c 128,-1,12
 644 1368 644 1368 621 1355.5 c 128,-1,13
 598 1343 598 1343 579.5 1316.5 c 128,-1,14
 561 1290 561 1290 547 1256.5 c 128,-1,15
 533 1223 533 1223 522 1172 c 1,16,17
 503 1092 503 1092 483 947 c 0,18,19
 430 553 430 553 391 115 c 1,20,-1
 398 111 l 1,21,22
 503 168 503 168 607 312 c 1,23,-1
 627 299 l 1,24,25
 598 233 598 233 543 161 c 128,-1,26
 488 89 488 89 417.5 36 c 128,-1,27
 347 -17 347 -17 298 -17 c 128,-1,28
 249 -17 249 -17 221 5.5 c 128,-1,29
 193 28 193 28 193 65 c 0,30,31
 193 182 193 182 215 367 c 128,-1,32
 237 552 237 552 248.5 641.5 c 128,-1,33
 260 731 260 731 279 870 c 128,-1,34
 298 1009 298 1009 303 1049 c 0,35,36
 313 1124 313 1124 354 1200 c 128,-1,37
 395 1276 395 1276 458.5 1338 c 128,-1,0
 522 1400 522 1400 612.5 1439 c 128,-1,1
EndSplineSet
EndChar

StartChar: m
Encoding: 109 109 81
Width: 1391
GlyphClass: 2
Flags: W
LayerCount: 2
Fore
SplineSet
547 822 m 0,0,1
 547 750 547 750 524 640 c 1,2,-1
 527 639 l 1,3,4
 729 894 729 894 864 894 c 0,5,6
 919 894 919 894 952 864 c 128,-1,7
 985 834 985 834 985 782 c 128,-1,8
 985 730 985 730 968 640 c 1,9,-1
 971 639 l 1,10,11
 1056 755 1056 755 1135 824.5 c 128,-1,12
 1214 894 1214 894 1292 894 c 0,13,14
 1344 894 1344 894 1379 861.5 c 128,-1,15
 1414 829 1414 829 1414 775 c 0,16,17
 1414 686 1414 686 1359 403 c 0,18,19
 1351 365 1351 365 1334.5 267 c 128,-1,20
 1318 169 1318 169 1306 115 c 1,21,-1
 1313 111 l 1,22,23
 1418 168 1418 168 1522 312 c 1,24,-1
 1542 299 l 1,25,26
 1513 233 1513 233 1458 161 c 128,-1,27
 1403 89 1403 89 1332.5 36 c 128,-1,28
 1262 -17 1262 -17 1213 -17 c 128,-1,29
 1164 -17 1164 -17 1137 7.5 c 128,-1,30
 1110 32 1110 32 1110 65 c 0,31,32
 1110 206 1110 206 1176 555 c 0,33,34
 1183 592 1183 592 1187 610 c 0,35,36
 1196 652 1196 652 1196 697 c 128,-1,37
 1196 742 1196 742 1175 742 c 0,38,39
 1127 742 1127 742 1077.5 697 c 128,-1,40
 1028 652 1028 652 983.5 565.5 c 128,-1,41
 939 479 939 479 910.5 329 c 128,-1,42
 882 179 882 179 882 -8 c 0,43,44
 882 -17 882 -17 830 -17 c 0,45,46
 678 -17 678 -17 678 48 c 0,47,48
 678 173 678 173 736 486 c 0,49,50
 765 647 765 647 765 704 c 0,51,52
 765 742 765 742 744 742 c 0,53,54
 692 742 692 742 640.5 698.5 c 128,-1,55
 589 655 589 655 544 569 c 128,-1,56
 499 483 499 483 471 333 c 128,-1,57
 443 183 443 183 443 -8 c 0,58,59
 443 -17 443 -17 383.5 -17 c 128,-1,60
 324 -17 324 -17 283 2.5 c 128,-1,61
 242 22 242 22 242 60 c 0,62,63
 242 158 242 158 300 457 c 1,64,65
 338 637 338 637 344.5 689.5 c 128,-1,66
 351 742 351 742 352 767 c 1,67,-1
 349 769 l 1,68,69
 319 758 319 758 273.5 723 c 128,-1,70
 228 688 228 688 191 647 c 1,71,-1
 170 661 l 1,72,73
 270 826 270 826 364 872 c 0,74,75
 410 894 410 894 454 894 c 128,-1,76
 498 894 498 894 522.5 871 c 128,-1,77
 547 848 547 848 547 822 c 0,0,1
EndSplineSet
EndChar

StartChar: n
Encoding: 110 110 82
Width: 1024
GlyphClass: 2
Flags: W
LayerCount: 2
Fore
SplineSet
364 872 m 0,0,1
 410 894 410 894 454 894 c 128,-1,2
 498 894 498 894 523 869 c 128,-1,3
 548 844 548 844 548 821 c 128,-1,4
 548 798 548 798 545.5 773 c 128,-1,5
 543 748 543 748 540 730.5 c 128,-1,6
 537 713 537 713 531.5 683 c 128,-1,7
 526 653 526 653 524 639 c 1,8,-1
 527 638 l 1,9,10
 605 745 605 745 697.5 819.5 c 128,-1,11
 790 894 790 894 866 894 c 0,12,13
 918 894 918 894 953 861.5 c 128,-1,14
 988 829 988 829 988 775 c 0,15,16
 988 686 988 686 933 403 c 0,17,18
 925 365 925 365 908.5 267 c 128,-1,19
 892 169 892 169 880 115 c 1,20,-1
 887 111 l 1,21,22
 992 168 992 168 1096 312 c 1,23,-1
 1116 299 l 1,24,25
 1087 233 1087 233 1032 161 c 128,-1,26
 977 89 977 89 906.5 36 c 128,-1,27
 836 -17 836 -17 787 -17 c 128,-1,28
 738 -17 738 -17 711 7.5 c 128,-1,29
 684 32 684 32 684 65 c 0,30,31
 684 206 684 206 750 555 c 0,32,33
 757 592 757 592 761 610 c 0,34,35
 770 652 770 652 770 697 c 128,-1,36
 770 742 770 742 749 742 c 0,37,38
 687 742 687 742 618 665 c 0,39,40
 551 590 551 590 502 421 c 1,41,42
 451 249 451 249 451 -8 c 0,43,44
 451 -17 451 -17 399 -17 c 0,45,46
 247 -17 247 -17 247 48 c 0,47,48
 247 220 247 220 314 546 c 0,49,50
 346 699 346 699 357 766 c 1,51,-1
 352 769 l 1,52,53
 321 758 321 758 274.5 722.5 c 128,-1,54
 228 687 228 687 191 647 c 1,55,-1
 170 661 l 1,56,57
 270 826 270 826 364 872 c 0,0,1
EndSplineSet
EndChar

StartChar: o
Encoding: 111 111 83
Width: 856
GlyphClass: 2
Flags: W
LayerCount: 2
Fore
SplineSet
679 890 m 0,0,1
 943 890 943 890 943 595 c 0,2,3
 943 480 943 480 896 367 c 128,-1,4
 849 254 849 254 774.5 171 c 128,-1,5
 700 88 700 88 604 36.5 c 128,-1,6
 508 -15 508 -15 414 -15 c 0,7,8
 298 -15 298 -15 236 56 c 128,-1,9
 174 127 174 127 174 271 c 0,10,11
 174 384 174 384 213 495.5 c 128,-1,12
 252 607 252 607 318 694.5 c 128,-1,13
 384 782 384 782 479.5 836 c 128,-1,14
 575 890 575 890 679 890 c 0,0,1
698.5 736 m 128,-1,16
 671 820 671 820 613.5 820 c 128,-1,17
 556 820 556 820 504.5 743.5 c 128,-1,18
 453 667 453 667 425.5 550.5 c 128,-1,19
 398 434 398 434 398 311 c 0,20,21
 398 58 398 58 486 58 c 0,22,23
 576 58 576 58 651 193.5 c 128,-1,24
 726 329 726 329 726 490.5 c 128,-1,15
 726 652 726 652 698.5 736 c 128,-1,16
EndSplineSet
EndChar

StartChar: p
Encoding: 112 112 84
Width: 983
GlyphClass: 2
Flags: W
LayerCount: 2
Fore
SplineSet
352 872 m 0,0,1
 398 894 398 894 442 894 c 128,-1,2
 486 894 486 894 511 868 c 128,-1,3
 536 842 536 842 536 812 c 2,4,-1
 536 738 l 1,5,6
 598 816 598 816 654 855 c 128,-1,7
 710 894 710 894 781 894 c 0,8,9
 901 894 901 894 958 811.5 c 128,-1,10
 1015 729 1015 729 1015 602 c 128,-1,11
 1015 475 1015 475 972 362 c 128,-1,12
 929 249 929 249 859 167.5 c 128,-1,13
 789 86 789 86 696 36.5 c 128,-1,14
 603 -13 603 -13 506 -13 c 0,15,16
 449 -13 449 -13 405 8 c 1,17,18
 400 -29 400 -29 390 -88 c 0,19,20
 370 -208 370 -208 370 -234 c 128,-1,21
 370 -260 370 -260 382 -272 c 128,-1,22
 394 -284 394 -284 416.5 -289 c 128,-1,23
 439 -294 439 -294 457.5 -296.5 c 128,-1,24
 476 -299 476 -299 504 -300 c 128,-1,25
 532 -301 532 -301 540 -302 c 1,26,-1
 523 -357 l 1,27,28
 414 -347 414 -347 283.5 -347 c 128,-1,29
 153 -347 153 -347 -24 -367 c 1,30,-1
 -11 -312 l 1,31,32
 65 -304 65 -304 100.5 -285.5 c 128,-1,33
 136 -267 136 -267 154 -223 c 0,34,35
 191 -132 191 -132 224.5 36.5 c 128,-1,36
 258 205 258 205 295 449 c 128,-1,37
 332 693 332 693 345 766 c 1,38,-1
 340 769 l 1,39,40
 309 758 309 758 262.5 722.5 c 128,-1,41
 216 687 216 687 179 647 c 1,42,-1
 158 661 l 1,43,44
 258 826 258 826 352 872 c 0,0,1
771.5 712 m 128,-1,46
 745 772 745 772 690.5 772 c 128,-1,47
 636 772 636 772 590.5 724 c 128,-1,48
 545 676 545 676 516 586 c 128,-1,49
 487 496 487 496 470.5 394 c 128,-1,50
 454 292 454 292 454 214 c 0,51,52
 454 56 454 56 558 56 c 0,53,54
 616 56 616 56 671.5 119.5 c 128,-1,55
 727 183 727 183 762.5 292 c 128,-1,56
 798 401 798 401 798 526.5 c 128,-1,45
 798 652 798 652 771.5 712 c 128,-1,46
EndSplineSet
EndChar

StartChar: q
Encoding: 113 113 85
Width: 901
GlyphClass: 2
Flags: W
LayerCount: 2
Fore
SplineSet
688 743 m 1,0,1
 644 761 644 761 584 761 c 128,-1,2
 524 761 524 761 479.5 719 c 128,-1,3
 435 677 435 677 410 606 c 0,4,5
 359 465 359 465 359 268 c 0,6,7
 359 216 359 216 378 182 c 128,-1,8
 397 148 397 148 432 148 c 0,9,10
 515 148 515 148 580.5 232 c 128,-1,11
 646 316 646 316 657 424 c 2,12,-1
 688 743 l 1,0,1
311 -7 m 0,13,14
 240 -7 240 -7 198 68 c 128,-1,15
 156 143 156 143 156 252 c 0,16,17
 156 411 156 411 223 552 c 128,-1,18
 290 693 290 693 413 781 c 128,-1,19
 536 869 536 869 685 869 c 0,20,21
 791 869 791 869 899 858 c 1,22,23
 883 676 883 676 819 256.5 c 128,-1,24
 755 -163 755 -163 755 -242 c 0,25,26
 755 -292 755 -292 836 -298 c 0,27,28
 848 -299 848 -299 867.5 -300 c 128,-1,29
 887 -301 887 -301 895 -302 c 1,30,-1
 878 -357 l 1,31,32
 769 -347 769 -347 638.5 -347 c 128,-1,33
 508 -347 508 -347 331 -367 c 1,34,-1
 344 -312 l 1,35,36
 438 -304 438 -304 476.5 -285 c 128,-1,37
 515 -266 515 -266 535.5 -228.5 c 128,-1,38
 556 -191 556 -191 571.5 -131.5 c 128,-1,39
 587 -72 587 -72 595.5 -21 c 128,-1,40
 604 30 604 30 616 111 c 128,-1,41
 628 192 628 192 634 226 c 1,42,-1
 629 227 l 1,43,44
 563 117 563 117 488.5 55 c 128,-1,45
 414 -7 414 -7 311 -7 c 0,13,14
EndSplineSet
EndChar

StartChar: r
Encoding: 114 114 86
Width: 690
GlyphClass: 2
Flags: W
LayerCount: 2
Fore
SplineSet
858 902 m 2,0,-1
 876 902 l 1,1,2
 876 854 876 854 861 793.5 c 128,-1,3
 846 733 846 733 823 699 c 1,4,5
 754 699 754 699 698.5 678 c 128,-1,6
 643 657 643 657 593.5 606.5 c 128,-1,7
 544 556 544 556 511 476 c 0,8,9
 440 305 440 305 440 -8 c 0,10,11
 440 -17 440 -17 374.5 -17 c 128,-1,12
 309 -17 309 -17 272 -1.5 c 128,-1,13
 235 14 235 14 235 52 c 0,14,15
 235 180 235 180 286 421.5 c 128,-1,16
 337 663 337 663 344 780 c 1,17,-1
 334 786 l 1,18,19
 272 749 272 749 185 653 c 1,20,-1
 168 667 l 1,21,22
 307 894 307 894 457 894 c 0,23,24
 498 894 498 894 520.5 869.5 c 128,-1,25
 543 845 543 845 543 813.5 c 128,-1,26
 543 782 543 782 511 597 c 1,27,-1
 515 596 l 1,28,29
 689 902 689 902 858 902 c 2,0,-1
EndSplineSet
EndChar

StartChar: s
Encoding: 115 115 87
Width: 717
GlyphClass: 2
Flags: W
LayerCount: 2
Fore
SplineSet
346.5 827 m 128,-1,1
 439 894 439 894 578.5 894 c 128,-1,2
 718 894 718 894 823 835 c 1,3,4
 801 744 801 744 739 692 c 1,5,6
 661 825 661 825 562 825 c 0,7,8
 513 825 513 825 481 796 c 128,-1,9
 449 767 449 767 449 714 c 0,10,11
 449 670 449 670 474 636 c 0,12,13
 498 605 498 605 536 574 c 2,14,-1
 564 552 l 2,15,16
 585 536 585 536 614 513.5 c 128,-1,17
 643 491 643 491 667.5 468.5 c 128,-1,18
 692 446 692 446 720 412.5 c 128,-1,19
 748 379 748 379 759 343 c 128,-1,20
 770 307 770 307 770 261 c 0,21,22
 770 135 770 135 674.5 61 c 128,-1,23
 579 -13 579 -13 443 -13 c 0,24,25
 252 -13 252 -13 129 100 c 1,26,27
 157 199 157 199 232 247 c 1,28,29
 278 174 278 174 340.5 117 c 128,-1,30
 403 60 403 60 459 60 c 128,-1,31
 515 60 515 60 546.5 89.5 c 128,-1,32
 578 119 578 119 578 170 c 128,-1,33
 578 221 578 221 544.5 267 c 128,-1,34
 511 313 511 313 463.5 351.5 c 128,-1,35
 416 390 416 390 368.5 430.5 c 128,-1,36
 321 471 321 471 287.5 524 c 128,-1,37
 254 577 254 577 254 635 c 0,38,0
 254 760 254 760 346.5 827 c 128,-1,1
EndSplineSet
EndChar

StartChar: t
Encoding: 116 116 88
Width: 696
GlyphClass: 2
Flags: W
LayerCount: 2
Fore
SplineSet
295 65 m 0,0,1
 295 125 295 125 326 388.5 c 128,-1,2
 357 652 357 652 379 800 c 1,3,4
 321 798 321 798 219 787 c 1,5,6
 229 835 229 835 260 858 c 1,7,-1
 384 870 l 1,8,-1
 392 982 l 2,9,10
 396 1033 396 1033 446 1058 c 128,-1,11
 496 1083 496 1083 604 1083 c 1,12,-1
 584 875 l 1,13,-1
 858 875 l 1,14,15
 844 826 844 826 807 801 c 1,16,-1
 578 801 l 1,17,-1
 498 115 l 1,18,-1
 507 110 l 1,19,20
 631 185 631 185 724 312 c 1,21,-1
 744 299 l 1,22,23
 714 237 714 237 655.5 164.5 c 128,-1,24
 597 92 597 92 523 36.5 c 128,-1,25
 449 -19 449 -19 400 -19 c 128,-1,26
 351 -19 351 -19 323 6.5 c 128,-1,27
 295 32 295 32 295 65 c 0,0,1
EndSplineSet
EndChar

StartChar: u
Encoding: 117 117 89
Width: 1020
GlyphClass: 2
Flags: W
LayerCount: 2
Fore
SplineSet
462 894 m 0,0,1
 506 894 506 894 527.5 870 c 128,-1,2
 549 846 549 846 549 811 c 0,3,4
 549 715 549 715 509.5 477 c 128,-1,5
 470 239 470 239 470 147 c 0,6,7
 470 106 470 106 503 106 c 0,8,9
 562 106 562 106 624 164 c 1,10,11
 749 277 749 277 774 515 c 1,12,13
 798 772 798 772 798 874 c 0,14,15
 798 894 798 894 871.5 894 c 128,-1,16
 945 894 945 894 970 879 c 128,-1,17
 995 864 995 864 995 820 c 0,18,19
 995 672 995 672 946 400 c 128,-1,20
 897 128 897 128 894 115 c 1,21,-1
 901 111 l 1,22,23
 1006 169 1006 169 1110 312 c 1,24,-1
 1130 299 l 1,25,26
 1101 238 1101 238 1046.5 167 c 128,-1,27
 992 96 992 96 919.5 39.5 c 128,-1,28
 847 -17 847 -17 791 -17 c 0,29,30
 754 -17 754 -17 728 0.5 c 128,-1,31
 702 18 702 18 702 41.5 c 128,-1,32
 702 65 702 65 719 131 c 128,-1,33
 736 197 736 197 739 226 c 1,34,-1
 734 227 l 1,35,36
 656 107 656 107 571 45 c 128,-1,37
 486 -17 486 -17 373 -17 c 0,38,39
 321 -17 321 -17 286.5 17.5 c 128,-1,40
 252 52 252 52 252 106 c 0,41,42
 252 222 252 222 297 445 c 128,-1,43
 342 668 342 668 349 767 c 1,44,-1
 346 769 l 1,45,46
 312 755 312 755 268 720.5 c 128,-1,47
 224 686 224 686 188 647 c 1,48,-1
 168 661 l 1,49,50
 224 763 224 763 299 828.5 c 128,-1,51
 374 894 374 894 462 894 c 0,0,1
EndSplineSet
EndChar

StartChar: v
Encoding: 118 118 90
Width: 963
GlyphClass: 2
Flags: W
LayerCount: 2
Fore
SplineSet
441 894 m 0,0,1
 507 894 507 894 526.5 857 c 128,-1,2
 546 820 546 820 546 739 c 128,-1,3
 546 658 546 658 528.5 484.5 c 128,-1,4
 511 311 511 311 511 262.5 c 128,-1,5
 511 214 511 214 513 191 c 128,-1,6
 515 168 515 168 520 144 c 0,7,8
 532 96 532 96 571 96 c 128,-1,9
 610 96 610 96 671.5 139.5 c 128,-1,10
 733 183 733 183 793 252.5 c 128,-1,11
 853 322 853 322 896.5 424.5 c 128,-1,12
 940 527 940 527 940 628 c 0,13,14
 940 651 940 651 938.5 668.5 c 128,-1,15
 937 686 937 686 913.5 709.5 c 128,-1,16
 890 733 890 733 863 750 c 128,-1,17
 836 767 836 767 814 795 c 128,-1,18
 792 823 792 823 792 855 c 0,19,20
 792 901 792 901 842 901 c 0,21,22
 904 901 904 901 959.5 876 c 128,-1,23
 1015 851 1015 851 1019 803 c 0,24,25
 1022 772 1022 772 1022 740 c 0,26,27
 1022 620 1022 620 984.5 501.5 c 128,-1,28
 947 383 947 383 886 290.5 c 128,-1,29
 825 198 825 198 751 126 c 128,-1,30
 677 54 677 54 599 15 c 128,-1,31
 521 -24 521 -24 454 -24 c 0,32,33
 361 -24 361 -24 327.5 35.5 c 128,-1,34
 294 95 294 95 294 238 c 0,35,36
 294 315 294 315 308 494 c 128,-1,37
 322 673 322 673 322 775 c 1,38,-1
 312 783 l 1,39,-1
 145 695 l 1,40,-1
 132 709 l 1,41,42
 283 894 283 894 441 894 c 0,0,1
EndSplineSet
EndChar

StartChar: w
Encoding: 119 119 91
Width: 1479
GlyphClass: 2
Flags: W
LayerCount: 2
Fore
SplineSet
871 855.5 m 128,-1,1
 895 894 895 894 958 894 c 128,-1,2
 1021 894 1021 894 1043.5 861 c 128,-1,3
 1066 828 1066 828 1066 754 c 128,-1,4
 1066 680 1066 680 1050.5 507.5 c 128,-1,5
 1035 335 1035 335 1035 256 c 128,-1,6
 1035 177 1035 177 1045.5 136.5 c 128,-1,7
 1056 96 1056 96 1086 96 c 128,-1,8
 1116 96 1116 96 1160 123 c 128,-1,9
 1204 150 1204 150 1252 201 c 128,-1,10
 1300 252 1300 252 1341.5 316 c 128,-1,11
 1383 380 1383 380 1410 463 c 128,-1,12
 1437 546 1437 546 1437 628 c 0,13,14
 1437 651 1437 651 1435.5 668.5 c 128,-1,15
 1434 686 1434 686 1410.5 709.5 c 128,-1,16
 1387 733 1387 733 1360 750 c 128,-1,17
 1333 767 1333 767 1310.5 795 c 128,-1,18
 1288 823 1288 823 1288 855 c 0,19,20
 1288 901 1288 901 1339 901 c 0,21,22
 1402 901 1402 901 1458 876 c 128,-1,23
 1514 851 1514 851 1518 803 c 0,24,25
 1521 772 1521 772 1521 740 c 0,26,27
 1521 591 1521 591 1465.5 446.5 c 128,-1,28
 1410 302 1410 302 1327 201 c 128,-1,29
 1244 100 1244 100 1147.5 38 c 128,-1,30
 1051 -24 1051 -24 968.5 -24 c 128,-1,31
 886 -24 886 -24 855 33 c 128,-1,32
 824 90 824 90 823 225 c 1,33,34
 732 103 732 103 644.5 39.5 c 128,-1,35
 557 -24 557 -24 465.5 -24 c 128,-1,36
 374 -24 374 -24 343.5 35.5 c 128,-1,37
 313 95 313 95 313 238 c 0,38,39
 313 315 313 315 327 494 c 128,-1,40
 341 673 341 673 341 775 c 1,41,-1
 331 783 l 1,42,-1
 165 695 l 1,43,-1
 152 709 l 1,44,45
 306 894 306 894 469 894 c 0,46,47
 524 894 524 894 540 857 c 128,-1,48
 556 820 556 820 556 739 c 128,-1,49
 556 658 556 658 541.5 484.5 c 128,-1,50
 527 311 527 311 527 243 c 128,-1,51
 527 175 527 175 536.5 135.5 c 128,-1,52
 546 96 546 96 576.5 96 c 128,-1,53
 607 96 607 96 657.5 127.5 c 128,-1,54
 708 159 708 159 757.5 216.5 c 128,-1,55
 807 274 807 274 827 345.5 c 128,-1,56
 847 417 847 417 847 625 c 2,57,-1
 847 733 l 2,58,0
 847 817 847 817 871 855.5 c 128,-1,1
EndSplineSet
EndChar

StartChar: x
Encoding: 120 120 92
Width: 911
GlyphClass: 2
Flags: W
LayerCount: 2
Fore
SplineSet
954 883 m 2,0,-1
 1039 883 l 1,1,2
 1034 802 1034 802 1004 776 c 1,3,4
 887 785 887 785 865 785 c 0,5,6
 821 785 821 785 798 744 c 2,7,-1
 645 477 l 1,8,9
 699 291 699 291 764 112 c 1,10,11
 874 182 874 182 964 314 c 1,12,-1
 988 299 l 1,13,14
 934 191 934 191 844 92 c 1,15,16
 800 42 800 42 748 11.5 c 128,-1,17
 696 -19 696 -19 648 -19 c 0,18,19
 565 -19 565 -19 532 96 c 2,20,-1
 478 285 l 1,21,-1
 474 285 l 1,22,-1
 381 134 l 1,23,24
 320 38 320 38 276 12 c 0,25,26
 223 -19 223 -19 159.5 -19 c 128,-1,27
 96 -19 96 -19 47 -5 c 1,28,29
 53 74 53 74 89 110 c 1,30,31
 169 84 169 84 209 84 c 128,-1,32
 249 84 249 84 270 98 c 128,-1,33
 291 112 291 112 310 144 c 2,34,-1
 448 369 l 1,35,-1
 374 636 l 1,36,37
 338 762 338 762 320 762 c 0,38,39
 298 762 298 762 247 729 c 128,-1,40
 196 696 196 696 152 660 c 1,41,-1
 132 677 l 1,42,43
 187 749 187 749 261 810 c 0,44,45
 302 843 302 843 350.5 863 c 128,-1,46
 399 883 399 883 450 883 c 128,-1,47
 501 883 501 883 527 852 c 128,-1,48
 553 821 553 821 569 761 c 2,49,-1
 622 558 l 1,50,-1
 626 558 l 1,51,-1
 721 731 l 2,52,53
 767 816 767 816 813.5 849.5 c 128,-1,54
 860 883 860 883 954 883 c 2,0,-1
EndSplineSet
EndChar

StartChar: y
Encoding: 121 121 93
Width: 868
GlyphClass: 2
Flags: W
LayerCount: 2
Fore
SplineSet
479 807 m 0,0,1
 546 698 546 698 578 434 c 0,2,3
 597 284 597 284 608 114 c 1,4,5
 703 238 703 238 771 376.5 c 128,-1,6
 839 515 839 515 839 615 c 0,7,8
 839 645 839 645 836.5 663.5 c 128,-1,9
 834 682 834 682 809 705 c 128,-1,10
 784 728 784 728 756.5 744.5 c 128,-1,11
 729 761 729 761 706 789 c 128,-1,12
 683 817 683 817 683 845.5 c 128,-1,13
 683 874 683 874 696.5 884 c 128,-1,14
 710 894 710 894 740 894 c 128,-1,15
 770 894 770 894 797.5 889 c 128,-1,16
 825 884 825 884 851 874 c 128,-1,17
 877 864 877 864 894.5 845.5 c 128,-1,18
 912 827 912 827 915 803 c 0,19,20
 920 756 920 756 920 709.5 c 128,-1,21
 920 663 920 663 911.5 609.5 c 128,-1,22
 903 556 903 556 881 498 c 128,-1,23
 859 440 859 440 843 399 c 128,-1,24
 827 358 827 358 790.5 294.5 c 128,-1,25
 754 231 754 231 738 205 c 0,26,27
 684 113 684 113 631 34 c 1,28,29
 505 -165 505 -165 447 -223 c 0,30,31
 366 -304 366 -304 300 -333 c 0,32,33
 210 -373 210 -373 114 -373 c 128,-1,34
 18 -373 18 -373 -61 -345 c 1,35,36
 -55 -235 -55 -235 -4 -185 c 1,37,38
 147 -254 147 -254 249 -254 c 0,39,40
 331 -254 331 -254 390 -183.5 c 128,-1,41
 449 -113 449 -113 449 -38 c 0,42,43
 449 78 449 78 421 265 c 128,-1,44
 393 452 393 452 341 612 c 128,-1,45
 289 772 289 772 235 772 c 0,46,47
 201 772 201 772 94 676 c 1,48,-1
 75 690 l 1,49,50
 145 798 145 798 205.5 846 c 128,-1,51
 266 894 266 894 345.5 894 c 128,-1,52
 425 894 425 894 479 807 c 0,0,1
EndSplineSet
EndChar

StartChar: z
Encoding: 122 122 94
Width: 901
GlyphClass: 2
Flags: W
LayerCount: 2
Fore
SplineSet
326 169 m 1,0,1
 351 174 351 174 393.5 174 c 128,-1,2
 436 174 436 174 558.5 155 c 128,-1,3
 681 136 681 136 727.5 136 c 128,-1,4
 774 136 774 136 805 157 c 128,-1,5
 836 178 836 178 865 232 c 1,6,-1
 900 218 l 1,7,8
 856 51 856 51 806 0 c 1,9,10
 721 -90 721 -90 548 -20 c 0,11,12
 473 11 473 11 404 41.5 c 128,-1,13
 335 72 335 72 297.5 72 c 128,-1,14
 260 72 260 72 241 54 c 128,-1,15
 222 36 222 36 199 -1 c 1,16,-1
 142 42 l 1,17,18
 255 208 255 208 414 379.5 c 128,-1,19
 573 551 573 551 742 694 c 1,20,21
 707 687 707 687 665.5 687 c 128,-1,22
 624 687 624 687 522.5 701 c 128,-1,23
 421 715 421 715 372 715 c 128,-1,24
 323 715 323 715 287 690 c 128,-1,25
 251 665 251 665 223 607 c 1,26,-1
 184 625 l 1,27,28
 227 766 227 766 280 835 c 128,-1,29
 333 904 333 904 424 904 c 0,30,31
 490 904 490 904 622.5 865 c 128,-1,32
 755 826 755 826 785.5 826 c 128,-1,33
 816 826 816 826 836 838.5 c 128,-1,34
 856 851 856 851 881 881 c 1,35,-1
 928 854 l 1,36,37
 840 677 840 677 691 510.5 c 128,-1,38
 542 344 542 344 326 169 c 1,0,1
EndSplineSet
EndChar

StartChar: braceleft
Encoding: 123 123 95
Width: 553
GlyphClass: 2
Flags: W
LayerCount: 2
Fore
SplineSet
461 618 m 128,-1,1
 506 562 506 562 506 486 c 128,-1,2
 506 410 506 410 464 227 c 128,-1,3
 422 44 422 44 422 -28 c 128,-1,4
 422 -100 422 -100 446.5 -137.5 c 128,-1,5
 471 -175 471 -175 539 -177 c 1,6,-1
 513 -224 l 1,7,8
 374 -204 374 -204 303 -142.5 c 128,-1,9
 232 -81 232 -81 232 1.5 c 128,-1,10
 232 84 232 84 281.5 266.5 c 128,-1,11
 331 449 331 449 331 513.5 c 128,-1,12
 331 578 331 578 308.5 621.5 c 128,-1,13
 286 665 286 665 242 665 c 2,14,-1
 198 665 l 1,15,-1
 219 728 l 1,16,-1
 259 728 l 2,17,18
 298 728 298 728 318 761 c 0,19,20
 329 779 329 779 337.5 796 c 128,-1,21
 346 813 346 813 352.5 844.5 c 128,-1,22
 359 876 359 876 362.5 896 c 128,-1,23
 366 916 366 916 370 956 c 128,-1,24
 374 996 374 996 375 1014.5 c 128,-1,25
 376 1033 376 1033 379.5 1084.5 c 128,-1,26
 383 1136 383 1136 387 1175 c 128,-1,27
 391 1214 391 1214 402.5 1270 c 128,-1,28
 414 1326 414 1326 431 1362.5 c 128,-1,29
 448 1399 448 1399 478.5 1440 c 128,-1,30
 509 1481 509 1481 550 1504 c 0,31,32
 647 1560 647 1560 790 1560 c 1,33,-1
 806 1526 l 1,34,35
 731 1517 731 1517 684.5 1472 c 128,-1,36
 638 1427 638 1427 618 1361 c 128,-1,37
 598 1295 598 1295 587.5 1216.5 c 128,-1,38
 577 1138 577 1138 565.5 1056.5 c 128,-1,39
 554 975 554 975 533.5 903.5 c 128,-1,40
 513 832 513 832 464.5 775.5 c 128,-1,41
 416 719 416 719 339 696 c 1,42,-1
 338 693 l 1,43,0
 416 674 416 674 461 618 c 128,-1,1
EndSplineSet
EndChar

StartChar: bar
Encoding: 124 124 96
Width: 1065
GlyphClass: 2
Flags: W
LayerCount: 2
Fore
SplineSet
808 1474 m 1,0,-1
 657 -340 l 1,1,-1
 531 -340 l 1,2,-1
 681 1474 l 1,3,-1
 808 1474 l 1,0,-1
EndSplineSet
EndChar

StartChar: braceright
Encoding: 125 125 97
Width: 492
GlyphClass: 2
Flags: W
LayerCount: 2
Fore
SplineSet
327 732 m 128,-1,1
 282 788 282 788 282 864 c 128,-1,2
 282 940 282 940 324 1123 c 128,-1,3
 366 1306 366 1306 366 1378 c 128,-1,4
 366 1450 366 1450 341.5 1487.5 c 128,-1,5
 317 1525 317 1525 249 1527 c 1,6,-1
 275 1574 l 1,7,8
 414 1554 414 1554 485 1492.5 c 128,-1,9
 556 1431 556 1431 556 1348.5 c 128,-1,10
 556 1266 556 1266 506.5 1083.5 c 128,-1,11
 457 901 457 901 457 836.5 c 128,-1,12
 457 772 457 772 479.5 728.5 c 128,-1,13
 502 685 502 685 546 685 c 2,14,-1
 570 685 l 1,15,-1
 549 622 l 1,16,-1
 529 622 l 2,17,18
 490 622 490 622 470 589 c 0,19,20
 459 571 459 571 450.5 554 c 128,-1,21
 442 537 442 537 435.5 505.5 c 128,-1,22
 429 474 429 474 425.5 454 c 128,-1,23
 422 434 422 434 418 394 c 128,-1,24
 414 354 414 354 413 335.5 c 128,-1,25
 412 317 412 317 408.5 263.5 c 128,-1,26
 405 210 405 210 401.5 175 c 128,-1,27
 398 140 398 140 387 80.5 c 128,-1,28
 376 21 376 21 360.5 -13 c 128,-1,29
 345 -47 345 -47 315.5 -90 c 128,-1,30
 286 -133 286 -133 246 -156 c 0,31,32
 149 -210 149 -210 8 -210 c 1,33,-1
 -8 -176 l 1,34,35
 67 -167 67 -167 113 -122 c 128,-1,36
 159 -77 159 -77 178 -11 c 128,-1,37
 197 55 197 55 206.5 133.5 c 128,-1,38
 216 212 216 212 226.5 293.5 c 128,-1,39
 237 375 237 375 256.5 446.5 c 128,-1,40
 276 518 276 518 324 574.5 c 128,-1,41
 372 631 372 631 449 654 c 1,42,-1
 450 657 l 1,43,0
 372 676 372 676 327 732 c 128,-1,1
EndSplineSet
EndChar

StartChar: asciitilde
Encoding: 126 126 98
Width: 1065
GlyphClass: 2
Flags: W
LayerCount: 2
Fore
SplineSet
560 743 m 0,0,1
 622 743 622 743 716 716.5 c 128,-1,2
 810 690 810 690 913 663 c 128,-1,3
 1016 636 1016 636 1100 636 c 0,4,5
 1149 636 1149 636 1205 661 c 0,6,7
 1223 669 1223 669 1254.5 686 c 128,-1,8
 1286 703 1286 703 1296 708 c 1,9,-1
 1326 669 l 1,10,11
 1254 585 1254 585 1185.5 546.5 c 128,-1,12
 1117 508 1117 508 1035 508 c 128,-1,13
 953 508 953 508 856.5 534 c 128,-1,14
 760 560 760 560 670 585.5 c 128,-1,15
 580 611 580 611 513 611 c 0,16,17
 367 611 367 611 224 508 c 1,18,-1
 196 562 l 1,19,20
 292 650 292 650 377.5 696.5 c 128,-1,21
 463 743 463 743 560 743 c 0,0,1
EndSplineSet
EndChar

StartChar: exclamdown
Encoding: 161 161 100
Width: 621
GlyphClass: 2
Flags: W
LayerCount: 2
Fore
SplineSet
458 533 m 1,0,-1
 543 533 l 1,1,2
 464 0 464 0 402 -541 c 1,3,-1
 188 -584 l 1,4,-1
 458 533 l 1,0,-1
458 855.5 m 128,-1,6
 496 900 496 900 544 900 c 128,-1,7
 592 900 592 900 624 862 c 128,-1,8
 656 824 656 824 656 771.5 c 128,-1,9
 656 719 656 719 615 676.5 c 128,-1,10
 574 634 574 634 530 634 c 128,-1,11
 486 634 486 634 453 673 c 128,-1,12
 420 712 420 712 420 761.5 c 128,-1,5
 420 811 420 811 458 855.5 c 128,-1,6
EndSplineSet
EndChar

StartChar: cent
Encoding: 162 162 101
Width: 901
GlyphClass: 2
Flags: W
LayerCount: 2
Fore
SplineSet
443 -18 m 0,0,1
 348 -18 348 -18 292 45 c 128,-1,2
 236 108 236 108 236 236 c 0,3,4
 236 445 236 445 354 629.5 c 128,-1,5
 472 814 472 814 629 873 c 1,6,-1
 652 1074 l 1,7,-1
 726 1074 l 1,8,-1
 706 892 l 1,9,10
 726 894 726 894 738 894 c 0,11,12
 798 894 798 894 829.5 880.5 c 128,-1,13
 861 867 861 867 896 834 c 1,14,15
 896 810 896 810 867 771 c 128,-1,16
 838 732 838 732 794 710 c 1,17,18
 753 775 753 775 694 789 c 1,19,-1
 618 104 l 1,20,21
 688 130 688 130 756.5 184.5 c 128,-1,22
 825 239 825 239 874 312 c 1,23,-1
 894 293 l 1,24,25
 848 212 848 212 773 137 c 128,-1,26
 698 62 698 62 609 21 c 1,27,-1
 586 -188 l 1,28,-1
 512 -188 l 1,29,-1
 532 -6 l 1,30,31
 482 -18 482 -18 443 -18 c 0,0,1
490.5 100.5 m 128,-1,33
 505 85 505 85 520.5 85 c 128,-1,34
 536 85 536 85 542 86 c 1,35,-1
 619 784 l 1,36,37
 543 751 543 751 498 613.5 c 128,-1,38
 453 476 453 476 453 282 c 0,39,40
 453 208 453 208 464.5 162 c 128,-1,32
 476 116 476 116 490.5 100.5 c 128,-1,33
EndSplineSet
EndChar

StartChar: sterling
Encoding: 163 163 102
Width: 1047
GlyphClass: 2
Flags: W
LayerCount: 2
Fore
SplineSet
837 -164 m 0,0,1
 732 -164 732 -164 606 -104 c 0,2,3
 552 -78 552 -78 498 -53 c 0,4,5
 368 7 368 7 259 7 c 0,6,7
 229 7 229 7 100 -5 c 1,8,-1
 98 29 l 1,9,10
 282 53 282 53 358 200 c 0,11,12
 396 274 396 274 415.5 367.5 c 128,-1,13
 435 461 435 461 440 590 c 1,14,-1
 235 590 l 1,15,16
 261 648 261 648 304 670 c 1,17,-1
 442 670 l 1,18,-1
 447 799 l 2,19,20
 457 1077 457 1077 594 1210 c 0,21,22
 643 1257 643 1257 719.5 1285.5 c 128,-1,23
 796 1314 796 1314 875.5 1314 c 128,-1,24
 955 1314 955 1314 1021.5 1299 c 128,-1,25
 1088 1284 1088 1284 1122 1263 c 1,26,27
 1107 1169 1107 1169 1062 1120 c 1,28,29
 1009 1150 1009 1150 978.5 1166.5 c 128,-1,30
 948 1183 948 1183 896.5 1201.5 c 128,-1,31
 845 1220 845 1220 807 1220 c 0,32,33
 741 1220 741 1220 711.5 1151 c 128,-1,34
 682 1082 682 1082 675 945 c 2,35,-1
 661 670 l 1,36,-1
 762 670 l 2,37,38
 841 670 841 670 899 686 c 1,39,-1
 908 676 l 1,40,41
 866 626 866 626 838 608 c 128,-1,42
 810 590 810 590 774 590 c 2,43,-1
 654 590 l 1,44,45
 642 413 642 413 588 281 c 0,46,47
 531 139 531 139 395 76 c 1,48,-1
 396 73 l 1,49,50
 425 81 425 81 492 81 c 128,-1,51
 559 81 559 81 646.5 55 c 128,-1,52
 734 29 734 29 808.5 3.5 c 128,-1,53
 883 -22 883 -22 940 -22 c 128,-1,54
 997 -22 997 -22 1022.5 0 c 128,-1,55
 1048 22 1048 22 1056 79 c 1,56,-1
 1086 81 l 1,57,58
 1086 -164 1086 -164 837 -164 c 0,0,1
EndSplineSet
EndChar

StartChar: currency
Encoding: 164 164 103
Width: 1229
GlyphClass: 2
Flags: W
LayerCount: 2
Fore
SplineSet
389 423.5 m 128,-1,1
 370 480 370 480 370 551.5 c 128,-1,2
 370 623 370 623 387 679.5 c 128,-1,3
 404 736 404 736 455 801 c 1,4,-1
 362 893 l 1,5,-1
 433 965 l 1,6,-1
 526 872 l 1,7,8
 642 961 642 961 777 961 c 128,-1,9
 912 961 912 961 1031 872 c 1,10,-1
 1123 965 l 1,11,-1
 1192 893 l 1,12,-1
 1101 801 l 1,13,14
 1149 737 1149 737 1169.5 679 c 128,-1,15
 1190 621 1190 621 1190 550 c 128,-1,16
 1190 479 1190 479 1169.5 421.5 c 128,-1,17
 1149 364 1149 364 1101 303 c 1,18,-1
 1192 211 l 1,19,-1
 1123 139 l 1,20,-1
 1031 231 l 1,21,22
 916 139 916 139 780 139 c 128,-1,23
 644 139 644 139 526 231 c 1,24,-1
 433 139 l 1,25,-1
 362 211 l 1,26,-1
 455 303 l 1,27,0
 408 367 408 367 389 423.5 c 128,-1,1
991.5 762.5 m 128,-1,29
 903 851 903 851 780.5 851 c 128,-1,30
 658 851 658 851 569 763 c 128,-1,31
 480 675 480 675 480 550 c 128,-1,32
 480 425 480 425 568.5 336.5 c 128,-1,33
 657 248 657 248 780 248 c 128,-1,34
 903 248 903 248 991.5 337 c 128,-1,35
 1080 426 1080 426 1080 550 c 128,-1,28
 1080 674 1080 674 991.5 762.5 c 128,-1,29
EndSplineSet
EndChar

StartChar: yen
Encoding: 165 165 104
Width: 1536
GlyphClass: 2
Flags: W
LayerCount: 2
Fore
SplineSet
762 505 m 1,0,-1
 761 590 l 1,1,-1
 468 590 l 1,2,3
 492 642 492 642 547 670 c 1,4,-1
 757 670 l 1,5,6
 727 1215 727 1215 455 1215 c 0,7,8
 343 1215 343 1215 298.5 1152.5 c 128,-1,9
 254 1090 254 1090 254 961 c 0,10,11
 254 926 254 926 260 860 c 1,12,13
 241 835 241 835 185.5 816.5 c 128,-1,14
 130 798 130 798 67 792 c 1,15,16
 65 818 65 818 65 842 c 0,17,18
 65 1070 65 1070 199 1194.5 c 128,-1,19
 333 1319 333 1319 562 1319 c 0,20,21
 645 1319 645 1319 711 1289 c 128,-1,22
 777 1259 777 1259 820.5 1204.5 c 128,-1,23
 864 1150 864 1150 894.5 1083.5 c 128,-1,24
 925 1017 925 1017 940 934 c 0,25,26
 969 780 969 780 969 643 c 128,-1,27
 969 506 969 506 966 465 c 1,28,-1
 969 464 l 1,29,30
 1193 788 1193 788 1193 1118 c 0,31,32
 1193 1213 1193 1213 1109 1213 c 0,33,34
 1090 1213 1090 1213 1082 1215.5 c 128,-1,35
 1074 1218 1074 1218 1074 1229 c 128,-1,36
 1074 1240 1074 1240 1094.5 1264 c 128,-1,37
 1115 1288 1115 1288 1133.5 1304.5 c 128,-1,38
 1152 1321 1152 1321 1196.5 1321 c 128,-1,39
 1241 1321 1241 1321 1284 1314.5 c 128,-1,40
 1327 1308 1327 1308 1364.5 1289.5 c 128,-1,41
 1402 1271 1402 1271 1402 1246 c 0,42,43
 1402 1122 1402 1122 1349.5 972.5 c 128,-1,44
 1297 823 1297 823 1203 670 c 1,45,-1
 1383 670 l 2,46,47
 1462 670 1462 670 1520 686 c 1,48,-1
 1529 676 l 1,49,50
 1487 626 1487 626 1460 608 c 128,-1,51
 1433 590 1433 590 1397 590 c 2,52,-1
 1151 590 l 1,53,54
 1095 508 1095 508 1038 440 c 1,55,-1
 1275 440 l 2,56,57
 1354 440 1354 440 1412 456 c 1,58,-1
 1421 446 l 1,59,60
 1379 396 1379 396 1351 378 c 128,-1,61
 1323 360 1323 360 1287 360 c 2,62,-1
 969 360 l 1,63,64
 942 331 942 331 890.5 283.5 c 128,-1,65
 839 236 839 236 803 200 c 128,-1,66
 767 164 767 164 729 116 c 0,67,68
 651 17 651 17 651 -102 c 0,69,70
 651 -152 651 -152 681.5 -178 c 128,-1,71
 712 -204 712 -204 759 -204 c 128,-1,72
 806 -204 806 -204 865.5 -178 c 128,-1,73
 925 -152 925 -152 977.5 -126.5 c 128,-1,74
 1030 -101 1030 -101 1060 -101 c 0,75,76
 1094 -101 1094 -101 1109 -151 c 128,-1,77
 1124 -201 1124 -201 1124 -265 c 1,78,79
 942 -309 942 -309 764 -309 c 0,80,81
 661 -309 661 -309 605 -260 c 128,-1,82
 549 -211 549 -211 549 -106 c 128,-1,83
 549 -1 549 -1 603.5 94 c 128,-1,84
 658 189 658 189 762 298 c 1,85,-1
 762 360 l 1,86,-1
 388 360 l 1,87,88
 412 412 412 412 467 440 c 1,89,-1
 762 440 l 1,90,-1
 762 505 l 1,0,-1
EndSplineSet
EndChar

StartChar: brokenbar
Encoding: 166 166 105
Width: 1065
GlyphClass: 2
Flags: W
LayerCount: 2
Fore
SplineSet
657 -340 m 1,0,-1
 531 -340 l 1,1,-1
 592 400 l 1,2,-1
 718 400 l 1,3,-1
 657 -340 l 1,0,-1
808 1474 m 1,4,-1
 753 819 l 1,5,-1
 625 819 l 1,6,-1
 681 1474 l 1,7,-1
 808 1474 l 1,4,-1
EndSplineSet
EndChar

StartChar: section
Encoding: 167 167 106
Width: 860
GlyphClass: 2
Flags: W
LayerCount: 2
Fore
SplineSet
276 -248 m 0,0,1
 348 -248 348 -248 379 -189.5 c 128,-1,2
 410 -131 410 -131 410 -39 c 128,-1,3
 410 53 410 53 379 170.5 c 128,-1,4
 348 288 348 288 311 380.5 c 128,-1,5
 274 473 274 473 243 594.5 c 128,-1,6
 212 716 212 716 212 823 c 128,-1,7
 212 930 212 930 247 1032 c 128,-1,8
 282 1134 282 1134 345 1215 c 128,-1,9
 408 1296 408 1296 506 1345 c 128,-1,10
 604 1394 604 1394 721 1394 c 0,11,12
 771 1394 771 1394 830.5 1375 c 128,-1,13
 890 1356 890 1356 935 1325 c 1,14,15
 904 1242 904 1242 835 1221 c 1,16,17
 803 1247 803 1247 751.5 1269 c 128,-1,18
 700 1291 700 1291 656 1291 c 128,-1,19
 612 1291 612 1291 583 1256 c 128,-1,20
 554 1221 554 1221 554 1154 c 0,21,22
 554 1080 554 1080 576 1002 c 128,-1,23
 598 924 598 924 650 777 c 128,-1,24
 702 630 702 630 730.5 510.5 c 128,-1,25
 759 391 759 391 759 271 c 0,26,27
 759 3 759 3 596 -180 c 0,28,29
 441 -353 441 -353 227 -353 c 0,30,31
 177 -353 177 -353 117.5 -334 c 128,-1,32
 58 -315 58 -315 13 -284 c 1,33,34
 42 -202 42 -202 114 -181 c 1,35,36
 146 -207 146 -207 192 -227.5 c 128,-1,37
 238 -248 238 -248 276 -248 c 0,0,1
350 858 m 0,38,39
 350 760 350 760 378.5 642 c 128,-1,40
 407 524 407 524 441.5 430.5 c 128,-1,41
 476 337 476 337 504.5 217.5 c 128,-1,42
 533 98 533 98 533 -3 c 0,43,44
 533 -45 533 -45 527 -90 c 1,45,46
 624 47 624 47 624 223.5 c 128,-1,47
 624 400 624 400 533 685 c 1,48,-1
 518 728 l 1,49,50
 455 914 455 914 440 1029 c 1,51,52
 434 1084 434 1084 434 1142 c 1,53,54
 350 1017 350 1017 350 858 c 0,38,39
EndSplineSet
EndChar

StartChar: dieresis
Encoding: 168 168 107
Width: 797
GlyphClass: 2
Flags: W
LayerCount: 2
Fore
SplineSet
438 1151 m 1,0,-1
 531 1247 l 1,1,2
 602 1199 602 1199 631 1147 c 1,3,4
 605 1100 605 1100 536 1042 c 1,5,6
 455 1108 455 1108 438 1151 c 1,0,-1
712 1151 m 1,7,-1
 805 1247 l 1,8,9
 875 1201 875 1201 905 1147 c 1,10,11
 878 1099 878 1099 811 1042 c 1,12,13
 731 1106 731 1106 712 1151 c 1,7,-1
EndSplineSet
EndChar

StartChar: copyright
Encoding: 169 169 108
Width: 1516
GlyphClass: 2
Flags: W
LayerCount: 2
Fore
SplineSet
915 1268 m 0,0,1
 1016 1268 1016 1268 1105 1237 c 128,-1,2
 1194 1206 1194 1206 1258.5 1152.5 c 128,-1,3
 1323 1099 1323 1099 1370 1028 c 0,4,5
 1463 887 1463 887 1463 717 c 0,6,7
 1463 517 1463 517 1375.5 353.5 c 128,-1,8
 1288 190 1288 190 1129 95.5 c 128,-1,9
 970 1 970 1 770 1 c 0,10,11
 655 1 655 1 552.5 49.5 c 128,-1,12
 450 98 450 98 381 176.5 c 128,-1,13
 312 255 312 255 272.5 353.5 c 128,-1,14
 233 452 233 452 233 551 c 0,15,16
 233 696 233 696 279 825 c 128,-1,17
 325 954 325 954 409.5 1053 c 128,-1,18
 494 1152 494 1152 625 1210 c 128,-1,19
 756 1268 756 1268 915 1268 c 0,0,1
1067 1100 m 128,-1,21
 975 1145 975 1145 856 1145 c 128,-1,22
 737 1145 737 1145 636.5 1103 c 128,-1,23
 536 1061 536 1061 475 990 c 0,24,25
 352 847 352 847 352 648 c 0,26,27
 352 550 352 550 384 457 c 128,-1,28
 416 364 416 364 474 289.5 c 128,-1,29
 532 215 532 215 622.5 169.5 c 128,-1,30
 713 124 713 124 831.5 124 c 128,-1,31
 950 124 950 124 1052 166 c 128,-1,32
 1154 208 1154 208 1216 279 c 0,33,34
 1341 424 1341 424 1341 622 c 0,35,36
 1341 720 1341 720 1308.5 813 c 128,-1,37
 1276 906 1276 906 1217.5 980.5 c 128,-1,20
 1159 1055 1159 1055 1067 1100 c 128,-1,21
746 988 m 0,38,39
 813 1011 813 1011 887.5 1011 c 128,-1,40
 962 1011 962 1011 1031.5 987 c 128,-1,41
 1101 963 1101 963 1123 932 c 1,42,-1
 1123 790 l 1,43,-1
 1056 790 l 1,44,45
 1051 839 1051 839 1010 880.5 c 128,-1,46
 969 922 969 922 887 922 c 0,47,48
 784 922 784 922 722.5 844.5 c 128,-1,49
 661 767 661 767 661 647 c 128,-1,50
 661 527 661 527 723.5 439 c 128,-1,51
 786 351 786 351 900 351 c 0,52,53
 976 351 976 351 1024 396 c 1,54,55
 1062 430 1062 430 1091 475 c 1,56,-1
 1153 475 l 1,57,-1
 1122 329 l 1,58,59
 1099 306 1099 306 1020.5 284 c 128,-1,60
 942 262 942 262 872 262 c 128,-1,61
 802 262 802 262 733.5 284 c 128,-1,62
 665 306 665 306 610 351.5 c 128,-1,63
 555 397 555 397 524 473 c 128,-1,64
 493 549 493 549 493 650 c 0,65,66
 493 752 493 752 556 844 c 0,67,68
 626 948 626 948 746 988 c 0,38,39
EndSplineSet
EndChar

StartChar: ordfeminine
Encoding: 170 170 109
Width: 614
GlyphClass: 2
Flags: W
LayerCount: 2
Fore
SplineSet
572 1367 m 0,0,1
 639 1367 639 1367 717 1359 c 1,2,3
 714 1191 714 1191 645 837 c 1,4,-1
 650 835 l 1,5,6
 723 875 723 875 797 976 c 1,7,-1
 810 967 l 1,8,9
 770 886 770 886 699 815.5 c 128,-1,10
 628 745 628 745 570 745 c 0,11,12
 544 745 544 745 527 757.5 c 128,-1,13
 510 770 510 770 510 787 c 128,-1,14
 510 804 510 804 522.5 854.5 c 128,-1,15
 535 905 535 905 536 916 c 1,16,-1
 532 916 l 1,17,18
 428 745 428 745 307 745 c 0,19,20
 257 745 257 745 229 797.5 c 128,-1,21
 201 850 201 850 201 948 c 128,-1,22
 201 1046 201 1046 248 1145 c 128,-1,23
 295 1244 295 1244 381.5 1305.5 c 128,-1,24
 468 1367 468 1367 572 1367 c 0,0,1
571 1278 m 1,25,26
 540 1291 540 1291 499.5 1291 c 128,-1,27
 459 1291 459 1291 427.5 1261.5 c 128,-1,28
 396 1232 396 1232 378 1182 c 0,29,30
 343 1081 343 1081 343 945 c 0,31,32
 343 853 343 853 393 853 c 0,33,34
 451 853 451 853 498.5 915 c 128,-1,35
 546 977 546 977 552 1054 c 2,36,-1
 571 1278 l 1,25,26
EndSplineSet
EndChar

StartChar: guillemotleft
Encoding: 171 171 110
Width: 758
GlyphClass: 2
Flags: W
LayerCount: 2
Fore
SplineSet
764 130 m 1,0,-1
 650 12 l 1,1,2
 609 96 609 96 528 203 c 128,-1,3
 447 310 447 310 341 405 c 1,4,5
 467 499 467 499 569.5 605.5 c 128,-1,6
 672 712 672 712 734 799 c 1,7,-1
 811 656 l 1,8,9
 770 610 770 610 676.5 532.5 c 128,-1,10
 583 455 583 455 504 402 c 1,11,12
 574 344 574 344 653 261.5 c 128,-1,13
 732 179 732 179 764 130 c 1,0,-1
455 130 m 1,14,-1
 341 12 l 1,15,16
 300 96 300 96 219 203 c 128,-1,17
 138 310 138 310 32 405 c 1,18,19
 158 499 158 499 260.5 605.5 c 128,-1,20
 363 712 363 712 425 799 c 1,21,-1
 502 656 l 1,22,23
 461 611 461 611 367.5 533.5 c 128,-1,24
 274 456 274 456 195 402 c 1,25,26
 265 344 265 344 344 261.5 c 128,-1,27
 423 179 423 179 455 130 c 1,14,-1
EndSplineSet
EndChar

StartChar: logicalnot
Encoding: 172 172 111
Width: 1229
GlyphClass: 2
Flags: W
LayerCount: 2
Fore
SplineSet
1173 674 m 1,0,-1
 1173 110 l 1,1,-1
 1026 110 l 1,2,-1
 1026 548 l 1,3,-1
 198 548 l 1,4,-1
 241 674 l 1,5,-1
 1173 674 l 1,0,-1
EndSplineSet
EndChar

StartChar: uni00AD
Encoding: 173 173 112
Width: 635
GlyphClass: 2
Flags: W
LayerCount: 2
Fore
SplineSet
223 533 m 1,0,1
 516 533 516 533 722 560 c 1,2,-1
 662 456 l 1,3,4
 457 431 457 431 168 431 c 1,5,-1
 223 533 l 1,0,1
EndSplineSet
EndChar

StartChar: registered
Encoding: 174 174 113
Width: 1516
GlyphClass: 2
Flags: W
LayerCount: 2
Fore
SplineSet
754 1005 m 128,-1,1
 835 1013 835 1013 873.5 1013 c 128,-1,2
 912 1013 912 1013 954 1002 c 128,-1,3
 996 991 996 991 1034 967 c 128,-1,4
 1072 943 1072 943 1094.5 898 c 128,-1,5
 1117 853 1117 853 1117 792 c 0,6,7
 1117 624 1117 624 940 584 c 1,8,9
 1012 462 1012 462 1141 326 c 1,10,-1
 1086 247 l 1,11,12
 1003 301 1003 301 931.5 375 c 128,-1,13
 860 449 860 449 762 590 c 1,14,-1
 803 646 l 1,15,16
 886 646 886 646 925.5 692.5 c 128,-1,17
 965 739 965 739 965 801.5 c 128,-1,18
 965 864 965 864 929.5 891 c 128,-1,19
 894 918 894 918 844.5 918 c 128,-1,20
 795 918 795 918 741 905 c 1,21,-1
 741 346 l 1,22,23
 767 339 767 339 789 339 c 1,24,-1
 789 271 l 1,25,-1
 521 271 l 1,26,-1
 521 336 l 1,27,28
 556 342 556 342 583 349 c 1,29,-1
 583 918 l 1,30,31
 572 922 572 922 521 931 c 1,32,-1
 521 997 l 1,33,-1
 618 997 l 2,34,0
 673 997 673 997 754 1005 c 128,-1,1
890 1268 m 0,35,36
 991 1268 991 1268 1079.5 1237 c 128,-1,37
 1168 1206 1168 1206 1232.5 1152.5 c 128,-1,38
 1297 1099 1297 1099 1344 1028 c 0,39,40
 1437 889 1437 889 1437 717 c 0,41,42
 1437 516 1437 516 1351 353 c 128,-1,43
 1265 190 1265 190 1106.5 95.5 c 128,-1,44
 948 1 948 1 746 1 c 0,45,46
 630 1 630 1 527.5 49.5 c 128,-1,47
 425 98 425 98 356 176.5 c 128,-1,48
 287 255 287 255 247 353.5 c 128,-1,49
 207 452 207 452 207 551 c 0,50,51
 207 697 207 697 252.5 826.5 c 128,-1,52
 298 956 298 956 383 1054.5 c 128,-1,53
 468 1153 468 1153 599 1210.5 c 128,-1,54
 730 1268 730 1268 890 1268 c 0,35,36
1041.5 1100 m 128,-1,56
 950 1145 950 1145 831 1145 c 128,-1,57
 712 1145 712 1145 611.5 1103 c 128,-1,58
 511 1061 511 1061 450 990 c 0,59,60
 327 845 327 845 327 646 c 0,61,62
 327 547 327 547 358.5 454.5 c 128,-1,63
 390 362 390 362 448 288 c 128,-1,64
 506 214 506 214 596.5 169 c 128,-1,65
 687 124 687 124 793.5 124 c 128,-1,66
 900 124 900 124 987 152 c 128,-1,67
 1074 180 1074 180 1133.5 227.5 c 128,-1,68
 1193 275 1193 275 1234 339 c 0,69,70
 1314 462 1314 462 1314 623 c 0,71,72
 1314 721 1314 721 1282 813.5 c 128,-1,73
 1250 906 1250 906 1191.5 980.5 c 128,-1,55
 1133 1055 1133 1055 1041.5 1100 c 128,-1,56
EndSplineSet
EndChar

StartChar: macron
Encoding: 175 175 114
Width: 926
GlyphClass: 2
Flags: W
LayerCount: 2
Fore
SplineSet
564 1184 m 1,0,-1
 1057 1184 l 1,1,-1
 966 1074 l 1,2,-1
 477 1074 l 1,3,-1
 564 1184 l 1,0,-1
EndSplineSet
EndChar

StartChar: degree
Encoding: 176 176 115
Width: 819
GlyphClass: 2
Flags: W
LayerCount: 2
Fore
SplineSet
497 1237.5 m 128,-1,1
 580 1314 580 1314 701.5 1314 c 128,-1,2
 823 1314 823 1314 902 1245 c 128,-1,3
 981 1176 981 1176 981 1053.5 c 128,-1,4
 981 931 981 931 897.5 852.5 c 128,-1,5
 814 774 814 774 684 774 c 0,6,7
 574 774 574 774 494 844 c 128,-1,8
 414 914 414 914 414 1037.5 c 128,-1,0
 414 1161 414 1161 497 1237.5 c 128,-1,1
804 1184 m 128,-1,10
 763 1238 763 1238 697 1238 c 128,-1,11
 631 1238 631 1238 590 1185.5 c 128,-1,12
 549 1133 549 1133 549 1042 c 128,-1,13
 549 951 549 951 591 899 c 128,-1,14
 633 847 633 847 696 847 c 128,-1,15
 759 847 759 847 802 898 c 128,-1,16
 845 949 845 949 845 1039.5 c 128,-1,9
 845 1130 845 1130 804 1184 c 128,-1,10
EndSplineSet
EndChar

StartChar: plusminus
Encoding: 177 177 116
Width: 1124
GlyphClass: 2
Flags: W
LayerCount: 2
Fore
SplineSet
745 723 m 1,0,-1
 1183 723 l 1,1,-1
 1141 599 l 1,2,-1
 753 599 l 1,3,-1
 753 229 l 1,4,-1
 624 229 l 1,5,-1
 624 599 l 1,6,-1
 195 599 l 1,7,-1
 237 723 l 1,8,-1
 616 723 l 1,9,-1
 616 1085 l 1,10,-1
 745 1129 l 1,11,-1
 745 723 l 1,0,-1
217 123 m 1,12,-1
 1163 123 l 1,13,-1
 1121 -1 l 1,14,-1
 175 -1 l 1,15,-1
 217 123 l 1,12,-1
EndSplineSet
EndChar

StartChar: twosuperior
Encoding: 178 178 117
Width: 561
GlyphClass: 2
Flags: W
LayerCount: 2
Fore
SplineSet
359 1411.5 m 128,-1,1
 409 1445 409 1445 484.5 1445 c 128,-1,2
 560 1445 560 1445 604.5 1403 c 128,-1,3
 649 1361 649 1361 649 1291 c 0,4,5
 649 1195 649 1195 572 1111 c 0,6,7
 515 1048 515 1048 441.5 990 c 128,-1,8
 368 932 368 932 346 913 c 1,9,-1
 545 913 l 2,10,11
 577 913 577 913 595 923 c 128,-1,12
 613 933 613 933 638 969 c 1,13,-1
 663 959 l 1,14,-1
 652 928 l 2,15,16
 650 921 650 921 631 870 c 128,-1,17
 612 819 612 819 604 795 c 1,18,19
 537 807 537 807 484 807 c 2,20,-1
 201 807 l 1,21,-1
 195 841 l 1,22,23
 374 1003 374 1003 430 1084 c 0,24,25
 456 1122 456 1122 476.5 1170.5 c 128,-1,26
 497 1219 497 1219 497 1261.5 c 128,-1,27
 497 1304 497 1304 477 1326.5 c 128,-1,28
 457 1349 457 1349 420 1349 c 128,-1,29
 383 1349 383 1349 355 1334.5 c 128,-1,30
 327 1320 327 1320 288 1281 c 1,31,-1
 257 1309 l 1,32,0
 309 1378 309 1378 359 1411.5 c 128,-1,1
EndSplineSet
EndChar

StartChar: threesuperior
Encoding: 179 179 118
Width: 582
GlyphClass: 2
Flags: W
LayerCount: 2
Fore
SplineSet
505 1440 m 0,0,1
 580 1440 580 1440 627.5 1405 c 128,-1,2
 675 1370 675 1370 675 1306 c 0,3,4
 675 1232 675 1232 577 1176 c 0,5,6
 563 1168 563 1168 538 1155 c 1,7,8
 673 1123 673 1123 673 1017 c 128,-1,9
 673 911 673 911 590.5 852 c 128,-1,10
 508 793 508 793 391 793 c 0,11,12
 307 793 307 793 229 832 c 1,13,14
 236 892 236 892 280 936 c 1,15,16
 287 932 287 932 306 920.5 c 128,-1,17
 325 909 325 909 333.5 904 c 128,-1,18
 342 899 342 899 359.5 890 c 128,-1,19
 377 881 377 881 389 877 c 0,20,21
 422 866 422 866 449 866 c 0,22,23
 494 866 494 866 511 896 c 128,-1,24
 528 926 528 926 528 986.5 c 128,-1,25
 528 1047 528 1047 489.5 1075.5 c 128,-1,26
 451 1104 451 1104 367 1104 c 1,27,-1
 367 1127 l 1,28,29
 444 1150 444 1150 482 1184.5 c 128,-1,30
 520 1219 520 1219 520 1278 c 0,31,32
 520 1313 520 1313 498 1334 c 128,-1,33
 476 1355 476 1355 439 1355 c 128,-1,34
 402 1355 402 1355 377 1343.5 c 128,-1,35
 352 1332 352 1332 314 1302 c 1,36,-1
 289 1326 l 1,37,38
 376 1440 376 1440 505 1440 c 0,0,1
EndSplineSet
EndChar

StartChar: acute
Encoding: 180 180 119
Width: 645
GlyphClass: 2
Flags: W
LayerCount: 2
Fore
SplineSet
679 1296 m 1,0,-1
 815 1272 l 1,1,2
 783 1182 783 1182 694.5 1113.5 c 128,-1,3
 606 1045 606 1045 498 1004 c 1,4,-1
 465 1036 l 1,5,6
 619 1134 619 1134 679 1296 c 1,0,-1
EndSplineSet
EndChar

StartChar: mu
Encoding: 181 181 120
Width: 1024
GlyphClass: 2
Flags: W
LayerCount: 2
Fore
SplineSet
430 894 m 0,0,1
 474 894 474 894 495.5 870 c 128,-1,2
 517 846 517 846 517 811 c 0,3,4
 517 737 517 737 469.5 452.5 c 128,-1,5
 422 168 422 168 422 149 c 0,6,7
 422 108 422 108 455 108 c 0,8,9
 512 108 512 108 582 174 c 0,10,11
 666 254 666 254 709 370 c 0,12,13
 734 438 734 438 744.5 537 c 128,-1,14
 755 636 755 636 766 874 c 1,15,16
 768 894 768 894 840.5 894 c 128,-1,17
 913 894 913 894 938 879 c 128,-1,18
 963 864 963 864 963 820 c 0,19,20
 963 672 963 672 914 400 c 128,-1,21
 865 128 865 128 862 115 c 1,22,-1
 869 111 l 1,23,24
 974 169 974 169 1078 312 c 1,25,-1
 1098 299 l 1,26,27
 1069 238 1069 238 1014.5 167 c 128,-1,28
 960 96 960 96 887.5 39.5 c 128,-1,29
 815 -17 815 -17 759 -17 c 0,30,31
 722 -17 722 -17 696 0.5 c 128,-1,32
 670 18 670 18 670 41.5 c 128,-1,33
 670 65 670 65 687 131 c 128,-1,34
 704 197 704 197 707 226 c 1,35,-1
 702 227 l 1,36,37
 629 123 629 123 552.5 60 c 128,-1,38
 476 -3 476 -3 380 -14 c 1,39,-1
 338 -280 l 1,40,41
 215 -344 215 -344 42 -389 c 1,42,-1
 21 -356 l 1,43,44
 73 -325 73 -325 107 -283.5 c 128,-1,45
 141 -242 141 -242 155.5 -205.5 c 128,-1,46
 170 -169 170 -169 185.5 -98.5 c 128,-1,47
 201 -28 201 -28 251.5 303.5 c 128,-1,48
 302 635 302 635 317 767 c 1,49,-1
 314 769 l 1,50,51
 280 755 280 755 236 720.5 c 128,-1,52
 192 686 192 686 156 647 c 1,53,-1
 136 661 l 1,54,55
 192 763 192 763 267 828.5 c 128,-1,56
 342 894 342 894 430 894 c 0,0,1
EndSplineSet
EndChar

StartChar: paragraph
Encoding: 182 182 121
Width: 1024
GlyphClass: 2
Flags: W
LayerCount: 2
Fore
SplineSet
105 479 m 128,-1,1
 74 561 74 561 74 665.5 c 128,-1,2
 74 770 74 770 106.5 852.5 c 128,-1,3
 139 935 139 935 194 990.5 c 128,-1,4
 249 1046 249 1046 326 1083 c 0,5,6
 471 1152 471 1152 675 1152 c 128,-1,7
 879 1152 879 1152 1050 1105 c 1,8,9
 1045 1031 1045 1031 1041 1031 c 1,10,11
 979 1052 979 1052 914 1062 c 1,12,13
 912 1038 912 1038 820 280 c 1,14,15
 914 285 914 285 967 294 c 1,16,-1
 956 220 l 1,17,18
 896 209 896 209 810 201 c 1,19,-1
 803 140 l 2,20,21
 788 16 788 16 757 -74 c 128,-1,22
 726 -164 726 -164 670 -234 c 1,23,24
 556 -373 556 -373 307 -373 c 0,25,26
 243 -373 243 -373 164 -357 c 1,27,28
 166 -243 166 -243 229 -207 c 1,29,30
 278 -224 278 -224 346.5 -239.5 c 128,-1,31
 415 -255 415 -255 456 -255 c 0,32,33
 514 -255 514 -255 540 -207 c 128,-1,34
 566 -159 566 -159 582 -35 c 2,35,-1
 611 194 l 1,36,37
 323 204 323 204 186 346 c 0,38,0
 136 397 136 397 105 479 c 128,-1,1
404 670 m 0,39,40
 404 435 404 435 510 344 c 1,41,42
 556 306 556 306 623 289 c 1,43,-1
 722 1077 l 1,44,45
 568 1067 568 1067 486 957.5 c 128,-1,46
 404 848 404 848 404 670 c 0,39,40
EndSplineSet
EndChar

StartChar: periodcentered
Encoding: 183 183 122
Width: 483
GlyphClass: 2
Flags: W
LayerCount: 2
Fore
SplineSet
321 816.5 m 128,-1,1
 359 861 359 861 407 861 c 128,-1,2
 455 861 455 861 487 823 c 128,-1,3
 519 785 519 785 519 732.5 c 128,-1,4
 519 680 519 680 478 637.5 c 128,-1,5
 437 595 437 595 393 595 c 128,-1,6
 349 595 349 595 316 634 c 128,-1,7
 283 673 283 673 283 722.5 c 128,-1,0
 283 772 283 772 321 816.5 c 128,-1,1
EndSplineSet
EndChar

StartChar: cedilla
Encoding: 184 184 123
Width: 676
GlyphClass: 2
Flags: W
LayerCount: 2
Fore
SplineSet
554 -259 m 0,0,1
 554 -336 554 -336 487 -386 c 128,-1,2
 420 -436 420 -436 319 -436 c 0,3,4
 265 -436 265 -436 218 -416 c 128,-1,5
 171 -396 171 -396 145 -357 c 1,6,-1
 226 -282 l 1,7,8
 269 -324 269 -324 307 -346.5 c 128,-1,9
 345 -369 345 -369 379 -369 c 0,10,11
 442 -369 442 -369 442 -326 c 0,12,13
 442 -234 442 -234 214 -167 c 1,14,-1
 461 40 l 1,15,-1
 493 12 l 1,16,-1
 369 -94 l 1,17,18
 554 -137 554 -137 554 -259 c 0,0,1
EndSplineSet
EndChar

StartChar: onesuperior
Encoding: 185 185 124
Width: 582
GlyphClass: 2
Flags: W
LayerCount: 2
Fore
SplineSet
525 875 m 0,0,1
 525 859 525 859 603 851 c 0,2,3
 642 847 642 847 656 845 c 1,4,-1
 648 805 l 1,5,6
 549 811 549 811 445 811 c 128,-1,7
 341 811 341 811 234 801 c 1,8,-1
 236 839 l 1,9,10
 315 855 315 855 343 870 c 128,-1,11
 371 885 371 885 379 925 c 0,12,13
 428 1200 428 1200 439 1310 c 1,14,-1
 317 1275 l 1,15,-1
 303 1311 l 1,16,17
 424 1374 424 1374 545 1459 c 1,18,-1
 608 1447 l 1,19,20
 594 1400 594 1400 580 1304 c 0,21,22
 525 924 525 924 525 875 c 0,0,1
EndSplineSet
EndChar

StartChar: ordmasculine
Encoding: 186 186 125
Width: 594
GlyphClass: 2
Flags: W
LayerCount: 2
Fore
SplineSet
594 1369 m 0,0,1
 779 1369 779 1369 779 1162 c 0,2,3
 779 1081 779 1081 746 1001.5 c 128,-1,4
 713 922 713 922 661 863.5 c 128,-1,5
 609 805 609 805 541.5 769 c 128,-1,6
 474 733 474 733 408 733 c 0,7,8
 240 733 240 733 240 934 c 0,9,10
 240 1041 240 1041 285.5 1140.5 c 128,-1,11
 331 1240 331 1240 414 1304.5 c 128,-1,12
 497 1369 497 1369 594 1369 c 0,0,1
550 1320 m 0,13,14
 486 1320 486 1320 441.5 1209 c 128,-1,15
 397 1098 397 1098 397 963 c 0,16,17
 397 785 397 785 459.5 785 c 128,-1,18
 522 785 522 785 574.5 880 c 128,-1,19
 627 975 627 975 627 1098 c 0,20,21
 627 1320 627 1320 550 1320 c 0,13,14
EndSplineSet
EndChar

StartChar: guillemotright
Encoding: 187 187 126
Width: 840
GlyphClass: 2
Flags: W
LayerCount: 2
Fore
SplineSet
121 677 m 1,0,-1
 235 795 l 1,1,2
 276 711 276 711 357 604 c 128,-1,3
 438 497 438 497 544 401 c 1,4,5
 418 308 418 308 315.5 201.5 c 128,-1,6
 213 95 213 95 151 8 c 1,7,-1
 74 151 l 1,8,9
 116 196 116 196 209.5 273.5 c 128,-1,10
 303 351 303 351 381 404 c 1,11,12
 312 462 312 462 232.5 545 c 128,-1,13
 153 628 153 628 121 677 c 1,0,-1
430 677 m 1,14,-1
 544 795 l 1,15,16
 585 711 585 711 666 604 c 128,-1,17
 747 497 747 497 853 401 c 1,18,19
 727 308 727 308 624.5 201.5 c 128,-1,20
 522 95 522 95 460 8 c 1,21,-1
 383 151 l 1,22,23
 424 196 424 196 517.5 273.5 c 128,-1,24
 611 351 611 351 690 404 c 1,25,26
 621 462 621 462 541.5 545 c 128,-1,27
 462 628 462 628 430 677 c 1,14,-1
EndSplineSet
EndChar

StartChar: onequarter
Encoding: 188 188 127
Width: 1434
GlyphClass: 2
Flags: W
LayerCount: 2
Fore
SplineSet
1044 165 m 2,0,1
 925 165 925 165 829 159 c 1,2,-1
 821 186 l 1,3,4
 832 199 832 199 893 268 c 128,-1,5
 954 337 954 337 998 388.5 c 128,-1,6
 1042 440 1042 440 1089.5 504.5 c 128,-1,7
 1137 569 1137 569 1152 605 c 1,8,9
 1208 647 1208 647 1275 665 c 1,10,-1
 1311 647 l 1,11,12
 1288 523 1288 523 1251 233 c 1,13,14
 1312 233 1312 233 1359 247 c 1,15,-1
 1371 229 l 1,16,17
 1326 163 1326 163 1241 163 c 1,18,-1
 1223 9 l 1,19,-1
 1073 -10 l 1,20,-1
 1096 165 l 1,21,-1
 1044 165 l 2,0,1
1104 233 m 1,22,-1
 1143 474 l 1,23,-1
 942 233 l 1,24,-1
 1104 233 l 1,22,-1
525 875 m 0,25,26
 525 859 525 859 603 851 c 0,27,28
 642 847 642 847 656 845 c 1,29,-1
 648 805 l 1,30,31
 549 811 549 811 445 811 c 128,-1,32
 341 811 341 811 234 801 c 1,33,-1
 236 839 l 1,34,35
 315 855 315 855 343 870 c 128,-1,36
 371 885 371 885 379 925 c 0,37,38
 428 1200 428 1200 439 1310 c 1,39,-1
 317 1275 l 1,40,-1
 303 1311 l 1,41,42
 424 1374 424 1374 545 1459 c 1,43,-1
 608 1447 l 1,44,45
 594 1400 594 1400 580 1304 c 0,46,47
 525 924 525 924 525 875 c 0,25,26
1528 1474 m 1,48,-1
 314 0 l 1,49,-1
 175 0 l 1,50,-1
 1388 1474 l 1,51,-1
 1528 1474 l 1,48,-1
EndSplineSet
EndChar

StartChar: onehalf
Encoding: 189 189 128
Width: 1434
GlyphClass: 2
Flags: W
LayerCount: 2
Fore
SplineSet
525 875 m 0,0,1
 525 859 525 859 603 851 c 0,2,3
 642 847 642 847 656 845 c 1,4,-1
 648 805 l 1,5,6
 549 811 549 811 445 811 c 128,-1,7
 341 811 341 811 234 801 c 1,8,-1
 236 839 l 1,9,10
 315 855 315 855 343 870 c 128,-1,11
 371 885 371 885 379 925 c 0,12,13
 428 1200 428 1200 439 1310 c 1,14,-1
 317 1275 l 1,15,-1
 303 1311 l 1,16,17
 424 1374 424 1374 545 1459 c 1,18,-1
 608 1447 l 1,19,20
 594 1400 594 1400 580 1304 c 0,21,22
 525 924 525 924 525 875 c 0,0,1
1528 1474 m 1,23,-1
 314 0 l 1,24,-1
 175 0 l 1,25,-1
 1388 1474 l 1,26,-1
 1528 1474 l 1,23,-1
1059 600.5 m 128,-1,28
 1109 634 1109 634 1184.5 634 c 128,-1,29
 1260 634 1260 634 1304.5 592 c 128,-1,30
 1349 550 1349 550 1349 480 c 0,31,32
 1349 384 1349 384 1272 300 c 0,33,34
 1215 237 1215 237 1141.5 179 c 128,-1,35
 1068 121 1068 121 1046 102 c 1,36,-1
 1245 102 l 2,37,38
 1277 102 1277 102 1295 112 c 128,-1,39
 1313 122 1313 122 1338 158 c 1,40,-1
 1363 148 l 1,41,-1
 1352 117 l 2,42,43
 1350 110 1350 110 1331 59 c 128,-1,44
 1312 8 1312 8 1304 -16 c 1,45,46
 1237 -4 1237 -4 1184 -4 c 2,47,-1
 901 -4 l 1,48,-1
 895 30 l 1,49,50
 1074 192 1074 192 1130 272 c 1,51,52
 1156 311 1156 311 1176.5 359.5 c 128,-1,53
 1197 408 1197 408 1197 450.5 c 128,-1,54
 1197 493 1197 493 1177 515.5 c 128,-1,55
 1157 538 1157 538 1120 538 c 128,-1,56
 1083 538 1083 538 1055 523.5 c 128,-1,57
 1027 509 1027 509 988 470 c 1,58,-1
 957 498 l 1,59,27
 1009 567 1009 567 1059 600.5 c 128,-1,28
EndSplineSet
EndChar

StartChar: threequarters
Encoding: 190 190 129
Width: 1434
GlyphClass: 2
Flags: W
LayerCount: 2
Fore
SplineSet
1044 165 m 2,0,1
 925 165 925 165 829 159 c 1,2,-1
 821 186 l 1,3,4
 832 199 832 199 893 268 c 128,-1,5
 954 337 954 337 998 388.5 c 128,-1,6
 1042 440 1042 440 1089.5 504.5 c 128,-1,7
 1137 569 1137 569 1152 605 c 1,8,9
 1208 647 1208 647 1275 665 c 1,10,-1
 1311 647 l 1,11,12
 1288 523 1288 523 1251 233 c 1,13,14
 1312 233 1312 233 1359 247 c 1,15,-1
 1371 229 l 1,16,17
 1326 163 1326 163 1241 163 c 1,18,-1
 1223 9 l 1,19,-1
 1073 -10 l 1,20,-1
 1096 165 l 1,21,-1
 1044 165 l 2,0,1
1104 233 m 1,22,-1
 1143 474 l 1,23,-1
 942 233 l 1,24,-1
 1104 233 l 1,22,-1
1528 1474 m 1,25,-1
 314 0 l 1,26,-1
 175 0 l 1,27,-1
 1388 1474 l 1,28,-1
 1528 1474 l 1,25,-1
505 1440 m 0,29,30
 580 1440 580 1440 627.5 1405 c 128,-1,31
 675 1370 675 1370 675 1306 c 0,32,33
 675 1232 675 1232 577 1176 c 0,34,35
 563 1168 563 1168 538 1155 c 1,36,37
 673 1123 673 1123 673 1017 c 128,-1,38
 673 911 673 911 590.5 852 c 128,-1,39
 508 793 508 793 391 793 c 0,40,41
 307 793 307 793 229 832 c 1,42,43
 236 892 236 892 280 936 c 1,44,45
 287 932 287 932 306 920.5 c 128,-1,46
 325 909 325 909 333.5 904 c 128,-1,47
 342 899 342 899 359.5 890 c 128,-1,48
 377 881 377 881 389 877 c 0,49,50
 422 866 422 866 449 866 c 0,51,52
 494 866 494 866 511 896 c 128,-1,53
 528 926 528 926 528 986.5 c 128,-1,54
 528 1047 528 1047 489.5 1075.5 c 128,-1,55
 451 1104 451 1104 367 1104 c 1,56,-1
 367 1127 l 1,57,58
 444 1150 444 1150 482 1184.5 c 128,-1,59
 520 1219 520 1219 520 1278 c 0,60,61
 520 1313 520 1313 498 1334 c 128,-1,62
 476 1355 476 1355 439 1355 c 128,-1,63
 402 1355 402 1355 377 1343.5 c 128,-1,64
 352 1332 352 1332 314 1302 c 1,65,-1
 289 1326 l 1,66,67
 376 1440 376 1440 505 1440 c 0,29,30
EndSplineSet
EndChar

StartChar: questiondown
Encoding: 191 191 130
Width: 872
GlyphClass: 2
Flags: W
LayerCount: 2
Fore
SplineSet
731 392 m 0,0,1
 731 300 731 300 658 208 c 1,2,3
 626 166 626 166 587 123.5 c 128,-1,4
 548 81 548 81 509 35.5 c 128,-1,5
 470 -10 470 -10 438 -58 c 1,6,7
 365 -163 365 -163 365 -288 c 0,8,9
 365 -385 365 -385 406.5 -442.5 c 128,-1,10
 448 -500 448 -500 528 -500 c 0,11,12
 618 -500 618 -500 695 -430 c 0,13,14
 730 -397 730 -397 775 -346 c 1,15,-1
 800 -361 l 1,16,17
 760 -436 760 -436 711.5 -493 c 128,-1,18
 663 -550 663 -550 589 -591.5 c 128,-1,19
 515 -633 515 -633 432 -633 c 0,20,21
 288 -633 288 -633 210 -554.5 c 128,-1,22
 132 -476 132 -476 132 -338 c 0,23,24
 132 -258 132 -258 161 -186 c 128,-1,25
 190 -114 190 -114 237 -60 c 128,-1,26
 284 -6 284 -6 340.5 42.5 c 128,-1,27
 397 91 397 91 453 134 c 128,-1,28
 509 177 509 177 556 218 c 0,29,30
 661 308 661 308 661 400 c 0,31,32
 661 446 661 446 625 492 c 1,33,-1
 675 511 l 1,34,35
 731 466 731 466 731 392 c 0,0,1
607 864.5 m 128,-1,37
 645 909 645 909 693 909 c 128,-1,38
 741 909 741 909 773 871 c 128,-1,39
 805 833 805 833 805 780.5 c 128,-1,40
 805 728 805 728 764 685.5 c 128,-1,41
 723 643 723 643 679 643 c 128,-1,42
 635 643 635 643 602 682 c 128,-1,43
 569 721 569 721 569 770.5 c 128,-1,36
 569 820 569 820 607 864.5 c 128,-1,37
EndSplineSet
EndChar

StartChar: Agrave
Encoding: 192 192 131
Width: 1331
GlyphClass: 2
Flags: W
LayerCount: 2
Fore
SplineSet
804 1327 m 0,0,1
 866 1327 866 1327 946 1322.5 c 128,-1,2
 1026 1318 1026 1318 1070.5 1318 c 128,-1,3
 1115 1318 1115 1318 1172 1321 c 1,4,-1
 1170 1289 l 1,5,6
 1106 1205 1106 1205 1106 932 c 0,7,8
 1106 596 1106 596 1132 359.5 c 128,-1,9
 1158 123 1158 123 1209 123 c 0,10,11
 1280 123 1280 123 1370 137 c 1,12,-1
 1384 103 l 1,13,14
 1333 62 1333 62 1264.5 27.5 c 128,-1,15
 1196 -7 1196 -7 1131 -20 c 1,16,17
 1034 -20 1034 -20 984 46 c 256,18,19
 934 112 934 112 914 214 c 0,20,21
 896 310 896 310 888 448 c 1,22,-1
 636 448 l 1,23,24
 488 144 488 144 410 34 c 0,25,26
 338 -66 338 -66 275 -104 c 0,27,28
 197 -151 197 -151 112 -162 c 0,29,30
 66 -167 66 -167 19.5 -167 c 128,-1,31
 -27 -167 -27 -167 -104 -157 c 1,32,33
 -104 -114 -104 -114 -84.5 -72 c 128,-1,34
 -65 -30 -65 -30 -33 -14 c 1,35,36
 85 -57 85 -57 125 -57 c 0,37,38
 256 -57 256 -57 361 151 c 0,39,40
 485 397 485 397 609.5 655.5 c 128,-1,41
 734 914 734 914 777.5 999 c 128,-1,42
 821 1084 821 1084 854 1131 c 128,-1,43
 887 1178 887 1178 923 1202 c 1,44,-1
 923 1206 l 1,45,46
 824 1210 824 1210 661 1210 c 0,47,48
 521 1210 521 1210 455.5 1121.5 c 128,-1,49
 390 1033 390 1033 390 824 c 2,50,-1
 390 794 l 1,51,52
 371 765 371 765 317 742 c 128,-1,53
 263 719 263 719 200 711 c 1,54,55
 198 735 198 735 198 762 c 0,56,57
 198 1015 198 1015 360 1171 c 128,-1,58
 522 1327 522 1327 804 1327 c 0,0,1
883 531 m 1,59,60
 879 614 879 614 879 742.5 c 128,-1,61
 879 871 879 871 897 1007 c 1,62,-1
 891 1007 l 1,63,64
 760 749 760 749 665 531 c 1,65,-1
 883 531 l 1,59,60
703 1664 m 1,66,-1
 830 1685 l 1,67,68
 853 1616 853 1616 904.5 1552 c 128,-1,69
 956 1488 956 1488 1015 1454 c 1,70,-1
 985 1425 l 1,71,72
 889 1462 889 1462 810.5 1524.5 c 128,-1,73
 732 1587 732 1587 703 1664 c 1,66,-1
EndSplineSet
EndChar

StartChar: Aacute
Encoding: 193 193 132
Width: 1331
GlyphClass: 2
Flags: W
LayerCount: 2
Fore
SplineSet
804 1327 m 0,0,1
 866 1327 866 1327 946 1322.5 c 128,-1,2
 1026 1318 1026 1318 1070.5 1318 c 128,-1,3
 1115 1318 1115 1318 1172 1321 c 1,4,-1
 1170 1289 l 1,5,6
 1106 1205 1106 1205 1106 932 c 0,7,8
 1106 596 1106 596 1132 359.5 c 128,-1,9
 1158 123 1158 123 1209 123 c 0,10,11
 1280 123 1280 123 1370 137 c 1,12,-1
 1384 103 l 1,13,14
 1333 62 1333 62 1264.5 27.5 c 128,-1,15
 1196 -7 1196 -7 1131 -20 c 1,16,17
 1034 -20 1034 -20 984 46 c 256,18,19
 934 112 934 112 914 214 c 0,20,21
 896 310 896 310 888 448 c 1,22,-1
 636 448 l 1,23,24
 488 144 488 144 410 34 c 0,25,26
 338 -66 338 -66 275 -104 c 0,27,28
 197 -151 197 -151 112 -162 c 0,29,30
 66 -167 66 -167 19.5 -167 c 128,-1,31
 -27 -167 -27 -167 -104 -157 c 1,32,33
 -104 -114 -104 -114 -84.5 -72 c 128,-1,34
 -65 -30 -65 -30 -33 -14 c 1,35,36
 85 -57 85 -57 125 -57 c 0,37,38
 256 -57 256 -57 361 151 c 0,39,40
 485 397 485 397 609.5 655.5 c 128,-1,41
 734 914 734 914 777.5 999 c 128,-1,42
 821 1084 821 1084 854 1131 c 128,-1,43
 887 1178 887 1178 923 1202 c 1,44,-1
 923 1206 l 1,45,46
 824 1210 824 1210 661 1210 c 0,47,48
 521 1210 521 1210 455.5 1121.5 c 128,-1,49
 390 1033 390 1033 390 824 c 2,50,-1
 390 794 l 1,51,52
 371 765 371 765 317 742 c 128,-1,53
 263 719 263 719 200 711 c 1,54,55
 198 735 198 735 198 762 c 0,56,57
 198 1015 198 1015 360 1171 c 128,-1,58
 522 1327 522 1327 804 1327 c 0,0,1
883 531 m 1,59,60
 879 614 879 614 879 742.5 c 128,-1,61
 879 871 879 871 897 1007 c 1,62,-1
 891 1007 l 1,63,64
 760 749 760 749 665 531 c 1,65,-1
 883 531 l 1,59,60
1098 1686 m 1,66,-1
 1220 1665 l 1,67,68
 1192 1584 1192 1584 1112 1522 c 128,-1,69
 1032 1460 1032 1460 935 1424 c 1,70,-1
 905 1452 l 1,71,72
 1044 1540 1044 1540 1098 1686 c 1,66,-1
EndSplineSet
EndChar

StartChar: Acircumflex
Encoding: 194 194 133
Width: 1331
GlyphClass: 2
Flags: W
LayerCount: 2
Fore
SplineSet
804 1327 m 0,0,1
 866 1327 866 1327 946 1322.5 c 128,-1,2
 1026 1318 1026 1318 1070.5 1318 c 128,-1,3
 1115 1318 1115 1318 1172 1321 c 1,4,-1
 1170 1289 l 1,5,6
 1106 1205 1106 1205 1106 932 c 0,7,8
 1106 596 1106 596 1132 359.5 c 128,-1,9
 1158 123 1158 123 1209 123 c 0,10,11
 1280 123 1280 123 1370 137 c 1,12,-1
 1384 103 l 1,13,14
 1333 62 1333 62 1264.5 27.5 c 128,-1,15
 1196 -7 1196 -7 1131 -20 c 1,16,17
 1034 -20 1034 -20 984 46 c 256,18,19
 934 112 934 112 914 214 c 0,20,21
 896 310 896 310 888 448 c 1,22,-1
 636 448 l 1,23,24
 488 144 488 144 410 34 c 0,25,26
 338 -66 338 -66 275 -104 c 0,27,28
 197 -151 197 -151 112 -162 c 0,29,30
 66 -167 66 -167 19.5 -167 c 128,-1,31
 -27 -167 -27 -167 -104 -157 c 1,32,33
 -104 -114 -104 -114 -84.5 -72 c 128,-1,34
 -65 -30 -65 -30 -33 -14 c 1,35,36
 85 -57 85 -57 125 -57 c 0,37,38
 256 -57 256 -57 361 151 c 0,39,40
 485 397 485 397 609.5 655.5 c 128,-1,41
 734 914 734 914 777.5 999 c 128,-1,42
 821 1084 821 1084 854 1131 c 128,-1,43
 887 1178 887 1178 923 1202 c 1,44,-1
 923 1206 l 1,45,46
 824 1210 824 1210 661 1210 c 0,47,48
 521 1210 521 1210 455.5 1121.5 c 128,-1,49
 390 1033 390 1033 390 824 c 2,50,-1
 390 794 l 1,51,52
 371 765 371 765 317 742 c 128,-1,53
 263 719 263 719 200 711 c 1,54,55
 198 735 198 735 198 762 c 0,56,57
 198 1015 198 1015 360 1171 c 128,-1,58
 522 1327 522 1327 804 1327 c 0,0,1
883 531 m 1,59,60
 879 614 879 614 879 742.5 c 128,-1,61
 879 871 879 871 897 1007 c 1,62,-1
 891 1007 l 1,63,64
 760 749 760 749 665 531 c 1,65,-1
 883 531 l 1,59,60
1029 1674 m 1,66,67
 1054 1681 1054 1681 1082 1681 c 128,-1,68
 1110 1681 1110 1681 1141 1667 c 1,69,70
 1141 1566 1141 1566 1243 1477 c 1,71,-1
 1215 1445 l 1,72,73
 1105 1490 1105 1490 1061 1559 c 1,74,75
 993 1488 993 1488 863 1445 c 1,76,-1
 836 1478 l 1,77,78
 989 1558 989 1558 1029 1674 c 1,66,67
EndSplineSet
EndChar

StartChar: Atilde
Encoding: 195 195 134
Width: 1331
GlyphClass: 2
Flags: W
LayerCount: 2
Fore
SplineSet
804 1327 m 0,0,1
 866 1327 866 1327 946 1322.5 c 128,-1,2
 1026 1318 1026 1318 1070.5 1318 c 128,-1,3
 1115 1318 1115 1318 1172 1321 c 1,4,-1
 1170 1289 l 1,5,6
 1106 1205 1106 1205 1106 932 c 0,7,8
 1106 596 1106 596 1132 359.5 c 128,-1,9
 1158 123 1158 123 1209 123 c 0,10,11
 1280 123 1280 123 1370 137 c 1,12,-1
 1384 103 l 1,13,14
 1333 62 1333 62 1264.5 27.5 c 128,-1,15
 1196 -7 1196 -7 1131 -20 c 1,16,17
 1034 -20 1034 -20 984 46 c 256,18,19
 934 112 934 112 914 214 c 0,20,21
 896 310 896 310 888 448 c 1,22,-1
 636 448 l 1,23,24
 488 144 488 144 410 34 c 0,25,26
 338 -66 338 -66 275 -104 c 0,27,28
 197 -151 197 -151 112 -162 c 0,29,30
 66 -167 66 -167 19.5 -167 c 128,-1,31
 -27 -167 -27 -167 -104 -157 c 1,32,33
 -104 -114 -104 -114 -84.5 -72 c 128,-1,34
 -65 -30 -65 -30 -33 -14 c 1,35,36
 85 -57 85 -57 125 -57 c 0,37,38
 256 -57 256 -57 361 151 c 0,39,40
 485 397 485 397 609.5 655.5 c 128,-1,41
 734 914 734 914 777.5 999 c 128,-1,42
 821 1084 821 1084 854 1131 c 128,-1,43
 887 1178 887 1178 923 1202 c 1,44,-1
 923 1206 l 1,45,46
 824 1210 824 1210 661 1210 c 0,47,48
 521 1210 521 1210 455.5 1121.5 c 128,-1,49
 390 1033 390 1033 390 824 c 2,50,-1
 390 794 l 1,51,52
 371 765 371 765 317 742 c 128,-1,53
 263 719 263 719 200 711 c 1,54,55
 198 735 198 735 198 762 c 0,56,57
 198 1015 198 1015 360 1171 c 128,-1,58
 522 1327 522 1327 804 1327 c 0,0,1
883 531 m 1,59,60
 879 614 879 614 879 742.5 c 128,-1,61
 879 871 879 871 897 1007 c 1,62,-1
 891 1007 l 1,63,64
 760 749 760 749 665 531 c 1,65,-1
 883 531 l 1,59,60
918 1516 m 0,66,67
 845 1516 845 1516 785 1462 c 1,68,-1
 767 1489 l 1,69,70
 852 1589 852 1589 929 1623 c 1,71,72
 960 1623 960 1623 1035.5 1599.5 c 128,-1,73
 1111 1576 1111 1576 1137 1576 c 0,74,75
 1214 1576 1214 1576 1274 1618 c 1,76,-1
 1296 1597 l 1,77,78
 1208 1492 1208 1492 1124 1466 c 1,79,80
 1092 1466 1092 1466 1018 1491 c 128,-1,81
 944 1516 944 1516 918 1516 c 0,66,67
EndSplineSet
EndChar

StartChar: Adieresis
Encoding: 196 196 135
Width: 1331
GlyphClass: 2
Flags: W
LayerCount: 2
Fore
SplineSet
804 1327 m 0,0,1
 866 1327 866 1327 946 1322.5 c 128,-1,2
 1026 1318 1026 1318 1070.5 1318 c 128,-1,3
 1115 1318 1115 1318 1172 1321 c 1,4,-1
 1170 1289 l 1,5,6
 1106 1205 1106 1205 1106 932 c 0,7,8
 1106 596 1106 596 1132 359.5 c 128,-1,9
 1158 123 1158 123 1209 123 c 0,10,11
 1280 123 1280 123 1370 137 c 1,12,-1
 1384 103 l 1,13,14
 1333 62 1333 62 1264.5 27.5 c 128,-1,15
 1196 -7 1196 -7 1131 -20 c 1,16,17
 1034 -20 1034 -20 984 46 c 256,18,19
 934 112 934 112 914 214 c 0,20,21
 896 310 896 310 888 448 c 1,22,-1
 636 448 l 1,23,24
 488 144 488 144 410 34 c 0,25,26
 338 -66 338 -66 275 -104 c 0,27,28
 197 -151 197 -151 112 -162 c 0,29,30
 66 -167 66 -167 19.5 -167 c 128,-1,31
 -27 -167 -27 -167 -104 -157 c 1,32,33
 -104 -114 -104 -114 -84.5 -72 c 128,-1,34
 -65 -30 -65 -30 -33 -14 c 1,35,36
 85 -57 85 -57 125 -57 c 0,37,38
 256 -57 256 -57 361 151 c 0,39,40
 485 397 485 397 609.5 655.5 c 128,-1,41
 734 914 734 914 777.5 999 c 128,-1,42
 821 1084 821 1084 854 1131 c 128,-1,43
 887 1178 887 1178 923 1202 c 1,44,-1
 923 1206 l 1,45,46
 824 1210 824 1210 661 1210 c 0,47,48
 521 1210 521 1210 455.5 1121.5 c 128,-1,49
 390 1033 390 1033 390 824 c 2,50,-1
 390 794 l 1,51,52
 371 765 371 765 317 742 c 128,-1,53
 263 719 263 719 200 711 c 1,54,55
 198 735 198 735 198 762 c 0,56,57
 198 1015 198 1015 360 1171 c 128,-1,58
 522 1327 522 1327 804 1327 c 0,0,1
883 531 m 1,59,60
 879 614 879 614 879 742.5 c 128,-1,61
 879 871 879 871 897 1007 c 1,62,-1
 891 1007 l 1,63,64
 760 749 760 749 665 531 c 1,65,-1
 883 531 l 1,59,60
747 1556 m 1,66,-1
 831 1642 l 1,67,68
 895 1599 895 1599 921 1552 c 1,69,70
 897 1510 897 1510 835 1458 c 1,71,72
 764 1517 764 1517 747 1556 c 1,66,-1
994 1556 m 1,73,-1
 1077 1642 l 1,74,75
 1140 1601 1140 1601 1167 1552 c 1,76,77
 1145 1511 1145 1511 1083 1458 c 1,78,79
 1012 1514 1012 1514 994 1556 c 1,73,-1
EndSplineSet
EndChar

StartChar: Aring
Encoding: 197 197 136
Width: 1331
GlyphClass: 2
Flags: W
LayerCount: 2
Fore
SplineSet
804 1327 m 0,0,1
 866 1327 866 1327 946 1322.5 c 128,-1,2
 1026 1318 1026 1318 1070.5 1318 c 128,-1,3
 1115 1318 1115 1318 1172 1321 c 1,4,-1
 1170 1289 l 1,5,6
 1106 1205 1106 1205 1106 932 c 0,7,8
 1106 596 1106 596 1132 359.5 c 128,-1,9
 1158 123 1158 123 1209 123 c 0,10,11
 1280 123 1280 123 1370 137 c 1,12,-1
 1384 103 l 1,13,14
 1333 62 1333 62 1264.5 27.5 c 128,-1,15
 1196 -7 1196 -7 1131 -20 c 1,16,17
 1034 -20 1034 -20 984 46 c 256,18,19
 934 112 934 112 914 214 c 0,20,21
 896 310 896 310 888 448 c 1,22,-1
 636 448 l 1,23,24
 488 144 488 144 410 34 c 0,25,26
 338 -66 338 -66 275 -104 c 0,27,28
 197 -151 197 -151 112 -162 c 0,29,30
 66 -167 66 -167 19.5 -167 c 128,-1,31
 -27 -167 -27 -167 -104 -157 c 1,32,33
 -104 -114 -104 -114 -84.5 -72 c 128,-1,34
 -65 -30 -65 -30 -33 -14 c 1,35,36
 85 -57 85 -57 125 -57 c 0,37,38
 256 -57 256 -57 361 151 c 0,39,40
 485 397 485 397 609.5 655.5 c 128,-1,41
 734 914 734 914 777.5 999 c 128,-1,42
 821 1084 821 1084 854 1131 c 128,-1,43
 887 1178 887 1178 923 1202 c 1,44,-1
 923 1206 l 1,45,46
 824 1210 824 1210 661 1210 c 0,47,48
 521 1210 521 1210 455.5 1121.5 c 128,-1,49
 390 1033 390 1033 390 824 c 2,50,-1
 390 794 l 1,51,52
 371 765 371 765 317 742 c 128,-1,53
 263 719 263 719 200 711 c 1,54,55
 198 735 198 735 198 762 c 0,56,57
 198 1015 198 1015 360 1171 c 128,-1,58
 522 1327 522 1327 804 1327 c 0,0,1
883 531 m 1,59,60
 879 614 879 614 879 742.5 c 128,-1,61
 879 871 879 871 897 1007 c 1,62,-1
 891 1007 l 1,63,64
 760 749 760 749 665 531 c 1,65,-1
 883 531 l 1,59,60
1012.5 1612 m 128,-1,67
 1056 1649 1056 1649 1117.5 1649 c 128,-1,68
 1179 1649 1179 1649 1207.5 1626 c 128,-1,69
 1236 1603 1236 1603 1236 1564 c 0,70,71
 1236 1511 1236 1511 1188.5 1475.5 c 128,-1,72
 1141 1440 1141 1440 1084 1440 c 0,73,74
 969 1440 969 1440 969 1524 c 0,75,66
 969 1575 969 1575 1012.5 1612 c 128,-1,67
1112 1619 m 0,76,77
 1088 1619 1088 1619 1073.5 1591.5 c 128,-1,78
 1059 1564 1059 1564 1059 1526 c 0,79,80
 1059 1469 1059 1469 1093 1469 c 0,81,82
 1118 1469 1118 1469 1132.5 1495 c 128,-1,83
 1147 1521 1147 1521 1147 1559 c 0,84,85
 1147 1619 1147 1619 1112 1619 c 0,76,77
EndSplineSet
EndChar

StartChar: AE
Encoding: 198 198 137
Width: 1575
GlyphClass: 2
Flags: W
LayerCount: 2
Fore
SplineSet
1381 1316 m 1,0,-1
 1664 1322 l 2,1,2
 1697 1322 1697 1322 1708.5 1309.5 c 128,-1,3
 1720 1297 1720 1297 1720 1277.5 c 128,-1,4
 1720 1258 1720 1258 1648 1027 c 1,5,-1
 1602 1031 l 1,6,7
 1610 1151 1610 1151 1610 1158 c 0,8,9
 1610 1195 1610 1195 1564 1195 c 2,10,-1
 1246 1195 l 1,11,12
 1229 1165 1229 1165 1223 1105 c 1,13,-1
 1181 763 l 1,14,15
 1261 761 1261 761 1366.5 761 c 128,-1,16
 1472 761 1472 761 1558 791 c 1,17,-1
 1570 774 l 1,18,19
 1531 714 1531 714 1492.5 688 c 128,-1,20
 1454 662 1454 662 1385 662 c 2,21,-1
 1169 662 l 1,22,-1
 1121 305 l 2,23,24
 1112 235 1112 235 1090 192.5 c 128,-1,25
 1068 150 1068 150 1020 118 c 1,26,-1
 1286 118 l 2,27,28
 1390 118 1390 118 1461.5 145.5 c 128,-1,29
 1533 173 1533 173 1647 247 c 1,30,-1
 1663 223 l 1,31,-1
 1557 98 l 1,32,33
 1513 43 1513 43 1498 30.5 c 128,-1,34
 1483 18 1483 18 1472.5 10.5 c 128,-1,35
 1462 3 1462 3 1454 0 c 0,36,37
 1433 -9 1433 -9 1417.5 -9 c 128,-1,38
 1402 -9 1402 -9 1331 -4.5 c 128,-1,39
 1260 0 1260 0 1212 0 c 2,40,-1
 696 0 l 1,41,-1
 691 37 l 1,42,43
 793 63 793 63 835 127 c 128,-1,44
 877 191 877 191 895 315 c 2,45,-1
 914 448 l 1,46,-1
 679 448 l 1,47,48
 531 144 531 144 453 34 c 0,49,50
 381 -66 381 -66 318 -104 c 0,51,52
 240 -151 240 -151 154 -162 c 0,53,54
 109 -167 109 -167 62.5 -167 c 128,-1,55
 16 -167 16 -167 -61 -157 c 1,56,57
 -61 -114 -61 -114 -41.5 -72 c 128,-1,58
 -22 -30 -22 -30 10 -14 c 1,59,60
 128 -57 128 -57 168 -57 c 0,61,62
 299 -57 299 -57 404 151 c 0,63,64
 528 397 528 397 652.5 655.5 c 128,-1,65
 777 914 777 914 820.5 999 c 128,-1,66
 864 1084 864 1084 897 1131 c 128,-1,67
 930 1178 930 1178 966 1202 c 1,68,-1
 966 1206 l 1,69,70
 867 1210 867 1210 704 1210 c 0,71,72
 564 1210 564 1210 498.5 1121.5 c 128,-1,73
 433 1033 433 1033 433 824 c 2,74,-1
 433 794 l 1,75,76
 414 765 414 765 360 742 c 128,-1,77
 306 719 306 719 243 711 c 1,78,79
 241 735 241 735 241 762 c 0,80,81
 241 1015 241 1015 403 1171 c 128,-1,82
 565 1327 565 1327 847 1327 c 0,83,84
 909 1327 909 1327 1009 1321.5 c 128,-1,85
 1109 1316 1109 1316 1121 1316 c 2,86,-1
 1381 1316 l 1,0,-1
924 531 m 1,87,-1
 996 1087 l 1,88,-1
 981 1087 l 1,89,90
 763 656 763 656 708 531 c 1,91,-1
 924 531 l 1,87,-1
EndSplineSet
EndChar

StartChar: Ccedilla
Encoding: 199 199 138
Width: 1106
GlyphClass: 2
Flags: W
LayerCount: 2
Fore
SplineSet
843 781 m 0,0,1
 913 781 913 781 952.5 840.5 c 128,-1,2
 992 900 992 900 992 1000.5 c 128,-1,3
 992 1101 992 1101 943.5 1166.5 c 128,-1,4
 895 1232 895 1232 799.5 1232 c 128,-1,5
 704 1232 704 1232 623 1131 c 128,-1,6
 542 1030 542 1030 496 847.5 c 128,-1,7
 450 665 450 665 450 447.5 c 128,-1,8
 450 230 450 230 500.5 116.5 c 128,-1,9
 551 3 551 3 650 3 c 0,10,11
 766 3 766 3 850 75.5 c 128,-1,12
 934 148 934 148 997 284 c 1,13,-1
 1036 263 l 1,14,15
 890 -90 890 -90 637 -129 c 1,16,-1
 530 -221 l 1,17,18
 715 -264 715 -264 715 -386 c 0,19,20
 715 -463 715 -463 648 -513 c 128,-1,21
 581 -563 581 -563 480 -563 c 0,22,23
 426 -563 426 -563 379 -543 c 128,-1,24
 332 -523 332 -523 306 -484 c 1,25,-1
 387 -409 l 1,26,27
 430 -451 430 -451 468 -473.5 c 128,-1,28
 506 -496 506 -496 540 -496 c 0,29,30
 603 -496 603 -496 603 -453 c 0,31,32
 603 -361 603 -361 375 -294 c 1,33,-1
 566 -134 l 1,34,35
 383 -130 383 -130 290 6 c 128,-1,36
 197 142 197 142 197 352 c 0,37,38
 197 512 197 512 235.5 663.5 c 128,-1,39
 274 815 274 815 341 934 c 128,-1,40
 408 1053 408 1053 493 1144 c 128,-1,41
 578 1235 578 1235 676 1283.5 c 128,-1,42
 774 1332 774 1332 870 1332 c 0,43,44
 1014 1332 1014 1332 1093 1259 c 128,-1,45
 1172 1186 1172 1186 1172 1063 c 0,46,47
 1172 910 1172 910 1079 811 c 128,-1,48
 986 712 986 712 852 712 c 0,49,50
 779 712 779 712 742.5 761 c 128,-1,51
 706 810 706 810 705 888 c 1,52,-1
 732 892 l 1,53,54
 742 836 742 836 767 808.5 c 128,-1,55
 792 781 792 781 843 781 c 0,0,1
EndSplineSet
EndChar

StartChar: Egrave
Encoding: 200 200 139
Width: 1290
GlyphClass: 2
Flags: W
LayerCount: 2
Fore
SplineSet
1072 1316 m 1,0,-1
 1355 1322 l 2,1,2
 1388 1322 1388 1322 1399.5 1309.5 c 128,-1,3
 1411 1297 1411 1297 1411 1277.5 c 128,-1,4
 1411 1258 1411 1258 1339 1027 c 1,5,-1
 1293 1031 l 1,6,7
 1301 1151 1301 1151 1301 1158 c 0,8,9
 1301 1195 1301 1195 1255 1195 c 2,10,-1
 907 1195 l 1,11,12
 890 1165 890 1165 884 1105 c 1,13,-1
 842 763 l 1,14,15
 922 761 922 761 1071 761 c 0,16,17
 1163 761 1163 761 1249 791 c 1,18,-1
 1261 774 l 1,19,20
 1222 714 1222 714 1183 688 c 128,-1,21
 1144 662 1144 662 1076 662 c 2,22,-1
 830 662 l 1,23,-1
 782 305 l 2,24,25
 773 235 773 235 751 192.5 c 128,-1,26
 729 150 729 150 681 118 c 1,27,-1
 977 118 l 2,28,29
 1081 118 1081 118 1152.5 145.5 c 128,-1,30
 1224 173 1224 173 1338 247 c 1,31,-1
 1354 223 l 1,32,-1
 1248 98 l 1,33,34
 1204 43 1204 43 1189 30.5 c 128,-1,35
 1174 18 1174 18 1163.5 10.5 c 128,-1,36
 1153 3 1153 3 1144 0 c 0,37,38
 1124 -9 1124 -9 1109 -9 c 128,-1,39
 1094 -9 1094 -9 1022.5 -4.5 c 128,-1,40
 951 0 951 0 903 0 c 2,41,-1
 352 0 l 1,42,-1
 347 37 l 1,43,44
 450 63 450 63 492.5 127.5 c 128,-1,45
 535 192 535 192 551 315 c 2,46,-1
 634 953 l 2,47,48
 645 1039 645 1039 669.5 1095 c 128,-1,49
 694 1151 694 1151 743 1193 c 1,50,-1
 743 1197 l 1,51,-1
 636 1197 l 2,52,53
 482 1197 482 1197 400.5 1112.5 c 128,-1,54
 319 1028 319 1028 319 839 c 0,55,56
 319 805 319 805 320 788 c 1,57,58
 280 726 280 726 135 707 c 1,59,-1
 135 756 l 2,60,61
 135 866 135 866 180 967.5 c 128,-1,62
 225 1069 225 1069 304 1146 c 128,-1,63
 383 1223 383 1223 499.5 1269.5 c 128,-1,64
 616 1316 616 1316 751 1316 c 2,65,-1
 1072 1316 l 1,0,-1
792 1664 m 1,66,-1
 919 1685 l 1,67,68
 942 1616 942 1616 993.5 1552 c 128,-1,69
 1045 1488 1045 1488 1104 1454 c 1,70,-1
 1074 1425 l 1,71,72
 978 1462 978 1462 899.5 1524.5 c 128,-1,73
 821 1587 821 1587 792 1664 c 1,66,-1
EndSplineSet
EndChar

StartChar: Eacute
Encoding: 201 201 140
Width: 1290
GlyphClass: 2
Flags: W
LayerCount: 2
Fore
SplineSet
1072 1316 m 1,0,-1
 1355 1322 l 2,1,2
 1388 1322 1388 1322 1399.5 1309.5 c 128,-1,3
 1411 1297 1411 1297 1411 1277.5 c 128,-1,4
 1411 1258 1411 1258 1339 1027 c 1,5,-1
 1293 1031 l 1,6,7
 1301 1151 1301 1151 1301 1158 c 0,8,9
 1301 1195 1301 1195 1255 1195 c 2,10,-1
 907 1195 l 1,11,12
 890 1165 890 1165 884 1105 c 1,13,-1
 842 763 l 1,14,15
 922 761 922 761 1071 761 c 0,16,17
 1163 761 1163 761 1249 791 c 1,18,-1
 1261 774 l 1,19,20
 1222 714 1222 714 1183 688 c 128,-1,21
 1144 662 1144 662 1076 662 c 2,22,-1
 830 662 l 1,23,-1
 782 305 l 2,24,25
 773 235 773 235 751 192.5 c 128,-1,26
 729 150 729 150 681 118 c 1,27,-1
 977 118 l 2,28,29
 1081 118 1081 118 1152.5 145.5 c 128,-1,30
 1224 173 1224 173 1338 247 c 1,31,-1
 1354 223 l 1,32,-1
 1248 98 l 1,33,34
 1204 43 1204 43 1189 30.5 c 128,-1,35
 1174 18 1174 18 1163.5 10.5 c 128,-1,36
 1153 3 1153 3 1144 0 c 0,37,38
 1124 -9 1124 -9 1109 -9 c 128,-1,39
 1094 -9 1094 -9 1022.5 -4.5 c 128,-1,40
 951 0 951 0 903 0 c 2,41,-1
 352 0 l 1,42,-1
 347 37 l 1,43,44
 450 63 450 63 492.5 127.5 c 128,-1,45
 535 192 535 192 551 315 c 2,46,-1
 634 953 l 2,47,48
 645 1039 645 1039 669.5 1095 c 128,-1,49
 694 1151 694 1151 743 1193 c 1,50,-1
 743 1197 l 1,51,-1
 636 1197 l 2,52,53
 482 1197 482 1197 400.5 1112.5 c 128,-1,54
 319 1028 319 1028 319 839 c 0,55,56
 319 805 319 805 320 788 c 1,57,58
 280 726 280 726 135 707 c 1,59,-1
 135 756 l 2,60,61
 135 866 135 866 180 967.5 c 128,-1,62
 225 1069 225 1069 304 1146 c 128,-1,63
 383 1223 383 1223 499.5 1269.5 c 128,-1,64
 616 1316 616 1316 751 1316 c 2,65,-1
 1072 1316 l 1,0,-1
1092 1686 m 1,66,-1
 1214 1665 l 1,67,68
 1186 1584 1186 1584 1106 1522 c 128,-1,69
 1026 1460 1026 1460 929 1424 c 1,70,-1
 899 1452 l 1,71,72
 1038 1540 1038 1540 1092 1686 c 1,66,-1
EndSplineSet
EndChar

StartChar: Ecircumflex
Encoding: 202 202 141
Width: 1290
GlyphClass: 2
Flags: W
LayerCount: 2
Fore
SplineSet
1072 1316 m 1,0,-1
 1355 1322 l 2,1,2
 1388 1322 1388 1322 1399.5 1309.5 c 128,-1,3
 1411 1297 1411 1297 1411 1277.5 c 128,-1,4
 1411 1258 1411 1258 1339 1027 c 1,5,-1
 1293 1031 l 1,6,7
 1301 1151 1301 1151 1301 1158 c 0,8,9
 1301 1195 1301 1195 1255 1195 c 2,10,-1
 907 1195 l 1,11,12
 890 1165 890 1165 884 1105 c 1,13,-1
 842 763 l 1,14,15
 922 761 922 761 1071 761 c 0,16,17
 1163 761 1163 761 1249 791 c 1,18,-1
 1261 774 l 1,19,20
 1222 714 1222 714 1183 688 c 128,-1,21
 1144 662 1144 662 1076 662 c 2,22,-1
 830 662 l 1,23,-1
 782 305 l 2,24,25
 773 235 773 235 751 192.5 c 128,-1,26
 729 150 729 150 681 118 c 1,27,-1
 977 118 l 2,28,29
 1081 118 1081 118 1152.5 145.5 c 128,-1,30
 1224 173 1224 173 1338 247 c 1,31,-1
 1354 223 l 1,32,-1
 1248 98 l 1,33,34
 1204 43 1204 43 1189 30.5 c 128,-1,35
 1174 18 1174 18 1163.5 10.5 c 128,-1,36
 1153 3 1153 3 1144 0 c 0,37,38
 1124 -9 1124 -9 1109 -9 c 128,-1,39
 1094 -9 1094 -9 1022.5 -4.5 c 128,-1,40
 951 0 951 0 903 0 c 2,41,-1
 352 0 l 1,42,-1
 347 37 l 1,43,44
 450 63 450 63 492.5 127.5 c 128,-1,45
 535 192 535 192 551 315 c 2,46,-1
 634 953 l 2,47,48
 645 1039 645 1039 669.5 1095 c 128,-1,49
 694 1151 694 1151 743 1193 c 1,50,-1
 743 1197 l 1,51,-1
 636 1197 l 2,52,53
 482 1197 482 1197 400.5 1112.5 c 128,-1,54
 319 1028 319 1028 319 839 c 0,55,56
 319 805 319 805 320 788 c 1,57,58
 280 726 280 726 135 707 c 1,59,-1
 135 756 l 2,60,61
 135 866 135 866 180 967.5 c 128,-1,62
 225 1069 225 1069 304 1146 c 128,-1,63
 383 1223 383 1223 499.5 1269.5 c 128,-1,64
 616 1316 616 1316 751 1316 c 2,65,-1
 1072 1316 l 1,0,-1
980 1674 m 1,66,67
 1004 1681 1004 1681 1032.5 1681 c 128,-1,68
 1061 1681 1061 1681 1092 1667 c 1,69,70
 1092 1566 1092 1566 1194 1477 c 1,71,-1
 1166 1445 l 1,72,73
 1056 1490 1056 1490 1012 1559 c 1,74,75
 944 1488 944 1488 814 1445 c 1,76,-1
 787 1478 l 1,77,78
 940 1558 940 1558 980 1674 c 1,66,67
EndSplineSet
EndChar

StartChar: Edieresis
Encoding: 203 203 142
Width: 1290
GlyphClass: 2
Flags: W
LayerCount: 2
Fore
SplineSet
1072 1316 m 1,0,-1
 1355 1322 l 2,1,2
 1388 1322 1388 1322 1399.5 1309.5 c 128,-1,3
 1411 1297 1411 1297 1411 1277.5 c 128,-1,4
 1411 1258 1411 1258 1339 1027 c 1,5,-1
 1293 1031 l 1,6,7
 1301 1151 1301 1151 1301 1158 c 0,8,9
 1301 1195 1301 1195 1255 1195 c 2,10,-1
 907 1195 l 1,11,12
 890 1165 890 1165 884 1105 c 1,13,-1
 842 763 l 1,14,15
 922 761 922 761 1071 761 c 0,16,17
 1163 761 1163 761 1249 791 c 1,18,-1
 1261 774 l 1,19,20
 1222 714 1222 714 1183 688 c 128,-1,21
 1144 662 1144 662 1076 662 c 2,22,-1
 830 662 l 1,23,-1
 782 305 l 2,24,25
 773 235 773 235 751 192.5 c 128,-1,26
 729 150 729 150 681 118 c 1,27,-1
 977 118 l 2,28,29
 1081 118 1081 118 1152.5 145.5 c 128,-1,30
 1224 173 1224 173 1338 247 c 1,31,-1
 1354 223 l 1,32,-1
 1248 98 l 1,33,34
 1204 43 1204 43 1189 30.5 c 128,-1,35
 1174 18 1174 18 1163.5 10.5 c 128,-1,36
 1153 3 1153 3 1144 0 c 0,37,38
 1124 -9 1124 -9 1109 -9 c 128,-1,39
 1094 -9 1094 -9 1022.5 -4.5 c 128,-1,40
 951 0 951 0 903 0 c 2,41,-1
 352 0 l 1,42,-1
 347 37 l 1,43,44
 450 63 450 63 492.5 127.5 c 128,-1,45
 535 192 535 192 551 315 c 2,46,-1
 634 953 l 2,47,48
 645 1039 645 1039 669.5 1095 c 128,-1,49
 694 1151 694 1151 743 1193 c 1,50,-1
 743 1197 l 1,51,-1
 636 1197 l 2,52,53
 482 1197 482 1197 400.5 1112.5 c 128,-1,54
 319 1028 319 1028 319 839 c 0,55,56
 319 805 319 805 320 788 c 1,57,58
 280 726 280 726 135 707 c 1,59,-1
 135 756 l 2,60,61
 135 866 135 866 180 967.5 c 128,-1,62
 225 1069 225 1069 304 1146 c 128,-1,63
 383 1223 383 1223 499.5 1269.5 c 128,-1,64
 616 1316 616 1316 751 1316 c 2,65,-1
 1072 1316 l 1,0,-1
786 1556 m 1,66,-1
 870 1642 l 1,67,68
 934 1599 934 1599 960 1552 c 1,69,70
 936 1510 936 1510 874 1458 c 1,71,72
 803 1517 803 1517 786 1556 c 1,66,-1
1033 1556 m 1,73,-1
 1116 1642 l 1,74,75
 1179 1601 1179 1601 1206 1552 c 1,76,77
 1184 1511 1184 1511 1122 1458 c 1,78,79
 1051 1514 1051 1514 1033 1556 c 1,73,-1
EndSplineSet
EndChar

StartChar: Igrave
Encoding: 204 204 143
Width: 840
GlyphClass: 2
Flags: W
LayerCount: 2
Fore
SplineSet
645 1314 m 2,0,-1
 978 1314 l 1,1,-1
 976 1285 l 1,2,3
 937 1253 937 1253 918.5 1196.5 c 128,-1,4
 900 1140 900 1140 890 1041 c 2,5,-1
 828 384 l 2,6,7
 809 181 809 181 710.5 81 c 128,-1,8
 612 -19 612 -19 431 -19 c 2,9,-1
 240 -19 l 1,10,11
 240 23 240 23 251.5 69 c 128,-1,12
 263 115 263 115 286 140 c 1,13,14
 303 135 303 135 357 116 c 0,15,16
 469 75 469 75 512.5 75 c 128,-1,17
 556 75 556 75 572 107.5 c 128,-1,18
 588 140 588 140 595 217 c 2,19,-1
 649 810 l 2,20,21
 665 984 665 984 689 1067 c 128,-1,22
 713 1150 713 1150 772 1206 c 1,23,-1
 773 1216 l 1,24,-1
 548 1216 l 2,25,26
 410 1216 410 1216 361 1156 c 128,-1,27
 312 1096 312 1096 312 929 c 2,28,-1
 312 799 l 1,29,30
 290 775 290 775 242 759.5 c 128,-1,31
 194 744 194 744 141 744 c 1,32,33
 137 772 137 772 137 807 c 0,34,35
 137 953 137 953 207.5 1070.5 c 128,-1,36
 278 1188 278 1188 393.5 1251 c 128,-1,37
 509 1314 509 1314 645 1314 c 2,0,-1
504 1649 m 1,38,-1
 631 1670 l 1,39,40
 654 1601 654 1601 705.5 1537 c 128,-1,41
 757 1473 757 1473 816 1439 c 1,42,-1
 786 1410 l 1,43,44
 690 1447 690 1447 611.5 1509.5 c 128,-1,45
 533 1572 533 1572 504 1649 c 1,38,-1
EndSplineSet
EndChar

StartChar: Iacute
Encoding: 205 205 144
Width: 840
GlyphClass: 2
Flags: W
LayerCount: 2
Fore
SplineSet
645 1314 m 2,0,-1
 978 1314 l 1,1,-1
 976 1285 l 1,2,3
 937 1253 937 1253 918.5 1196.5 c 128,-1,4
 900 1140 900 1140 890 1041 c 2,5,-1
 828 384 l 2,6,7
 809 181 809 181 710.5 81 c 128,-1,8
 612 -19 612 -19 431 -19 c 2,9,-1
 240 -19 l 1,10,11
 240 23 240 23 251.5 69 c 128,-1,12
 263 115 263 115 286 140 c 1,13,14
 303 135 303 135 357 116 c 0,15,16
 469 75 469 75 512.5 75 c 128,-1,17
 556 75 556 75 572 107.5 c 128,-1,18
 588 140 588 140 595 217 c 2,19,-1
 649 810 l 2,20,21
 665 984 665 984 689 1067 c 128,-1,22
 713 1150 713 1150 772 1206 c 1,23,-1
 773 1216 l 1,24,-1
 548 1216 l 2,25,26
 410 1216 410 1216 361 1156 c 128,-1,27
 312 1096 312 1096 312 929 c 2,28,-1
 312 799 l 1,29,30
 290 775 290 775 242 759.5 c 128,-1,31
 194 744 194 744 141 744 c 1,32,33
 137 772 137 772 137 807 c 0,34,35
 137 953 137 953 207.5 1070.5 c 128,-1,36
 278 1188 278 1188 393.5 1251 c 128,-1,37
 509 1314 509 1314 645 1314 c 2,0,-1
697 1686 m 1,38,-1
 819 1665 l 1,39,40
 791 1584 791 1584 711 1522 c 128,-1,41
 631 1460 631 1460 534 1424 c 1,42,-1
 504 1452 l 1,43,44
 643 1540 643 1540 697 1686 c 1,38,-1
EndSplineSet
EndChar

StartChar: Icircumflex
Encoding: 206 206 145
Width: 840
GlyphClass: 2
Flags: W
LayerCount: 2
Fore
SplineSet
645 1314 m 2,0,-1
 978 1314 l 1,1,-1
 976 1285 l 1,2,3
 937 1253 937 1253 918.5 1196.5 c 128,-1,4
 900 1140 900 1140 890 1041 c 2,5,-1
 828 384 l 2,6,7
 809 181 809 181 710.5 81 c 128,-1,8
 612 -19 612 -19 431 -19 c 2,9,-1
 240 -19 l 1,10,11
 240 23 240 23 251.5 69 c 128,-1,12
 263 115 263 115 286 140 c 1,13,14
 303 135 303 135 357 116 c 0,15,16
 469 75 469 75 512.5 75 c 128,-1,17
 556 75 556 75 572 107.5 c 128,-1,18
 588 140 588 140 595 217 c 2,19,-1
 649 810 l 2,20,21
 665 984 665 984 689 1067 c 128,-1,22
 713 1150 713 1150 772 1206 c 1,23,-1
 773 1216 l 1,24,-1
 548 1216 l 2,25,26
 410 1216 410 1216 361 1156 c 128,-1,27
 312 1096 312 1096 312 929 c 2,28,-1
 312 799 l 1,29,30
 290 775 290 775 242 759.5 c 128,-1,31
 194 744 194 744 141 744 c 1,32,33
 137 772 137 772 137 807 c 0,34,35
 137 953 137 953 207.5 1070.5 c 128,-1,36
 278 1188 278 1188 393.5 1251 c 128,-1,37
 509 1314 509 1314 645 1314 c 2,0,-1
675 1674 m 1,38,39
 700 1681 700 1681 728 1681 c 128,-1,40
 756 1681 756 1681 787 1667 c 1,41,42
 787 1566 787 1566 889 1477 c 1,43,-1
 861 1445 l 1,44,45
 751 1490 751 1490 707 1559 c 1,46,47
 639 1488 639 1488 509 1445 c 1,48,-1
 482 1478 l 1,49,50
 635 1558 635 1558 675 1674 c 1,38,39
EndSplineSet
EndChar

StartChar: Idieresis
Encoding: 207 207 146
Width: 840
GlyphClass: 2
Flags: W
LayerCount: 2
Fore
SplineSet
645 1314 m 2,0,-1
 978 1314 l 1,1,-1
 976 1285 l 1,2,3
 937 1253 937 1253 918.5 1196.5 c 128,-1,4
 900 1140 900 1140 890 1041 c 2,5,-1
 828 384 l 2,6,7
 809 181 809 181 710.5 81 c 128,-1,8
 612 -19 612 -19 431 -19 c 2,9,-1
 240 -19 l 1,10,11
 240 23 240 23 251.5 69 c 128,-1,12
 263 115 263 115 286 140 c 1,13,14
 303 135 303 135 357 116 c 0,15,16
 469 75 469 75 512.5 75 c 128,-1,17
 556 75 556 75 572 107.5 c 128,-1,18
 588 140 588 140 595 217 c 2,19,-1
 649 810 l 2,20,21
 665 984 665 984 689 1067 c 128,-1,22
 713 1150 713 1150 772 1206 c 1,23,-1
 773 1216 l 1,24,-1
 548 1216 l 2,25,26
 410 1216 410 1216 361 1156 c 128,-1,27
 312 1096 312 1096 312 929 c 2,28,-1
 312 799 l 1,29,30
 290 775 290 775 242 759.5 c 128,-1,31
 194 744 194 744 141 744 c 1,32,33
 137 772 137 772 137 807 c 0,34,35
 137 953 137 953 207.5 1070.5 c 128,-1,36
 278 1188 278 1188 393.5 1251 c 128,-1,37
 509 1314 509 1314 645 1314 c 2,0,-1
572 1556 m 1,38,-1
 656 1642 l 1,39,40
 720 1599 720 1599 746 1552 c 1,41,42
 722 1510 722 1510 660 1458 c 1,43,44
 589 1517 589 1517 572 1556 c 1,38,-1
819 1556 m 1,45,-1
 902 1642 l 1,46,47
 965 1601 965 1601 992 1552 c 1,48,49
 970 1511 970 1511 908 1458 c 1,50,51
 837 1514 837 1514 819 1556 c 1,45,-1
EndSplineSet
EndChar

StartChar: Eth
Encoding: 208 208 147
Width: 1495
GlyphClass: 2
Flags: W
LayerCount: 2
Fore
SplineSet
933 645 m 1,0,1
 933 620 933 620 916.5 598.5 c 128,-1,2
 900 577 900 577 883 570 c 1,3,-1
 767 570 l 1,4,-1
 745 375 l 2,5,6
 734 281 734 281 712 216.5 c 128,-1,7
 690 152 690 152 641 118 c 1,8,-1
 872 118 l 2,9,10
 1112 118 1112 118 1229.5 270 c 128,-1,11
 1347 422 1347 422 1347 689 c 128,-1,12
 1347 956 1347 956 1202.5 1106.5 c 128,-1,13
 1058 1257 1058 1257 819 1257 c 0,14,15
 610 1257 610 1257 474 1134 c 1,16,17
 405 1073 405 1073 366.5 969.5 c 128,-1,18
 328 866 328 866 328 730 c 1,19,20
 275 670 275 670 144 635 c 1,21,22
 141 674 141 674 141 690 c 0,23,24
 141 889 141 889 244 1039.5 c 128,-1,25
 347 1190 347 1190 529 1270 c 128,-1,26
 711 1350 711 1350 946 1350 c 0,27,28
 1120 1350 1120 1350 1259.5 1284 c 128,-1,29
 1399 1218 1399 1218 1482 1091.5 c 128,-1,30
 1565 965 1565 965 1565 799 c 0,31,32
 1565 605 1565 605 1504.5 452.5 c 128,-1,33
 1444 300 1444 300 1334 202 c 0,34,35
 1107 0 1107 0 733 0 c 2,36,-1
 354 0 l 1,37,-1
 347 42 l 1,38,39
 437 58 437 58 468.5 97.5 c 128,-1,40
 500 137 500 137 514.5 250 c 128,-1,41
 529 363 529 363 548 570 c 1,42,-1
 405 570 l 1,43,-1
 438 645 l 1,44,-1
 555 645 l 1,45,-1
 579 927 l 2,46,47
 587 1021 587 1021 641 1072 c 128,-1,48
 695 1123 695 1123 819 1123 c 1,49,50
 784 727 784 727 775 645 c 1,51,-1
 933 645 l 1,0,1
EndSplineSet
EndChar

StartChar: Ntilde
Encoding: 209 209 148
Width: 1495
GlyphClass: 2
Flags: W
LayerCount: 2
Fore
SplineSet
616 1317 m 1,0,-1
 815 1311 l 2,1,2
 844 1311 844 1311 930 1319 c 1,3,4
 932 1268 932 1268 949 1203 c 128,-1,5
 966 1138 966 1138 979.5 1101 c 128,-1,6
 993 1064 993 1064 1030 972 c 0,7,8
 1175 618 1175 618 1216 468 c 1,9,10
 1245 626 1245 626 1319 1021 c 0,11,12
 1359 1230 1359 1230 1466 1317 c 0,13,14
 1506 1350 1506 1350 1567 1370.5 c 128,-1,15
 1628 1391 1628 1391 1694.5 1391 c 128,-1,16
 1761 1391 1761 1391 1805 1379 c 1,17,18
 1794 1272 1794 1272 1741 1240 c 1,19,20
 1735 1242 1735 1242 1718 1249.5 c 128,-1,21
 1701 1257 1701 1257 1696 1259 c 128,-1,22
 1691 1261 1691 1261 1677.5 1266.5 c 128,-1,23
 1664 1272 1664 1272 1658.5 1273.5 c 128,-1,24
 1653 1275 1653 1275 1642.5 1278.5 c 128,-1,25
 1632 1282 1632 1282 1626 1283 c 0,26,27
 1606 1286 1606 1286 1593 1286 c 0,28,29
 1528 1286 1528 1286 1488 1233 c 128,-1,30
 1448 1180 1448 1180 1423.5 1065.5 c 128,-1,31
 1399 951 1399 951 1328.5 552 c 128,-1,32
 1258 153 1258 153 1222 -6 c 1,33,34
 1196 -16 1196 -16 1165.5 -16 c 128,-1,35
 1135 -16 1135 -16 1114 -2 c 1,36,37
 1086 142 1086 142 1024.5 314.5 c 128,-1,38
 963 487 963 487 887 678.5 c 128,-1,39
 811 870 811 870 773 990 c 1,40,41
 766 950 766 950 747.5 839.5 c 128,-1,42
 729 729 729 729 718.5 667.5 c 128,-1,43
 708 606 708 606 691 514 c 0,44,45
 659 343 659 343 626 201 c 128,-1,46
 593 59 593 59 490 -28 c 128,-1,47
 387 -115 387 -115 219 -115 c 0,48,49
 186 -115 186 -115 111 -104 c 1,50,51
 109 -91 109 -91 109 -78 c 0,52,53
 109 -17 109 -17 173 34 c 1,54,55
 302 -11 302 -11 332 -11 c 0,56,57
 385 -11 385 -11 433.5 45 c 128,-1,58
 482 101 482 101 508 190 c 0,59,60
 588 469 588 469 692 1141 c 0,61,62
 699 1188 699 1188 727 1216 c 1,63,-1
 480 1216 l 2,64,65
 370 1216 370 1216 322 1144 c 128,-1,66
 274 1072 274 1072 274 924 c 0,67,68
 274 918 274 918 279 845 c 2,69,-1
 282 807 l 1,70,71
 256 776 256 776 207 753 c 128,-1,72
 158 730 158 730 100 726 c 1,73,74
 88 794 88 794 88 845 c 0,75,76
 88 1061 88 1061 225.5 1189 c 128,-1,77
 363 1317 363 1317 616 1317 c 1,0,-1
1054 1516 m 0,78,79
 981 1516 981 1516 921 1462 c 1,80,-1
 903 1489 l 1,81,82
 988 1589 988 1589 1065 1623 c 1,83,84
 1096 1623 1096 1623 1171.5 1599.5 c 128,-1,85
 1247 1576 1247 1576 1273 1576 c 0,86,87
 1350 1576 1350 1576 1410 1618 c 1,88,-1
 1432 1597 l 1,89,90
 1344 1492 1344 1492 1260 1466 c 1,91,92
 1228 1466 1228 1466 1154 1491 c 128,-1,93
 1080 1516 1080 1516 1054 1516 c 0,78,79
EndSplineSet
EndChar

StartChar: Ograve
Encoding: 210 210 149
Width: 1311
GlyphClass: 2
Flags: W
LayerCount: 2
Fore
SplineSet
915 1331 m 0,0,1
 1010 1331 1010 1331 1083.5 1295.5 c 128,-1,2
 1157 1260 1157 1260 1200 1198 c 0,3,4
 1288 1072 1288 1072 1288 886 c 0,5,6
 1288 736 1288 736 1246 594.5 c 128,-1,7
 1204 453 1204 453 1131.5 344 c 128,-1,8
 1059 235 1059 235 965.5 152.5 c 128,-1,9
 872 70 872 70 764.5 26 c 128,-1,10
 657 -18 657 -18 551 -18 c 0,11,12
 403 -18 403 -18 306 102.5 c 128,-1,13
 209 223 209 223 209 404 c 128,-1,14
 209 585 209 585 267 752 c 128,-1,15
 325 919 325 919 420.5 1046 c 128,-1,16
 516 1173 516 1173 647 1252 c 128,-1,17
 778 1331 778 1331 915 1331 c 0,0,1
819 1228 m 0,18,19
 724 1228 724 1228 642.5 1125 c 128,-1,20
 561 1022 561 1022 515 859 c 128,-1,21
 469 696 469 696 469 518 c 0,22,23
 469 272 469 272 545 156 c 0,24,25
 587 91 587 91 652 91 c 128,-1,26
 717 91 717 91 787 144 c 128,-1,27
 857 197 857 197 912 285.5 c 128,-1,28
 967 374 967 374 1001.5 499 c 128,-1,29
 1036 624 1036 624 1036 758 c 0,30,31
 1036 976 1036 976 982.5 1102 c 128,-1,32
 929 1228 929 1228 819 1228 c 0,18,19
694 1664 m 1,33,-1
 821 1685 l 1,34,35
 844 1616 844 1616 895.5 1552 c 128,-1,36
 947 1488 947 1488 1006 1454 c 1,37,-1
 976 1425 l 1,38,39
 880 1462 880 1462 801.5 1524.5 c 128,-1,40
 723 1587 723 1587 694 1664 c 1,33,-1
EndSplineSet
EndChar

StartChar: Oacute
Encoding: 211 211 150
Width: 1311
GlyphClass: 2
Flags: W
LayerCount: 2
Fore
SplineSet
915 1331 m 0,0,1
 1010 1331 1010 1331 1083.5 1295.5 c 128,-1,2
 1157 1260 1157 1260 1200 1198 c 0,3,4
 1288 1072 1288 1072 1288 886 c 0,5,6
 1288 736 1288 736 1246 594.5 c 128,-1,7
 1204 453 1204 453 1131.5 344 c 128,-1,8
 1059 235 1059 235 965.5 152.5 c 128,-1,9
 872 70 872 70 764.5 26 c 128,-1,10
 657 -18 657 -18 551 -18 c 0,11,12
 403 -18 403 -18 306 102.5 c 128,-1,13
 209 223 209 223 209 404 c 128,-1,14
 209 585 209 585 267 752 c 128,-1,15
 325 919 325 919 420.5 1046 c 128,-1,16
 516 1173 516 1173 647 1252 c 128,-1,17
 778 1331 778 1331 915 1331 c 0,0,1
819 1228 m 0,18,19
 724 1228 724 1228 642.5 1125 c 128,-1,20
 561 1022 561 1022 515 859 c 128,-1,21
 469 696 469 696 469 518 c 0,22,23
 469 272 469 272 545 156 c 0,24,25
 587 91 587 91 652 91 c 128,-1,26
 717 91 717 91 787 144 c 128,-1,27
 857 197 857 197 912 285.5 c 128,-1,28
 967 374 967 374 1001.5 499 c 128,-1,29
 1036 624 1036 624 1036 758 c 0,30,31
 1036 976 1036 976 982.5 1102 c 128,-1,32
 929 1228 929 1228 819 1228 c 0,18,19
1005 1686 m 1,33,-1
 1127 1665 l 1,34,35
 1099 1584 1099 1584 1019 1522 c 128,-1,36
 939 1460 939 1460 842 1424 c 1,37,-1
 812 1452 l 1,38,39
 951 1540 951 1540 1005 1686 c 1,33,-1
EndSplineSet
EndChar

StartChar: Ocircumflex
Encoding: 212 212 151
Width: 1311
GlyphClass: 2
Flags: W
LayerCount: 2
Fore
SplineSet
915 1331 m 0,0,1
 1010 1331 1010 1331 1083.5 1295.5 c 128,-1,2
 1157 1260 1157 1260 1200 1198 c 0,3,4
 1288 1072 1288 1072 1288 886 c 0,5,6
 1288 736 1288 736 1246 594.5 c 128,-1,7
 1204 453 1204 453 1131.5 344 c 128,-1,8
 1059 235 1059 235 965.5 152.5 c 128,-1,9
 872 70 872 70 764.5 26 c 128,-1,10
 657 -18 657 -18 551 -18 c 0,11,12
 403 -18 403 -18 306 102.5 c 128,-1,13
 209 223 209 223 209 404 c 128,-1,14
 209 585 209 585 267 752 c 128,-1,15
 325 919 325 919 420.5 1046 c 128,-1,16
 516 1173 516 1173 647 1252 c 128,-1,17
 778 1331 778 1331 915 1331 c 0,0,1
819 1228 m 0,18,19
 724 1228 724 1228 642.5 1125 c 128,-1,20
 561 1022 561 1022 515 859 c 128,-1,21
 469 696 469 696 469 518 c 0,22,23
 469 272 469 272 545 156 c 0,24,25
 587 91 587 91 652 91 c 128,-1,26
 717 91 717 91 787 144 c 128,-1,27
 857 197 857 197 912 285.5 c 128,-1,28
 967 374 967 374 1001.5 499 c 128,-1,29
 1036 624 1036 624 1036 758 c 0,30,31
 1036 976 1036 976 982.5 1102 c 128,-1,32
 929 1228 929 1228 819 1228 c 0,18,19
927 1674 m 1,33,34
 952 1681 952 1681 980 1681 c 128,-1,35
 1008 1681 1008 1681 1039 1667 c 1,36,37
 1039 1566 1039 1566 1141 1477 c 1,38,-1
 1113 1445 l 1,39,40
 1003 1490 1003 1490 959 1559 c 1,41,42
 891 1488 891 1488 761 1445 c 1,43,-1
 734 1478 l 1,44,45
 887 1558 887 1558 927 1674 c 1,33,34
EndSplineSet
EndChar

StartChar: Otilde
Encoding: 213 213 152
Width: 1311
GlyphClass: 2
Flags: W
LayerCount: 2
Fore
SplineSet
915 1331 m 0,0,1
 1010 1331 1010 1331 1083.5 1295.5 c 128,-1,2
 1157 1260 1157 1260 1200 1198 c 0,3,4
 1288 1072 1288 1072 1288 886 c 0,5,6
 1288 736 1288 736 1246 594.5 c 128,-1,7
 1204 453 1204 453 1131.5 344 c 128,-1,8
 1059 235 1059 235 965.5 152.5 c 128,-1,9
 872 70 872 70 764.5 26 c 128,-1,10
 657 -18 657 -18 551 -18 c 0,11,12
 403 -18 403 -18 306 102.5 c 128,-1,13
 209 223 209 223 209 404 c 128,-1,14
 209 585 209 585 267 752 c 128,-1,15
 325 919 325 919 420.5 1046 c 128,-1,16
 516 1173 516 1173 647 1252 c 128,-1,17
 778 1331 778 1331 915 1331 c 0,0,1
819 1228 m 0,18,19
 724 1228 724 1228 642.5 1125 c 128,-1,20
 561 1022 561 1022 515 859 c 128,-1,21
 469 696 469 696 469 518 c 0,22,23
 469 272 469 272 545 156 c 0,24,25
 587 91 587 91 652 91 c 128,-1,26
 717 91 717 91 787 144 c 128,-1,27
 857 197 857 197 912 285.5 c 128,-1,28
 967 374 967 374 1001.5 499 c 128,-1,29
 1036 624 1036 624 1036 758 c 0,30,31
 1036 976 1036 976 982.5 1102 c 128,-1,32
 929 1228 929 1228 819 1228 c 0,18,19
818 1516 m 0,33,34
 745 1516 745 1516 685 1462 c 1,35,-1
 667 1489 l 1,36,37
 752 1589 752 1589 829 1623 c 1,38,39
 860 1623 860 1623 935.5 1599.5 c 128,-1,40
 1011 1576 1011 1576 1037 1576 c 0,41,42
 1114 1576 1114 1576 1174 1618 c 1,43,-1
 1196 1597 l 1,44,45
 1108 1492 1108 1492 1024 1466 c 1,46,47
 992 1466 992 1466 918 1491 c 128,-1,48
 844 1516 844 1516 818 1516 c 0,33,34
EndSplineSet
EndChar

StartChar: Odieresis
Encoding: 214 214 153
Width: 1311
GlyphClass: 2
Flags: W
LayerCount: 2
Fore
SplineSet
915 1331 m 0,0,1
 1010 1331 1010 1331 1083.5 1295.5 c 128,-1,2
 1157 1260 1157 1260 1200 1198 c 0,3,4
 1288 1072 1288 1072 1288 886 c 0,5,6
 1288 736 1288 736 1246 594.5 c 128,-1,7
 1204 453 1204 453 1131.5 344 c 128,-1,8
 1059 235 1059 235 965.5 152.5 c 128,-1,9
 872 70 872 70 764.5 26 c 128,-1,10
 657 -18 657 -18 551 -18 c 0,11,12
 403 -18 403 -18 306 102.5 c 128,-1,13
 209 223 209 223 209 404 c 128,-1,14
 209 585 209 585 267 752 c 128,-1,15
 325 919 325 919 420.5 1046 c 128,-1,16
 516 1173 516 1173 647 1252 c 128,-1,17
 778 1331 778 1331 915 1331 c 0,0,1
819 1228 m 0,18,19
 724 1228 724 1228 642.5 1125 c 128,-1,20
 561 1022 561 1022 515 859 c 128,-1,21
 469 696 469 696 469 518 c 0,22,23
 469 272 469 272 545 156 c 0,24,25
 587 91 587 91 652 91 c 128,-1,26
 717 91 717 91 787 144 c 128,-1,27
 857 197 857 197 912 285.5 c 128,-1,28
 967 374 967 374 1001.5 499 c 128,-1,29
 1036 624 1036 624 1036 758 c 0,30,31
 1036 976 1036 976 982.5 1102 c 128,-1,32
 929 1228 929 1228 819 1228 c 0,18,19
749 1556 m 1,33,-1
 833 1642 l 1,34,35
 897 1599 897 1599 923 1552 c 1,36,37
 899 1510 899 1510 837 1458 c 1,38,39
 766 1517 766 1517 749 1556 c 1,33,-1
996 1556 m 1,40,-1
 1079 1642 l 1,41,42
 1142 1601 1142 1601 1169 1552 c 1,43,44
 1147 1511 1147 1511 1085 1458 c 1,45,46
 1014 1514 1014 1514 996 1556 c 1,40,-1
EndSplineSet
EndChar

StartChar: multiply
Encoding: 215 215 154
Width: 1065
GlyphClass: 2
Flags: W
LayerCount: 2
Fore
SplineSet
762 603 m 1,0,-1
 1032 318 l 1,1,-1
 937 228 l 1,2,-1
 666 513 l 1,3,-1
 369 230 l 1,4,-1
 279 318 l 1,5,-1
 580 604 l 1,6,-1
 310 889 l 1,7,-1
 405 980 l 1,8,-1
 676 694 l 1,9,-1
 977 981 l 1,10,-1
 1060 887 l 1,11,-1
 762 603 l 1,0,-1
EndSplineSet
EndChar

StartChar: Oslash
Encoding: 216 216 155
Width: 1423
GlyphClass: 2
Flags: W
LayerCount: 2
Fore
SplineSet
1470 886 m 0,0,1
 1470 698 1470 698 1406 528 c 128,-1,2
 1342 358 1342 358 1238 239.5 c 128,-1,3
 1134 121 1134 121 999 51.5 c 128,-1,4
 864 -18 864 -18 723 -18 c 0,5,6
 643 -18 643 -18 573.5 19 c 128,-1,7
 504 56 504 56 456 124 c 1,8,-1
 309 -34 l 1,9,-1
 262 4 l 1,10,-1
 423 178 l 1,11,12
 371 282 371 282 371 415 c 0,13,14
 371 586 371 586 428 752.5 c 128,-1,15
 485 919 485 919 580 1046.5 c 128,-1,16
 675 1174 675 1174 809 1252.5 c 128,-1,17
 943 1331 943 1331 1087 1331 c 0,18,19
 1272 1331 1272 1331 1374 1201 c 1,20,-1
 1525 1364 l 1,21,-1
 1572 1323 l 1,22,-1
 1409 1148 l 1,23,24
 1470 1038 1470 1038 1470 886 c 0,0,1
1218 758 m 0,25,26
 1218 856 1218 856 1208 932 c 1,27,-1
 646 328 l 1,28,29
 665 220 665 220 708.5 155.5 c 128,-1,30
 752 91 752 91 821 91 c 0,31,32
 922 91 922 91 1013.5 179.5 c 128,-1,33
 1105 268 1105 268 1161.5 423.5 c 128,-1,34
 1218 579 1218 579 1218 758 c 0,25,26
991 1228 m 0,35,36
 891 1228 891 1228 807 1125 c 128,-1,37
 723 1022 723 1022 677 859 c 128,-1,38
 631 696 631 696 631 518 c 0,39,40
 631 452 631 452 636 407 c 1,41,-1
 1194 1008 l 1,42,43
 1142 1228 1142 1228 991 1228 c 0,35,36
EndSplineSet
EndChar

StartChar: Ugrave
Encoding: 217 217 156
Width: 1567
GlyphClass: 2
Flags: W
LayerCount: 2
Fore
SplineSet
99 732 m 1,0,-1
 98 771 l 1,1,2
 98 887 98 887 142.5 990 c 128,-1,3
 187 1093 187 1093 259 1163 c 128,-1,4
 331 1233 331 1233 422 1274 c 128,-1,5
 513 1315 513 1315 606 1315 c 2,6,-1
 952 1315 l 1,7,-1
 953 1299 l 1,8,9
 904 1245 904 1245 853.5 1075.5 c 128,-1,10
 803 906 803 906 772.5 708.5 c 128,-1,11
 742 511 742 511 742 369 c 0,12,13
 742 104 742 104 881 104 c 0,14,15
 951 104 951 104 1013.5 157.5 c 128,-1,16
 1076 211 1076 211 1114 291 c 128,-1,17
 1152 371 1152 371 1161 457 c 0,18,19
 1216 1007 1216 1007 1295 1283 c 1,20,21
 1330 1300 1330 1300 1405.5 1319 c 128,-1,22
 1481 1338 1481 1338 1538 1346 c 1,23,-1
 1543 1319 l 1,24,25
 1485 1269 1485 1269 1440 977 c 128,-1,26
 1395 685 1395 685 1395 404 c 128,-1,27
 1395 123 1395 123 1464 123 c 0,28,29
 1542 123 1542 123 1622 137 c 1,30,-1
 1635 103 l 1,31,32
 1575 57 1575 57 1495.5 19 c 128,-1,33
 1416 -19 1416 -19 1366 -19 c 0,34,35
 1189 -19 1189 -19 1176 271 c 1,36,-1
 1172 271 l 1,37,38
 1130 202 1130 202 1091.5 154.5 c 128,-1,39
 1053 107 1053 107 1001 65 c 0,40,41
 898 -18 898 -18 737 -18 c 0,42,43
 624 -18 624 -18 569.5 66.5 c 128,-1,44
 515 151 515 151 515 288 c 0,45,46
 515 529 515 529 588.5 793.5 c 128,-1,47
 662 1058 662 1058 744 1216 c 1,48,-1
 534 1216 l 2,49,50
 395 1216 395 1216 341 1129 c 128,-1,51
 287 1042 287 1042 287 821 c 1,52,-1
 288 806 l 1,53,54
 272 776 272 776 218 754 c 128,-1,55
 164 732 164 732 99 732 c 1,0,-1
935 1664 m 1,56,-1
 1062 1685 l 1,57,58
 1085 1616 1085 1616 1136.5 1552 c 128,-1,59
 1188 1488 1188 1488 1247 1454 c 1,60,-1
 1217 1425 l 1,61,62
 1121 1462 1121 1462 1042.5 1524.5 c 128,-1,63
 964 1587 964 1587 935 1664 c 1,56,-1
EndSplineSet
EndChar

StartChar: Uacute
Encoding: 218 218 157
Width: 1567
GlyphClass: 2
Flags: W
LayerCount: 2
Fore
SplineSet
99 732 m 1,0,-1
 98 771 l 1,1,2
 98 887 98 887 142.5 990 c 128,-1,3
 187 1093 187 1093 259 1163 c 128,-1,4
 331 1233 331 1233 422 1274 c 128,-1,5
 513 1315 513 1315 606 1315 c 2,6,-1
 952 1315 l 1,7,-1
 953 1299 l 1,8,9
 904 1245 904 1245 853.5 1075.5 c 128,-1,10
 803 906 803 906 772.5 708.5 c 128,-1,11
 742 511 742 511 742 369 c 0,12,13
 742 104 742 104 881 104 c 0,14,15
 951 104 951 104 1013.5 157.5 c 128,-1,16
 1076 211 1076 211 1114 291 c 128,-1,17
 1152 371 1152 371 1161 457 c 0,18,19
 1216 1007 1216 1007 1295 1283 c 1,20,21
 1330 1300 1330 1300 1405.5 1319 c 128,-1,22
 1481 1338 1481 1338 1538 1346 c 1,23,-1
 1543 1319 l 1,24,25
 1485 1269 1485 1269 1440 977 c 128,-1,26
 1395 685 1395 685 1395 404 c 128,-1,27
 1395 123 1395 123 1464 123 c 0,28,29
 1542 123 1542 123 1622 137 c 1,30,-1
 1635 103 l 1,31,32
 1575 57 1575 57 1495.5 19 c 128,-1,33
 1416 -19 1416 -19 1366 -19 c 0,34,35
 1189 -19 1189 -19 1176 271 c 1,36,-1
 1172 271 l 1,37,38
 1130 202 1130 202 1091.5 154.5 c 128,-1,39
 1053 107 1053 107 1001 65 c 0,40,41
 898 -18 898 -18 737 -18 c 0,42,43
 624 -18 624 -18 569.5 66.5 c 128,-1,44
 515 151 515 151 515 288 c 0,45,46
 515 529 515 529 588.5 793.5 c 128,-1,47
 662 1058 662 1058 744 1216 c 1,48,-1
 534 1216 l 2,49,50
 395 1216 395 1216 341 1129 c 128,-1,51
 287 1042 287 1042 287 821 c 1,52,-1
 288 806 l 1,53,54
 272 776 272 776 218 754 c 128,-1,55
 164 732 164 732 99 732 c 1,0,-1
1230 1686 m 1,56,-1
 1352 1665 l 1,57,58
 1324 1584 1324 1584 1244 1522 c 128,-1,59
 1164 1460 1164 1460 1067 1424 c 1,60,-1
 1037 1452 l 1,61,62
 1176 1540 1176 1540 1230 1686 c 1,56,-1
EndSplineSet
EndChar

StartChar: Ucircumflex
Encoding: 219 219 158
Width: 1567
GlyphClass: 2
Flags: W
LayerCount: 2
Fore
SplineSet
99 732 m 1,0,-1
 98 771 l 1,1,2
 98 887 98 887 142.5 990 c 128,-1,3
 187 1093 187 1093 259 1163 c 128,-1,4
 331 1233 331 1233 422 1274 c 128,-1,5
 513 1315 513 1315 606 1315 c 2,6,-1
 952 1315 l 1,7,-1
 953 1299 l 1,8,9
 904 1245 904 1245 853.5 1075.5 c 128,-1,10
 803 906 803 906 772.5 708.5 c 128,-1,11
 742 511 742 511 742 369 c 0,12,13
 742 104 742 104 881 104 c 0,14,15
 951 104 951 104 1013.5 157.5 c 128,-1,16
 1076 211 1076 211 1114 291 c 128,-1,17
 1152 371 1152 371 1161 457 c 0,18,19
 1216 1007 1216 1007 1295 1283 c 1,20,21
 1330 1300 1330 1300 1405.5 1319 c 128,-1,22
 1481 1338 1481 1338 1538 1346 c 1,23,-1
 1543 1319 l 1,24,25
 1485 1269 1485 1269 1440 977 c 128,-1,26
 1395 685 1395 685 1395 404 c 128,-1,27
 1395 123 1395 123 1464 123 c 0,28,29
 1542 123 1542 123 1622 137 c 1,30,-1
 1635 103 l 1,31,32
 1575 57 1575 57 1495.5 19 c 128,-1,33
 1416 -19 1416 -19 1366 -19 c 0,34,35
 1189 -19 1189 -19 1176 271 c 1,36,-1
 1172 271 l 1,37,38
 1130 202 1130 202 1091.5 154.5 c 128,-1,39
 1053 107 1053 107 1001 65 c 0,40,41
 898 -18 898 -18 737 -18 c 0,42,43
 624 -18 624 -18 569.5 66.5 c 128,-1,44
 515 151 515 151 515 288 c 0,45,46
 515 529 515 529 588.5 793.5 c 128,-1,47
 662 1058 662 1058 744 1216 c 1,48,-1
 534 1216 l 2,49,50
 395 1216 395 1216 341 1129 c 128,-1,51
 287 1042 287 1042 287 821 c 1,52,-1
 288 806 l 1,53,54
 272 776 272 776 218 754 c 128,-1,55
 164 732 164 732 99 732 c 1,0,-1
1142 1674 m 1,56,57
 1166 1681 1166 1681 1194.5 1681 c 128,-1,58
 1223 1681 1223 1681 1254 1667 c 1,59,60
 1254 1566 1254 1566 1356 1477 c 1,61,-1
 1328 1445 l 1,62,63
 1218 1490 1218 1490 1174 1559 c 1,64,65
 1106 1488 1106 1488 976 1445 c 1,66,-1
 949 1478 l 1,67,68
 1102 1558 1102 1558 1142 1674 c 1,56,57
EndSplineSet
EndChar

StartChar: Udieresis
Encoding: 220 220 159
Width: 1567
GlyphClass: 2
Flags: W
LayerCount: 2
Fore
SplineSet
99 732 m 1,0,-1
 98 771 l 1,1,2
 98 887 98 887 142.5 990 c 128,-1,3
 187 1093 187 1093 259 1163 c 128,-1,4
 331 1233 331 1233 422 1274 c 128,-1,5
 513 1315 513 1315 606 1315 c 2,6,-1
 952 1315 l 1,7,-1
 953 1299 l 1,8,9
 904 1245 904 1245 853.5 1075.5 c 128,-1,10
 803 906 803 906 772.5 708.5 c 128,-1,11
 742 511 742 511 742 369 c 0,12,13
 742 104 742 104 881 104 c 0,14,15
 951 104 951 104 1013.5 157.5 c 128,-1,16
 1076 211 1076 211 1114 291 c 128,-1,17
 1152 371 1152 371 1161 457 c 0,18,19
 1216 1007 1216 1007 1295 1283 c 1,20,21
 1330 1300 1330 1300 1405.5 1319 c 128,-1,22
 1481 1338 1481 1338 1538 1346 c 1,23,-1
 1543 1319 l 1,24,25
 1485 1269 1485 1269 1440 977 c 128,-1,26
 1395 685 1395 685 1395 404 c 128,-1,27
 1395 123 1395 123 1464 123 c 0,28,29
 1542 123 1542 123 1622 137 c 1,30,-1
 1635 103 l 1,31,32
 1575 57 1575 57 1495.5 19 c 128,-1,33
 1416 -19 1416 -19 1366 -19 c 0,34,35
 1189 -19 1189 -19 1176 271 c 1,36,-1
 1172 271 l 1,37,38
 1130 202 1130 202 1091.5 154.5 c 128,-1,39
 1053 107 1053 107 1001 65 c 0,40,41
 898 -18 898 -18 737 -18 c 0,42,43
 624 -18 624 -18 569.5 66.5 c 128,-1,44
 515 151 515 151 515 288 c 0,45,46
 515 529 515 529 588.5 793.5 c 128,-1,47
 662 1058 662 1058 744 1216 c 1,48,-1
 534 1216 l 2,49,50
 395 1216 395 1216 341 1129 c 128,-1,51
 287 1042 287 1042 287 821 c 1,52,-1
 288 806 l 1,53,54
 272 776 272 776 218 754 c 128,-1,55
 164 732 164 732 99 732 c 1,0,-1
958 1556 m 1,56,-1
 1042 1642 l 1,57,58
 1106 1599 1106 1599 1132 1552 c 1,59,60
 1108 1510 1108 1510 1046 1458 c 1,61,62
 975 1517 975 1517 958 1556 c 1,56,-1
1205 1556 m 1,63,-1
 1288 1642 l 1,64,65
 1351 1601 1351 1601 1378 1552 c 1,66,67
 1356 1511 1356 1511 1294 1458 c 1,68,69
 1223 1514 1223 1514 1205 1556 c 1,63,-1
EndSplineSet
EndChar

StartChar: Yacute
Encoding: 221 221 160
Width: 1208
GlyphClass: 2
Flags: W
LayerCount: 2
Fore
SplineSet
1194 1118 m 0,0,1
 1194 1162 1194 1162 1172.5 1187.5 c 128,-1,2
 1151 1213 1151 1213 1109 1213 c 0,3,4
 1090 1213 1090 1213 1082 1215.5 c 128,-1,5
 1074 1218 1074 1218 1074 1229 c 128,-1,6
 1074 1240 1074 1240 1094.5 1264 c 128,-1,7
 1115 1288 1115 1288 1133.5 1304.5 c 128,-1,8
 1152 1321 1152 1321 1196.5 1321 c 128,-1,9
 1241 1321 1241 1321 1284 1314.5 c 128,-1,10
 1327 1308 1327 1308 1364.5 1289.5 c 128,-1,11
 1402 1271 1402 1271 1402 1246 c 0,12,13
 1402 1056 1402 1056 1282 813 c 128,-1,14
 1162 570 1162 570 968 359 c 0,15,16
 941 330 941 330 890 283 c 128,-1,17
 839 236 839 236 803 199.5 c 128,-1,18
 767 163 767 163 729 116 c 0,19,20
 651 18 651 18 651 -102 c 0,21,22
 651 -152 651 -152 681.5 -178 c 128,-1,23
 712 -204 712 -204 759 -204 c 128,-1,24
 806 -204 806 -204 865.5 -178 c 128,-1,25
 925 -152 925 -152 977.5 -126.5 c 128,-1,26
 1030 -101 1030 -101 1060 -101 c 0,27,28
 1094 -101 1094 -101 1109 -151 c 128,-1,29
 1124 -201 1124 -201 1124 -265 c 1,30,31
 942 -309 942 -309 764 -309 c 0,32,33
 661 -309 661 -309 605 -260 c 128,-1,34
 549 -211 549 -211 549 -106 c 128,-1,35
 549 -1 549 -1 603.5 94 c 128,-1,36
 658 189 658 189 762 298 c 1,37,-1
 762 465 l 2,38,39
 762 808 762 808 678.5 1013 c 128,-1,40
 595 1218 595 1218 445 1218 c 0,41,42
 334 1218 334 1218 294 1155.5 c 128,-1,43
 254 1093 254 1093 254 961 c 0,44,45
 254 926 254 926 260 860 c 1,46,47
 241 835 241 835 185.5 816.5 c 128,-1,48
 130 798 130 798 67 792 c 1,49,50
 65 818 65 818 65 842 c 0,51,52
 65 1070 65 1070 199 1194.5 c 128,-1,53
 333 1319 333 1319 562 1319 c 0,54,55
 645 1319 645 1319 711 1289 c 128,-1,56
 777 1259 777 1259 820.5 1204.5 c 128,-1,57
 864 1150 864 1150 894.5 1083.5 c 128,-1,58
 925 1017 925 1017 940 934 c 0,59,60
 969 780 969 780 969 643 c 128,-1,61
 969 506 969 506 965 461 c 1,62,-1
 968 460 l 1,63,64
 1194 769 1194 769 1194 1118 c 0,0,1
1057 1686 m 1,65,-1
 1179 1665 l 1,66,67
 1151 1584 1151 1584 1071 1522 c 128,-1,68
 991 1460 991 1460 894 1424 c 1,69,-1
 864 1452 l 1,70,71
 1003 1540 1003 1540 1057 1686 c 1,65,-1
EndSplineSet
EndChar

StartChar: Thorn
Encoding: 222 222 161
Width: 1188
GlyphClass: 2
Flags: W
LayerCount: 2
Fore
SplineSet
893 1101 m 1,0,-1
 943 1102 l 1,1,2
 1122 1102 1122 1102 1256 1032 c 0,3,4
 1324 997 1324 997 1364.5 936.5 c 128,-1,5
 1405 876 1405 876 1405 798 c 0,6,7
 1405 612 1405 612 1259 500 c 128,-1,8
 1113 388 1113 388 868 388 c 0,9,10
 839 388 839 388 824 389 c 1,11,-1
 814 277 l 2,12,13
 807 202 807 202 786.5 156 c 128,-1,14
 766 110 766 110 724 87 c 1,15,-1
 724 82 l 1,16,-1
 821 82 l 2,17,18
 873 82 873 82 901 96 c 128,-1,19
 929 110 929 110 969 153 c 1,20,-1
 984 146 l 1,21,22
 975 110 975 110 966 88.5 c 128,-1,23
 957 67 957 67 938 44 c 0,24,25
 902 0 902 0 804 0 c 2,26,-1
 404 0 l 1,27,-1
 407 33 l 1,28,29
 512 53 512 53 552 114.5 c 128,-1,30
 592 176 592 176 601 299 c 1,31,-1
 663 975 l 2,32,33
 663 982 663 982 665 996 c 1,34,35
 532 974 532 974 448 889 c 128,-1,36
 364 804 364 804 364 659 c 0,37,38
 364 623 364 623 372 578 c 1,39,40
 350 547 350 547 295.5 524.5 c 128,-1,41
 241 502 241 502 186 502 c 0,42,43
 172 502 172 502 166 503 c 1,44,45
 197 743 197 743 325.5 889.5 c 128,-1,46
 454 1036 454 1036 676 1070 c 1,47,48
 697 1169 697 1169 751 1209 c 1,49,-1
 752 1216 l 1,50,-1
 609 1216 l 2,51,52
 525 1216 525 1216 479 1185 c 1,53,-1
 461 1196 l 1,54,55
 489 1259 489 1259 533 1286.5 c 128,-1,56
 577 1314 577 1314 644 1314 c 2,57,-1
 979 1314 l 1,58,-1
 977 1287 l 1,59,60
 939 1252 939 1252 920.5 1214.5 c 128,-1,61
 902 1177 902 1177 893 1101 c 1,0,-1
1118.5 518.5 m 128,-1,63
 1193 589 1193 589 1193 730 c 128,-1,64
 1193 871 1193 871 1106.5 942 c 128,-1,65
 1020 1013 1020 1013 884 1013 c 1,66,-1
 831 457 l 1,67,68
 880 448 880 448 917 448 c 0,69,62
 1044 448 1044 448 1118.5 518.5 c 128,-1,63
EndSplineSet
EndChar

StartChar: germandbls
Encoding: 223 223 162
Width: 922
GlyphClass: 2
Flags: W
LayerCount: 2
Fore
SplineSet
897 1191 m 0,0,1
 897 1272 897 1272 857 1332 c 128,-1,2
 817 1392 817 1392 744 1392 c 0,3,4
 651 1392 651 1392 600 1301.5 c 128,-1,5
 549 1211 549 1211 520 1020 c 2,6,-1
 385 131 l 2,7,8
 366 7 366 7 332.5 -81.5 c 128,-1,9
 299 -170 299 -170 241 -238 c 0,10,11
 126 -373 126 -373 -125 -373 c 0,12,13
 -190 -373 -190 -373 -267 -357 c 1,14,15
 -265 -308 -265 -308 -247 -266.5 c 128,-1,16
 -229 -225 -229 -225 -197 -207 c 1,17,18
 -150 -223 -150 -223 -81 -239 c 128,-1,19
 -12 -255 -12 -255 29 -255 c 0,20,21
 88 -255 88 -255 115 -209 c 128,-1,22
 142 -163 142 -163 163 -35 c 2,23,-1
 327 990 l 2,24,25
 362 1212 362 1212 503 1345 c 128,-1,26
 644 1478 644 1478 839 1478 c 0,27,28
 937 1478 937 1478 996.5 1424.5 c 128,-1,29
 1056 1371 1056 1371 1056 1287 c 0,30,31
 1056 1170 1056 1170 996 1088 c 0,32,33
 949 1024 949 1024 874 960 c 0,34,35
 842 933 842 933 816 908 c 0,36,37
 756 850 756 850 756 792 c 0,38,39
 756 726 756 726 840 626 c 0,40,41
 875 585 875 585 910 540.5 c 128,-1,42
 945 496 945 496 969.5 438.5 c 128,-1,43
 994 381 994 381 994 322 c 0,44,45
 994 178 994 178 895 85 c 128,-1,46
 796 -8 796 -8 626 -8 c 0,47,48
 526 -8 526 -8 457 36 c 1,49,50
 472 133 472 133 546 202 c 1,51,52
 658 83 658 83 740 83 c 0,53,54
 842 83 842 83 842 183 c 0,55,56
 842 257 842 257 750 368 c 0,57,58
 712 413 712 413 674 461 c 128,-1,59
 636 509 636 509 609 568.5 c 128,-1,60
 582 628 582 628 582 681 c 128,-1,61
 582 734 582 734 599.5 772.5 c 128,-1,62
 617 811 617 811 644.5 839 c 128,-1,63
 672 867 672 867 706 894 c 128,-1,64
 740 921 740 921 773.5 950 c 128,-1,65
 807 979 807 979 834 1011 c 0,66,67
 897 1084 897 1084 897 1191 c 0,0,1
EndSplineSet
EndChar

StartChar: agrave
Encoding: 224 224 163
Width: 940
GlyphClass: 2
Flags: W
LayerCount: 2
Fore
SplineSet
679 869 m 0,0,1
 777 869 777 869 885 858 c 1,2,3
 881 612 881 612 783 115 c 1,4,-1
 790 111 l 1,5,6
 895 168 895 168 999 312 c 1,7,-1
 1019 299 l 1,8,9
 962 184 962 184 860 83.5 c 128,-1,10
 758 -17 758 -17 676 -17 c 0,11,12
 639 -17 639 -17 614.5 1 c 128,-1,13
 590 19 590 19 590 43 c 128,-1,14
 590 67 590 67 608 138.5 c 128,-1,15
 626 210 626 210 628 226 c 1,16,-1
 623 227 l 1,17,18
 476 -17 476 -17 302 -17 c 0,19,20
 230 -17 230 -17 190 57.5 c 128,-1,21
 150 132 150 132 150 252 c 0,22,23
 150 411 150 411 217 552 c 128,-1,24
 284 693 284 693 407 781 c 128,-1,25
 530 869 530 869 679 869 c 0,0,1
576 761 m 128,-1,27
 518 761 518 761 473.5 719 c 128,-1,28
 429 677 429 677 404 606 c 0,29,30
 353 465 353 465 353 268 c 0,31,32
 353 138 353 138 423 138 c 0,33,34
 506 138 506 138 574 226 c 128,-1,35
 642 314 642 314 651 424 c 2,36,-1
 678 743 l 1,37,26
 634 761 634 761 576 761 c 128,-1,27
343 1271 m 1,38,-1
 484 1295 l 1,39,40
 510 1218 510 1218 567 1146.5 c 128,-1,41
 624 1075 624 1075 690 1038 c 1,42,-1
 657 1006 l 1,43,44
 550 1047 550 1047 462.5 1116.5 c 128,-1,45
 375 1186 375 1186 343 1271 c 1,38,-1
EndSplineSet
EndChar

StartChar: aacute
Encoding: 225 225 164
Width: 940
GlyphClass: 2
Flags: W
LayerCount: 2
Fore
SplineSet
679 869 m 0,0,1
 777 869 777 869 885 858 c 1,2,3
 881 612 881 612 783 115 c 1,4,-1
 790 111 l 1,5,6
 895 168 895 168 999 312 c 1,7,-1
 1019 299 l 1,8,9
 962 184 962 184 860 83.5 c 128,-1,10
 758 -17 758 -17 676 -17 c 0,11,12
 639 -17 639 -17 614.5 1 c 128,-1,13
 590 19 590 19 590 43 c 128,-1,14
 590 67 590 67 608 138.5 c 128,-1,15
 626 210 626 210 628 226 c 1,16,-1
 623 227 l 1,17,18
 476 -17 476 -17 302 -17 c 0,19,20
 230 -17 230 -17 190 57.5 c 128,-1,21
 150 132 150 132 150 252 c 0,22,23
 150 411 150 411 217 552 c 128,-1,24
 284 693 284 693 407 781 c 128,-1,25
 530 869 530 869 679 869 c 0,0,1
576 761 m 128,-1,27
 518 761 518 761 473.5 719 c 128,-1,28
 429 677 429 677 404 606 c 0,29,30
 353 465 353 465 353 268 c 0,31,32
 353 138 353 138 423 138 c 0,33,34
 506 138 506 138 574 226 c 128,-1,35
 642 314 642 314 651 424 c 2,36,-1
 678 743 l 1,37,26
 634 761 634 761 576 761 c 128,-1,27
759 1296 m 1,38,-1
 895 1272 l 1,39,40
 863 1182 863 1182 774.5 1113.5 c 128,-1,41
 686 1045 686 1045 578 1004 c 1,42,-1
 545 1036 l 1,43,44
 699 1134 699 1134 759 1296 c 1,38,-1
EndSplineSet
EndChar

